<?xml version="1.0" encoding="UTF-8"?>
<svg width="24px" height="29px" viewBox="0 0 24 29" version="1.1" xmlns="http://www.w3.org/2000/svg" xmlns:xlink="http://www.w3.org/1999/xlink">
    <!-- Generator: Sketch 48.2 (47327) - http://www.bohemiancoding.com/sketch -->
    <title>noun_837069_cc copy 2</title>
    <desc>Created with Sketch.</desc>
    <defs></defs>
    <g id="Marks-Overview" stroke="none" stroke-width="1" fill="none" fill-rule="evenodd">
        <g id="noun_837069_cc-copy-2" fill="#FFFFFF" fill-rule="nonzero">
            <path d="M3.08519987,22.6247991 C3.08519987,22.6247991 5.97179976,25.115699 11.9999995,25.115699 C18.0281993,25.115699 20.9150992,22.6247991 20.9150992,22.6247991 L20.9147992,20.4884992 C20.9147992,20.4884992 18.0278993,22.9787991 11.9996995,22.9787991 C5.97179976,22.9787991 3.08489987,20.4884992 3.08489987,20.4884992 L3.08519987,22.6247991 Z" id="Shape"></path>
            <path d="M11.9999995,28.1096989 C5.33969978,28.1096989 2.04959992,25.337099 1.91279992,25.218899 C1.41089994,24.785999 1.35539994,24.028199 1.78829993,23.526299 C2.21969991,23.0261991 2.97299988,22.9694991 3.47519986,23.3966991 C3.52769986,23.440499 6.32429974,25.709399 11.9999995,25.709399 C17.7776993,25.709399 20.4929992,23.424599 20.5193992,23.4017991 C21.0212991,22.9685991 21.7790991,23.0243991 22.2119991,23.526299 C22.6448991,24.028199 22.5890991,24.785999 22.0874991,25.218899 C21.9506991,25.337099 18.6599992,28.1096989 11.9999995,28.1096989 Z" id="Shape"></path>
            <path d="M12.0002995,0.0902999963 C5.48309978,0.0902999963 0.200099992,5.37329978 0.200099992,11.8901995 C0.200099992,15.2363994 1.59539994,18.2552993 3.83309984,20.4026992 C5.0426998,21.1319991 7.73369969,22.3784991 11.9996995,22.3784991 C16.2680993,22.3784991 18.9593992,21.1307991 20.1683992,20.4014992 C22.4054991,18.2540993 23.800199,15.2357994 23.800199,11.8901995 C23.800199,5.37359978 18.5171992,0.0902999963 12.0002995,0.0902999963 Z M21.6254991,11.4542995 C21.6164991,11.6165995 21.6140991,11.7662995 21.5981991,11.9048995 C21.5720991,12.0434995 21.5480991,12.1706995 21.5264991,12.2855995 C21.4862991,12.5135995 21.4355991,12.6896995 21.4091991,12.8087995 C21.3770991,12.9272995 21.3599991,12.9905995 21.3599991,12.9905995 L21.2399991,12.9905995 C21.2399991,12.9905995 21.2237991,12.7421995 21.1955991,12.3077995 C21.1883991,12.1994995 21.1802991,12.0791995 21.1715991,11.9486995 C21.1499991,11.8193995 21.1265991,11.6798995 21.1013991,11.5304995 C21.0530991,11.2313995 21.0023991,10.8941996 20.8952992,10.5368996 C20.8478992,10.3571996 20.7983992,10.1699996 20.7470992,9.9761996 C20.6774992,9.7883996 20.6048992,9.59399961 20.5307992,9.39449962 C20.4935992,9.29459962 20.4560992,9.19349963 20.4179992,9.09089963 C20.3759992,8.99009964 20.3231992,8.89259964 20.2754992,8.79149964 C20.1773992,8.59079965 20.0771992,8.38529966 19.9751992,8.17679967 C19.7255992,7.78529968 19.5005992,7.3589997 19.1891992,6.98219972 C18.9110992,6.58019973 18.5591992,6.22979975 18.2276993,5.86319976 C17.8604993,5.53199978 17.5103993,5.17979979 17.1086993,4.9019998 C16.7318993,4.59029981 16.3055993,4.36529982 15.9140994,4.11569983 C15.7055994,4.01369984 15.5000994,3.91349984 15.2993994,3.81569985 C15.1982994,3.76799985 15.1007994,3.71489985 14.9999994,3.67319985 C14.8973994,3.63509985 14.7962994,3.59759985 14.6963994,3.56039986 C14.4968994,3.48599986 14.3024994,3.41399986 14.1149994,3.34409986 C13.9211994,3.29279987 13.7336994,3.24329987 13.5539994,3.19589987 C13.1963995,3.08879987 12.8603995,3.03899988 12.5627995,2.99009988 C12.4139995,2.96519988 12.2747995,2.94149988 12.1457995,2.91989988 C12.0143995,2.91089988 11.8931995,2.90279988 11.7839995,2.89559988 C11.3468995,2.86709988 11.0972995,2.85089988 11.0972995,2.85089988 L11.1032995,2.73119989 C11.1032995,2.73119989 11.1668995,2.71379989 11.2859995,2.68169989 C11.4047995,2.65499989 11.5796995,2.60429989 11.8010995,2.5631999 C11.9117995,2.5409999 12.0344995,2.5163999 12.1682995,2.4896999 C12.3077995,2.4731999 12.4592995,2.4713999 12.6239995,2.4617999 C12.7907995,2.4545999 12.9680995,2.4470999 13.1552995,2.4392999 C13.3469995,2.4290999 13.5296995,2.4662999 13.7333994,2.4797999 C13.9358994,2.5004999 14.1467994,2.5220999 14.3648994,2.5442999 C14.5787994,2.58749989 14.7968994,2.64659989 15.0248994,2.70089989 C15.4874994,2.79389989 15.9431994,2.98949988 16.4252993,3.17579987 C16.6562993,3.28859987 16.8863993,3.41369986 17.1206993,3.53969986 C17.3618993,3.65579985 17.5802993,3.81299985 17.8022993,3.96959984 C18.2648993,4.26059983 18.6626992,4.64759981 19.0763992,5.0147998 C19.4432992,5.42849978 19.8293992,5.82719976 20.1200992,6.28949974 C20.2769992,6.51149974 20.4326992,6.73109973 20.5496992,6.97169972 C20.6759992,7.20569971 20.7998992,7.4366997 20.9129992,7.66709969 C21.0068991,7.90799968 21.1049991,8.14109967 21.1832991,8.37539966 C21.2231991,8.49239966 21.2675991,8.60519965 21.3011991,8.72099965 C21.3305991,8.83799964 21.3590991,8.95349964 21.3875991,9.06749963 C21.4418991,9.29549962 21.5024991,9.51329961 21.5438991,9.72749961 C21.5663991,9.9455996 21.5879991,10.1564996 21.6089991,10.3586996 C21.6221991,10.5608996 21.6611991,10.7474996 21.6491991,10.9337996 C21.6404991,11.1167995 21.6326991,11.2907995 21.6254991,11.4542995 Z" id="Shape"></path>
        </g>
    </g>
</svg>