<svg xmlns="http://www.w3.org/2000/svg" width="460" height="400" viewBox="0 0 500 422">
    <defs>
        <linearGradient id="a" x1="50%" x2="50%" y1="100%" y2="0%">
            <stop offset="0%" stop-color="gray" stop-opacity=".25"/>
            <stop offset="54%" stop-color="gray" stop-opacity=".12"/>
            <stop offset="100%" stop-color="gray" stop-opacity=".1"/>
        </linearGradient>
        <linearGradient id="b" x1="50%" x2="50%" y1="100%" y2="0%">
            <stop offset="0%" stop-opacity=".12"/>
            <stop offset="55%" stop-opacity=".09"/>
            <stop offset="100%" stop-opacity=".02"/>
        </linearGradient>
        <linearGradient id="c" x1="50%" x2="50%" y1="-512.903%" y2="-512.903%">
            <stop offset="0%" stop-opacity=".12"/>
            <stop offset="55%" stop-opacity=".09"/>
            <stop offset="100%" stop-opacity=".02"/>
        </linearGradient>
        <linearGradient id="d" x1="0%" y1="50%" y2="50%">
            <stop offset="0%" stop-opacity=".12"/>
            <stop offset="55%" stop-opacity=".09"/>
            <stop offset="100%" stop-opacity=".02"/>
        </linearGradient>
        <linearGradient id="e" x1="0%" y1="50%" y2="50%">
            <stop offset="0%" stop-color="gray" stop-opacity=".25"/>
            <stop offset="54%" stop-color="gray" stop-opacity=".12"/>
            <stop offset="100%" stop-color="gray" stop-opacity=".1"/>
        </linearGradient>
        <linearGradient id="f" x1="50%" x2="50%" y1="100%" y2="0%">
            <stop offset="0%" stop-color="gray" stop-opacity=".25"/>
            <stop offset="54%" stop-color="gray" stop-opacity=".12"/>
            <stop offset="100%" stop-color="gray" stop-opacity=".1"/>
        </linearGradient>
        <linearGradient id="g" x1="50%" x2="50%" y1="100%" y2=".008%">
            <stop offset="0%" stop-color="gray" stop-opacity=".25"/>
            <stop offset="54%" stop-color="gray" stop-opacity=".12"/>
            <stop offset="100%" stop-color="gray" stop-opacity=".1"/>
        </linearGradient>
    </defs>
    <g fill="none" fill-rule="nonzero">
        <path fill="#EC4C6F" d="M39.747 0H460.83v421.083H39.747z" opacity=".2"/>
        <path fill="#EC4C6F" d="M103.111 39.315H396.89v343.03H103.111z" opacity=".5"/>
        <path fill="url(#a)" d="M342.742 60.484H500v302.419H342.742zM0 61.636h157.258v302.419H0z"/>
        <path fill="#EC4C6F" d="M347.926 65.092h146.889v291.475H347.926zM152.074 356.567H5.185V65.092h146.89z"/>
        <path fill="url(#b)" d="M29.378 91.59h98.502v17.857H29.378zM372.696 118.664h98.502v17.857h-98.502zM372.12 146.313h98.502v17.857H372.12zM372.12 173.963h98.502v17.857H372.12zM372.12 201.613h98.502v17.857H372.12zM372.12 229.263h98.502v17.857H372.12zM372.12 256.912h98.502v17.857H372.12zM372.12 284.562h98.502v17.857H372.12zM372.12 312.212h98.502v17.857H372.12z"/>
        <path fill="url(#c)" d="M372.12 91.59h98.502v17.857H372.12z"/>
        <path fill="url(#d)" d="M29.378 119.816h98.502v17.857H29.378zM29.378 146.889h98.502v17.857H29.378zM29.378 173.963h98.502v17.857H29.378zM29.378 201.613h98.502v17.857H29.378zM29.378 229.263h98.502v17.857H29.378z"/>
        <path fill="#FFF" d="M31.682 93.894h94.47v13.825h-94.47zM31.394 120.968h94.47v13.825h-94.47zM31.394 148.618h94.47v13.825h-94.47zM31.394 176.267h94.47v13.825h-94.47zM31.394 203.917h94.47v13.825h-94.47zM31.394 231.567h94.47v13.825h-94.47z"/>
        <path fill="url(#d)" d="M29.378 256.912h98.502v17.857H29.378z"/>
        <path fill="#FFF" d="M31.394 259.217h94.47v13.825h-94.47z"/>
        <path fill="#FFF" d="M31.394 259.217h94.47v13.825h-94.47zM31.394 286.866h94.47v13.825h-94.47zM31.394 314.516h94.47v13.825h-94.47zM374.424 93.318h94.47v13.825h-94.47zM374.424 120.968h94.47v13.825h-94.47zM374.424 148.618h94.47v13.825h-94.47zM374.424 176.267h94.47v13.825h-94.47zM374.424 203.917h94.47v13.825h-94.47zM374.424 231.567h94.47v13.825h-94.47zM374.424 259.217h94.47v13.825h-94.47zM374.424 286.866h94.47v13.825h-94.47zM374.424 314.516h94.47v13.825h-94.47z"/>
        <path fill="url(#e)" d="M76.037 371.544h347.35v21.889H76.037z"/>
        <path fill="#EC4C6F" d="M78.917 373.848h342.166v17.281H78.917z"/>
        <path fill="url(#f)" d="M77.189 28.802h346.774v22.465H77.189z"/>
        <path fill="#EC4C6F" d="M78.917 30.53h342.166v17.281H78.917z"/>
        <path fill="#263238" d="M166.475 65.092h168.203v291.475H166.475z" opacity=".5"/>
        <path fill="url(#g)" d="M379.988 191.85c4.033 5.402-2.004 11.785-2.004 11.785l1.014.351c-1.492 1.653-7.385 9.113-30.104 42.857-29.09 43.203-68.29 53.98-68.29 53.98a48.387 48.387 0 0 0-15.973-8.242v-4.079a47.811 47.811 0 0 0 31.855-30.806 49.01 49.01 0 0 0 5.265-22.143c0-27.65-22.909-50.08-51.163-50.08-28.255 0-51.164 22.424-51.164 50.08a49.01 49.01 0 0 0 5.265 22.143 47.811 47.811 0 0 0 31.855 30.806v4.079a48.387 48.387 0 0 0-15.974 8.243s-39.216-10.79-68.306-53.992c-22.72-33.744-28.612-41.21-30.104-42.857l1.014-.352s-6.02-6.382-2.005-11.785c4.015-5.404-26.584-11.786-23.076 0 3.508 11.785 8.025 17.678 8.025 17.678s64.055 101.025 97.494 117.719a46.33 46.33 0 0 0-1.187 10.438v19.643h96.302v-19.643a46.33 46.33 0 0 0-1.187-10.438c33.41-16.705 97.495-117.713 97.495-117.713s4.516-5.893 8.024-17.679c3.508-11.785-27.085-5.397-23.07.006z"/>
        <circle cx="250.576" cy="238.174" r="48.998" fill="#263238"/>
        <circle cx="250.576" cy="245.864" r="46.118" fill="#F8C198"/>
        <circle cx="232.321" cy="235.772" r="5.766" fill="#263238"/>
        <circle cx="269.793" cy="235.772" r="5.766" fill="#263238"/>
        <path fill="#FFF" d="M264.026 266.993c0 3.456-6.02 9.13-13.45 9.13s-13.45-5.674-13.45-9.13c0-3.456 6.02-3.364 13.45-3.364s13.45-.092 13.45 3.364z"/>
        <circle cx="233.762" cy="235.772" r="1.924" fill="#FFF"/>
        <circle cx="271.711" cy="235.772" r="1.924" fill="#FFF"/>
        <path fill="#263238" d="M255.184 220.265c-2.81 0-5.334-2.442-5.633-5.236a6.912 6.912 0 0 1 4.032-6.769 1.97 1.97 0 0 1 .847-.219c.967 0 1.446 1.153 1.757 2.068.967 2.835 2.684 5.6 5.38 6.913 2.696 1.313 6.463.64 7.886-1.999-3.814-1.7-5.444-7.033-3.226-10.57.858-1.365 2.195-2.523 2.465-4.113.496-2.88-2.66-4.977-5.455-5.841-8.064-2.494-36.175-2.77-37.724 9.263-1.625 12.695 20.818 18.185 29.671 16.503z"/>
        <ellipse cx="206.372" cy="246.356" fill="#F8C198" rx="2.88" ry="8.168" transform="rotate(-21.53 206.372 246.356)"/>
        <ellipse cx="294.766" cy="246.326" fill="#F8C198" rx="8.168" ry="2.88" transform="rotate(-68.47 294.766 246.326)"/>
        <path fill="#FF9800" d="M279.326 302.04s37.54-10.542 65.403-52.818c27.863-42.275 29.303-42.39 29.303-42.39l14.89 5.881s-69.17 111.452-98.95 117.218c-29.782 5.766-10.646-27.892-10.646-27.892z"/>
        <path fill="#F8C198" d="M372.598 206.953s5.76-6.244 1.924-11.521c-3.837-5.276 25.46-11.52 22.097 0-3.364 11.52-7.685 17.281-7.685 17.281l-16.336-5.76z"/>
        <path fill="#FF9800" d="M221.826 302.04s-37.54-10.542-65.403-52.818c-27.863-42.275-29.303-42.39-29.303-42.39l-14.89 5.881s69.176 111.452 98.962 117.218c29.787 5.766 10.634-27.892 10.634-27.892z"/>
        <path fill="#F8C198" d="M128.554 206.953s-5.76-6.244-1.924-11.521c3.837-5.276-25.46-11.52-22.097 0 3.364 11.52 7.685 17.281 7.685 17.281l16.336-5.76z"/>
        <g fill="#FFF" opacity=".2">
            <path d="M266.296 197.448c-.276 1.59-1.613 2.742-2.465 4.113-1.942 3.1-.934 7.58 1.912 9.793a7.368 7.368 0 0 1 .49-6.417c.858-1.366 2.194-2.523 2.465-4.113.311-1.803-.812-3.301-2.379-4.378.041.333.033.671-.023 1.002zM254.297 208.531c-.184-.432-.357-.87-.507-1.307-.31-.916-.789-2.04-1.757-2.068a1.97 1.97 0 0 0-.846.218 6.912 6.912 0 0 0-4.033 6.769 6.066 6.066 0 0 0 2.575 4.234 5.415 5.415 0 0 1-.173-.87 6.912 6.912 0 0 1 4.033-6.769 2.23 2.23 0 0 1 .708-.207zM250.236 217.656c-7.004.293-18.306-2.38-23.877-8.065 4.16 8.848 21.343 12.552 28.802 11.129a5.806 5.806 0 0 1-4.925-3.064zM266.52 212.909c-1.681 1.976-4.942 2.39-7.344 1.221a8.376 8.376 0 0 1-2.131-1.503 10.276 10.276 0 0 0 4.533 4.861c2.696 1.308 6.463.64 7.886-1.998a6.843 6.843 0 0 1-2.943-2.581z"/>
        </g>
        <path fill="#FFF" d="M387.01 212.713s-69.176 111.452-98.992 117.218c-1.722.345-3.469.559-5.224.64 2.4.068 4.799-.147 7.148-.64 29.787-5.76 98.964-117.218 98.964-117.218l-1.544-.547a6.448 6.448 0 0 1-.352.547zM114.142 212.713s69.176 111.452 98.992 117.218c1.723.345 3.47.559 5.224.64-2.4.068-4.799-.147-7.148-.64-29.787-5.76-98.963-117.218-98.963-117.218l1.543-.547c.213.363.352.547.352.547z" opacity=".2"/>
        <path fill="#FF9800" d="M250.576 291.982a46.118 46.118 0 0 1 46.118 46.117v19.217h-92.235v-19.217a46.118 46.118 0 0 1 46.117-46.117z"/>
        <path fill="#FFF" d="M251.054 292.224c-1.678 0-3.355.09-5.023.27.576 0 1.1-.034 1.66-.034 25.47 0 46.117 20.647 46.117 46.117v18.975h3.364V338.34a46.118 46.118 0 0 0-46.118-46.117z" opacity=".2"/>
        <path fill="#FFF" d="M250.098 292.224c1.678 0 3.355.09 5.023.27-.576 0-1.1-.034-1.659-.034-25.47 0-46.118 20.647-46.118 46.117v18.975h-3.364V338.34c0-25.47 20.648-46.117 46.118-46.117z" opacity=".2"/>
        <rect width="26.901" height="32.425" x="237.126" y="279.251" fill="#F8C198" rx="13.45"/>
    </g>
</svg>
