<?xml version="1.0" encoding="UTF-8"?>
<svg width="453px" height="364px" viewBox="0 0 453 364" version="1.1" xmlns="http://www.w3.org/2000/svg" xmlns:xlink="http://www.w3.org/1999/xlink">
    <!-- Generator: Sketch 50.2 (55047) - http://www.bohemiancoding.com/sketch -->
    <title>undraw_data_xmfy (1)</title>
    <desc>Created with Sketch.</desc>
    <defs>
        <linearGradient x1="50%" y1="100%" x2="50%" y2="0%" id="linearGradient-1">
            <stop stop-color="#808080" stop-opacity="0.25" offset="0%"></stop>
            <stop stop-color="#808080" stop-opacity="0.12" offset="54%"></stop>
            <stop stop-color="#808080" stop-opacity="0.1" offset="100%"></stop>
        </linearGradient>
        <linearGradient x1="49.9285714%" y1="100.071429%" x2="49.9285714%" y2="0.0714285714%" id="linearGradient-2">
            <stop stop-color="#808080" stop-opacity="0.25" offset="0%"></stop>
            <stop stop-color="#808080" stop-opacity="0.12" offset="54%"></stop>
            <stop stop-color="#808080" stop-opacity="0.1" offset="100%"></stop>
        </linearGradient>
        <linearGradient x1="20%" y1="26.6450864%" x2="20%" y2="0.64508637%" id="linearGradient-3">
            <stop stop-color="#808080" stop-opacity="0.25" offset="0%"></stop>
            <stop stop-color="#808080" stop-opacity="0.12" offset="54%"></stop>
            <stop stop-color="#808080" stop-opacity="0.1" offset="100%"></stop>
        </linearGradient>
        <linearGradient x1="50.0349437%" y1="100.017363%" x2="50.0349437%" y2="-0.00121488599%" id="linearGradient-4">
            <stop stop-color="#808080" stop-opacity="0.25" offset="0%"></stop>
            <stop stop-color="#808080" stop-opacity="0.12" offset="54%"></stop>
            <stop stop-color="#808080" stop-opacity="0.1" offset="100%"></stop>
        </linearGradient>
        <linearGradient x1="23.800009%" y1="31.2277712%" x2="23.800009%" y2="0.227771172%" id="linearGradient-5">
            <stop stop-color="#808080" stop-opacity="0.25" offset="0%"></stop>
            <stop stop-color="#808080" stop-opacity="0.12" offset="54%"></stop>
            <stop stop-color="#808080" stop-opacity="0.1" offset="100%"></stop>
        </linearGradient>
        <linearGradient x1="50.0140677%" y1="100%" x2="50.0140677%" y2="-0.00389417185%" id="linearGradient-6">
            <stop stop-color="#808080" stop-opacity="0.25" offset="0%"></stop>
            <stop stop-color="#808080" stop-opacity="0.12" offset="54%"></stop>
            <stop stop-color="#808080" stop-opacity="0.1" offset="100%"></stop>
        </linearGradient>
        <linearGradient x1="50%" y1="100%" x2="50%" y2="-5.36258668e-14%" id="linearGradient-7">
            <stop stop-color="#808080" stop-opacity="0.25" offset="0%"></stop>
            <stop stop-color="#808080" stop-opacity="0.12" offset="54%"></stop>
            <stop stop-color="#808080" stop-opacity="0.1" offset="100%"></stop>
        </linearGradient>
        <linearGradient x1="50.0273059%" y1="99.999138%" x2="50.0273059%" y2="0.0062036416%" id="linearGradient-8">
            <stop stop-color="#808080" stop-opacity="0.25" offset="0%"></stop>
            <stop stop-color="#808080" stop-opacity="0.12" offset="54%"></stop>
            <stop stop-color="#808080" stop-opacity="0.1" offset="100%"></stop>
        </linearGradient>
        <linearGradient x1="50%" y1="0%" x2="50%" y2="0%" id="linearGradient-9">
            <stop stop-color="#808080" stop-opacity="0.25" offset="0%"></stop>
            <stop stop-color="#808080" stop-opacity="0.12" offset="54%"></stop>
            <stop stop-color="#808080" stop-opacity="0.1" offset="100%"></stop>
        </linearGradient>
        <linearGradient x1="0.0174947516%" y1="49.9860514%" x2="100%" y2="49.9860514%" id="linearGradient-10">
            <stop stop-color="#808080" stop-opacity="0.25" offset="0%"></stop>
            <stop stop-color="#808080" stop-opacity="0.12" offset="54%"></stop>
            <stop stop-color="#808080" stop-opacity="0.1" offset="100%"></stop>
        </linearGradient>
    </defs>
    <g id="Student" stroke="none" stroke-width="1" fill="none" fill-rule="evenodd">
        <g id="1_Login-Copy-4" transform="translate(-498.000000, -266.000000)">
            <g id="undraw_data_xmfy-(1)" transform="translate(498.000000, 266.000000)">
                <rect id="Rectangle-path" fill="#F5F5F5" fill-rule="nonzero" x="4" y="2" width="198" height="7"></rect>
                <rect id="Rectangle-path" fill="url(#linearGradient-1)" fill-rule="nonzero" x="0" y="0" width="205" height="251"></rect>
                <rect id="Rectangle-path" fill="#FFFFFF" fill-rule="nonzero" x="4" y="10" width="198" height="237"></rect>
                <circle id="Oval" fill="#FF5252" fill-rule="nonzero" cx="8" cy="6" r="2"></circle>
                <circle id="Oval" fill="#FFFF00" fill-rule="nonzero" cx="13" cy="6" r="2"></circle>
                <circle id="Oval" fill="#69F0AE" fill-rule="nonzero" cx="18" cy="6" r="2"></circle>
                <g id="Group" opacity="0.2" transform="translate(9.000000, 19.000000)" fill="#6C63FF" fill-rule="nonzero">
                    <rect id="Rectangle-path" x="0.3224" y="0" width="77.48" height="5"></rect>
                </g>
                <rect id="Rectangle-path" fill="#F5F5F5" fill-rule="nonzero" x="64" y="38" width="77" height="5"></rect>
                <rect id="Rectangle-path" fill="#6C63FF" fill-rule="nonzero" opacity="0.5" x="9" y="188" width="77" height="5"></rect>
                <rect id="Rectangle-path" fill="url(#linearGradient-1)" fill-rule="nonzero" x="97" y="187" width="26" height="6"></rect>
                <rect id="Rectangle-path" fill="url(#linearGradient-1)" fill-rule="nonzero" x="97" y="216" width="26" height="6"></rect>
                <rect id="Rectangle-path" fill="url(#linearGradient-1)" fill-rule="nonzero" x="150" y="216" width="26" height="6"></rect>
                <rect id="Rectangle-path" fill="#6C63FF" fill-rule="nonzero" x="98" y="188" width="24" height="5"></rect>
                <rect id="Rectangle-path" fill="#6C63FF" fill-rule="nonzero" x="98" y="217" width="24" height="5"></rect>
                <rect id="Rectangle-path" fill="#6C63FF" fill-rule="nonzero" x="150" y="217" width="24" height="5"></rect>
                <rect id="Rectangle-path" fill="#F5F5F5" fill-rule="nonzero" x="9" y="202" width="77" height="5"></rect>
                <rect id="Rectangle-path" fill="#6C63FF" fill-rule="nonzero" opacity="0.5" x="98" y="202" width="77" height="5"></rect>
                <rect id="Rectangle-path" fill="#F5F5F5" fill-rule="nonzero" x="98" y="231" width="77" height="5"></rect>
                <rect id="Rectangle-path" fill="#6C63FF" fill-rule="nonzero" opacity="0.5" x="9" y="217" width="77" height="5"></rect>
                <rect id="Rectangle-path" fill="#F5F5F5" fill-rule="nonzero" x="9" y="231" width="77" height="5"></rect>
                <rect id="Rectangle-path" fill="#F5F5F5" fill-rule="nonzero" x="64" y="45" width="43" height="5"></rect>
                <rect id="Rectangle-path" fill="#F5F5F5" fill-rule="nonzero" x="115" y="45" width="15" height="5"></rect>
                <rect id="Rectangle-path" fill="#F5F5F5" fill-rule="nonzero" x="64" y="61" width="43" height="5"></rect>
                <rect id="Rectangle-path" fill="#F5F5F5" fill-rule="nonzero" x="115" y="61" width="15" height="5"></rect>
                <rect id="Rectangle-path" fill="#F5F5F5" fill-rule="nonzero" x="64" y="53" width="77" height="5"></rect>
                <g id="Group" opacity="0.2" transform="translate(118.000000, 19.000000)" fill="#6C63FF" fill-rule="nonzero">
                    <rect id="Rectangle-path" x="0.3224" y="0" width="77.48" height="5"></rect>
                </g>
                <rect id="Rectangle-path" fill="url(#linearGradient-1)" fill-rule="nonzero" x="162" y="37" width="9" height="6"></rect>
                <rect id="Rectangle-path" fill="url(#linearGradient-1)" fill-rule="nonzero" x="162" y="45" width="9" height="6"></rect>
                <rect id="Rectangle-path" fill="url(#linearGradient-1)" fill-rule="nonzero" x="162" y="53" width="9" height="6"></rect>
                <rect id="Rectangle-path" fill="#FF5252" fill-rule="nonzero" x="162" y="38" width="8" height="5"></rect>
                <rect id="Rectangle-path" fill="#FF9800" fill-rule="nonzero" x="162" y="45" width="8" height="5"></rect>
                <rect id="Rectangle-path" fill="#69F0AE" fill-rule="nonzero" x="162" y="53" width="8" height="5"></rect>
                <rect id="Rectangle-path" fill="url(#linearGradient-1)" fill-rule="nonzero" x="162" y="60" width="9" height="6"></rect>
                <rect id="Rectangle-path" fill="#6C63FF" fill-rule="nonzero" x="162" y="61" width="8" height="5"></rect>
                <rect id="Rectangle-path" fill="url(#linearGradient-1)" fill-rule="nonzero" x="8" y="94" width="190" height="78"></rect>
                <rect id="Rectangle-path" fill="#6C63FF" fill-rule="nonzero" opacity="0.5" x="9" y="96" width="186" height="73"></rect>
                <polygon id="Shape" fill="#FFFFFF" fill-rule="nonzero" opacity="0.5" points="14.6991643 101.65493 195 101.65493 195 96 9 96 9 169 14.6991643 169"></polygon>
                <rect id="Rectangle-path" fill="url(#linearGradient-1)" fill-rule="nonzero" transform="translate(107.500000, 137.500000) rotate(-5.200000) translate(-107.500000, -137.500000) " x="12" y="98" width="191" height="79"></rect>
                <rect id="Rectangle-path" fill="#FFFFFF" fill-rule="nonzero" transform="translate(108.000000, 136.500000) rotate(-5.200000) translate(-108.000000, -136.500000) " x="15" y="100" width="186" height="73"></rect>
                <path d="M26.2047639,169 L23,128.072676 C23,128.072676 39.540717,110.406953 72.9322895,123.500371 C106.323862,136.59379 122.068557,127.35046 127.49598,118.507207 C132.923402,109.663954 161.094311,99.8023235 170.222719,114.594769 C179.351128,129.387214 190.299015,112.755455 190.299015,112.755455 L194,153.630821 L26.2047639,169 Z" id="Shape" fill="#6C63FF" fill-rule="nonzero" opacity="0.5"></path>
                <path d="M43,119 L43.54,122" id="Shape" stroke="#6C63FF"></path>
                <path d="M44,128 L47,161" id="Shape" stroke="#6C63FF" stroke-dasharray="11.51"></path>
                <path d="M47,163 L47.55,166" id="Shape" stroke="#6C63FF"></path>
                <path d="M75,124 L75.55,127" id="Shape" stroke="#6C63FF"></path>
                <path d="M75,134 L77,158" id="Shape" stroke="#6C63FF" stroke-dasharray="13.06"></path>
                <path d="M78,160 L78.54,163" id="Shape" stroke="#6C63FF"></path>
                <path d="M107,129 L107.6,132" id="Shape" stroke="#6C63FF"></path>
                <path d="M108,137 L110,155" id="Shape" stroke="#6C63FF" stroke-dasharray="9.789999999999999"></path>
                <path d="M110,158 L110.59,161" id="Shape" stroke="#6C63FF"></path>
                <path d="M136,111 L136.54,114" id="Shape" stroke="#6C63FF"></path>
                <path d="M137,120 L140,152" id="Shape" stroke="#6C63FF" stroke-dasharray="11.28"></path>
                <path d="M140,155 L140.55,158" id="Shape" stroke="#6C63FF"></path>
                <path d="M157,107 L157.54,110" id="Shape" stroke="#6C63FF"></path>
                <path d="M158,116 L161,150" id="Shape" stroke="#6C63FF" stroke-dasharray="11.93"></path>
                <path d="M161,153 L161.55,156" id="Shape" stroke="#6C63FF"></path>
                <circle id="Oval" fill="#FF9800" fill-rule="nonzero" transform="translate(42.500000, 118.500000) rotate(-5.200000) translate(-42.500000, -118.500000) " cx="42.5" cy="118.5" r="2.5"></circle>
                <circle id="Oval" fill="#FF5252" fill-rule="nonzero" transform="translate(74.500000, 123.500000) rotate(-5.200000) translate(-74.500000, -123.500000) " cx="74.5" cy="123.5" r="2.5"></circle>
                <circle id="Oval" fill="#69F0AE" fill-rule="nonzero" transform="translate(106.500000, 129.500000) rotate(-5.200000) translate(-106.500000, -129.500000) " cx="106.5" cy="129.5" r="2.5"></circle>
                <circle id="Oval" fill="url(#linearGradient-2)" fill-rule="nonzero" transform="translate(135.500000, 110.500000) rotate(-5.200000) translate(-135.500000, -110.500000) " cx="135.5" cy="110.5" r="3.5"></circle>
                <circle id="Oval" fill="url(#linearGradient-1)" fill-rule="nonzero" transform="translate(157.500000, 106.500000) rotate(-5.200000) translate(-157.500000, -106.500000) " cx="157.5" cy="106.5" r="3.5"></circle>
                <circle id="Oval" fill="#6C63FF" fill-rule="nonzero" transform="translate(135.500000, 110.500000) rotate(-5.200000) translate(-135.500000, -110.500000) " cx="135.5" cy="110.5" r="2.5"></circle>
                <circle id="Oval" fill="#6C63FF" fill-rule="nonzero" transform="translate(157.500000, 106.500000) rotate(-5.200000) translate(-157.500000, -106.500000) " cx="157.5" cy="106.5" r="2.5"></circle>
                <circle id="Oval" fill="#69F0AE" fill-rule="nonzero" transform="translate(190.500000, 113.500000) rotate(-5.200000) translate(-190.500000, -113.500000) " cx="190.5" cy="113.5" r="2.5"></circle>
                <g id="Group" opacity="0.2" transform="translate(195.000000, 164.000000)" fill="url(#linearGradient-3)" fill-rule="nonzero">
                    <path d="M0.13,0.36 L0.165,0.475 C0.55,0.26 0.13,0.36 0.13,0.36 Z" id="Shape"></path>
                </g>
                <g id="Group" opacity="0.2" transform="translate(160.000000, 162.000000)" fill="url(#linearGradient-4)" fill-rule="nonzero">
                    <path d="M31.2717949,88.8456647 L39.6205128,87.492659 L38.4717949,82.3481503 L38.4717949,82.2761272 L38.4410256,82.2761272 L32.5230769,55.0102312 L32.5230769,35.1267052 C32.5223904,34.8740838 32.508697,34.6216666 32.4820513,34.3704624 C41.3230769,22.6101156 36.0717949,4.15676301 35.5589744,2.54653179 C35.4666667,2.59283237 35.3282051,2.65456647 35.1333333,2.7317341 C35.0692842,2.01172201 34.9335651,1.29994778 34.7282051,0.607052023 C34.7282051,0.607052023 32.1641026,-1.02890173 30.7641026,1.07520231 C29.5435897,2.91179191 30.4512821,4.0332948 30.7025641,4.29566474 L30.5282051,4.35225434 C30.9211197,4.97171549 31.1958688,5.65902759 31.3384615,6.37919075 C31.2574953,6.20180273 31.164988,6.02994829 31.0615385,5.86473988 C30.7384615,5.80815029 30.5487179,5.7567052 30.5487179,5.7567052 L30.4871795,5.70011561 L30.3128205,5.7567052 C31.2,7.0582659 31.5128205,9.35786127 31.4717949,12.0844509 C31.1653969,11.6588525 30.8221876,11.2611854 30.4461538,10.8960694 C28.8250742,9.3427201 26.6870537,8.44812947 24.4461538,8.38554913 L24.0205128,8.38554913 C23.7880342,8.38554913 23.5555556,8.40098266 23.3230769,8.43184971 L23.1487179,8.43184971 L22.8564103,8.47300578 L22.5230769,8.53473988 L22.2820513,8.58618497 L21.8666667,8.69936416 L21.7128205,8.74566474 C21.5384615,8.80225434 21.3692308,8.85884393 21.2,8.92572254 C20.6378092,9.2001571 20.0481857,9.41399313 19.4410256,9.56364162 C19.3589744,9.56364162 19.2769231,9.56364162 19.1897436,9.58936416 C18.5042333,9.63751579 17.8236294,9.44269941 17.2666667,9.03890173 L17.0820513,8.89485549 C17.0122119,8.83484797 16.9454591,8.77131701 16.8820513,8.70450867 C16.8123913,8.8827614 16.7826296,9.07419304 16.7948718,9.26526012 C16.8333211,9.71873284 17.0490117,10.1385398 17.3948718,10.4330636 C17.4919724,10.5174361 17.5986998,10.5899652 17.7128205,10.6491329 C17.8814084,10.7377856 18.0665151,10.7903408 18.2564103,10.8034682 L18.4512821,10.8034682 L18.4051282,10.8034682 C18.2871795,10.8600578 18.1692308,10.9115029 18.0461538,10.9578035 L18.0205128,10.9578035 C17.8871795,11.004104 17.7589744,11.0452601 17.6205128,11.0812717 C16.9484746,11.2516436 16.2460604,11.2622134 15.5692308,11.1121387 L15.3487179,11.0606936 C15.2410256,11.0298266 15.1282051,10.9989595 15.025641,10.962948 C15.0593664,11.0402857 15.0970227,11.1158377 15.1384615,11.1893064 L15.1794872,11.256185 L15.2717949,11.4002312 L15.3282051,11.4722543 L15.4307692,11.6008671 L15.4923077,11.6677457 L15.6205128,11.7963584 L15.6717949,11.842659 L15.8615385,12.0021387 L15.9282051,12.0484393 L16.0666667,12.146185 L16.1589744,12.2027746 L16.2820513,12.2747977 L16.3846154,12.3262428 L16.5128205,12.3828324 L16.6205128,12.4291329 L16.7641026,12.480578 L16.9435897,12.5320231 L17.0769231,12.5680347 L17.2051282,12.5680347 L17.3230769,12.5680347 L17.4564103,12.5680347 L17.9692308,12.5680347 C18.233923,12.5449492 18.4934304,12.4807339 18.7384615,12.3776879 L18.2666667,12.5731792 L18.0307692,12.6554913 L17.7897436,12.742948 L17.5487179,12.8149711 L17.3025641,12.8869942 L17.0615385,12.9487283 L16.8051282,13.0104624 L16.5692308,13.056763 L16.2974359,13.1030636 L16.0717949,13.1390751 L15.7794872,13.1750867 L15.5692308,13.1750867 L15.2358974,13.1750867 L15.0615385,13.1750867 L14.5487179,13.1750867 C14.8321691,13.2577269 15.0957169,13.3977988 15.3230769,13.5866474 C15.4700224,13.6931541 15.6303937,13.7796493 15.8,13.8438728 C15.875745,13.865963 15.952827,13.8831468 16.0307692,13.8953179 L16.0974359,13.8953179 L16.2615385,13.8953179 L16.9538462,13.8953179 L17.1794872,13.8953179 C17.6471578,13.9427051 18.0996764,14.0881818 18.5076923,14.3223121 C18.7238362,14.4618962 18.9160604,14.6356217 19.0769231,14.836763 C19.0051282,14.9550867 18.9333333,15.0682659 18.8717949,15.1917341 C18.8102564,15.3152023 18.7641026,15.3975145 18.7128205,15.5055491 C18.6102564,15.7181888 18.5196581,15.935973 18.4410256,16.1589017 C18.1490161,16.9581401 17.9997235,17.8027573 18,18.6539884 C18,18.8134682 18,18.9678035 18,19.1221387 C18,19.1632948 18,19.2095954 18,19.2507514 C18,19.3742197 18.0136752,19.4976879 18.0410256,19.6211561 L18.0410256,19.7189017 C18.0615385,19.8698073 18.0888889,20.0189981 18.1230769,20.166474 L18.1230769,20.2539306 C18.1504274,20.3773988 18.1811966,20.4991522 18.2153846,20.6191908 L18.2461538,20.7272254 C18.3323824,21.0182174 18.4368643,21.3034492 18.5589744,21.5812139 L18.5948718,21.663526 C18.6529915,21.7904239 18.7128205,21.9138921 18.774359,22.0339306 L18.774359,22.0699422 C18.8495726,22.2071291 18.9282051,22.3426012 19.0102564,22.4763584 L19.0102564,22.5072254 C19.0854701,22.6306936 19.165812,22.7507322 19.2512821,22.867341 L19.2820513,22.9084971 C19.466243,23.1630207 19.6666618,23.405319 19.8820513,23.6338728 C20.4407496,24.224276 21.0942738,24.7164122 21.8153846,25.0897688 C21.7907767,25.2001691 21.7719475,25.3117863 21.7589744,25.4241618 C21.7527559,25.5406873 21.7527559,25.657463 21.7589744,25.7739884 L21.7589744,28.490289 C21.6051282,28.5726012 21.4547009,28.6600578 21.3076923,28.752659 C14.8820513,25.8254335 5.31282051,5.08791908 5.31282051,5.08791908 L5.08205128,5.08791908 C6.01538462,4.3882659 5.08205128,1.34271676 5.08205128,1.34271676 C4.53421626,1.0150539 3.92164967,0.811386385 3.28717949,0.745953757 L2.77435897,0.745953757 L2.68205128,0.745953757 L2.61538462,0.745953757 L2.52307692,0.745953757 L2.46153846,0.745953757 L2.35897436,0.776820809 L2.30769231,0.776820809 L2.15384615,0.833410405 L2.01025641,0.900289017 L1.95897436,0.926011561 L1.86153846,0.982601156 L1.79487179,1.29641618 L1.7025641,1.35815029 L1.64615385,1.40445087 L1.55897436,1.47647399 L1.5025641,1.52791908 L1.41538462,1.61023121 L1.36410256,1.66682081 L1.27692308,1.76971098 L1.23589744,1.82115607 L1.10769231,1.99606936 C-0.292307692,4.10017341 1.10769231,5.27312139 1.10769231,5.27312139 C1.01755299,6.08446862 0.974745006,6.90040614 0.979487179,7.71676301 C0.876923077,22.8724855 17.0461538,34.6173988 17.8717949,35.2038728 C17.5076923,36.1504624 14.5025641,44.5360116 17.9076923,55.0050867 C17.9183347,55.0307095 17.9321159,55.0549034 17.9487179,55.0771098 C10.0600011,62.3699644 6.60372058,73.3039923 8.86153846,83.8246243 L8.92820513,84.1384393 L9.07692308,84.1384393 C9.06168042,84.2079654 9.04285169,84.2766512 9.02051282,84.3442197 C8.98091804,84.4681647 8.93117596,84.5886135 8.87179487,84.7043353 C8.76934933,84.9021499 8.64366903,85.0869518 8.4974359,85.2547977 C8.33846154,85.44 8.15384615,85.6252023 7.95897436,85.8155491 L7.75384615,86.0110405 C6.93846154,86.7930058 6.11282051,87.5543931 6.72820513,87.8630636 L15.5538462,87.8630636 L15.5538462,83.9995376 L15.7076923,83.9995376 C15.7076923,83.9995376 15.6461538,83.8812139 15.5538462,83.649711 L15.5538462,83.6085549 L15.5230769,83.6085549 C15.0615385,82.4150289 13.9846154,78.7212717 15.7076923,73.0314451 C17.8051282,66.0091908 25.9641026,62.5006358 25.9641026,62.5006358 L26.1128205,63.0150867 L26.0820513,63.0150867 L32.4820513,84.1075723 C32.4820513,84.1898844 32.4820513,84.2721965 32.4564103,84.3596532 C32.4274928,84.5588402 32.3811603,84.7550883 32.3179487,84.9461272 C32.2688686,85.0936799 32.2106352,85.238008 32.1435897,85.3782659 C31.7487179,86.1962428 31.0666667,87.1582659 30.7692308,87.8784971 C30.7266607,87.9771636 30.6906837,88.0785631 30.6615385,88.1820231 C30.6263405,88.2985773 30.6141469,88.4209005 30.625641,88.5421387 C30.6435706,88.6995172 30.7488968,88.8330887 30.8974359,88.8868208 L31.0153846,88.8868208 L31.2615385,88.8456647 L31.2717949,88.8456647 Z M28.8,28.793815 C28.6393162,28.7046435 28.4683761,28.6206166 28.2871795,28.5417341 L28.2871795,25.9900578 C28.2857994,25.794976 28.2669198,25.6004146 28.2307692,25.4087283 C28.783396,25.1443896 29.3003467,24.8107607 29.7692308,24.4158382 C29.4615385,25.9900578 29.1179487,27.4973988 28.8051282,28.793815 L28.8,28.793815 Z" id="Shape"></path>
                </g>
                <path d="M160.741275,169.665958 C160.741275,169.665958 159.073407,168.41164 160.741275,166.151876 C162.409142,163.892113 165.505817,165.654131 165.505817,165.654131 C165.505817,165.654131 166.617729,168.914362 165.505817,169.665958 C164.393905,170.417553 160.741275,169.665958 160.741275,169.665958 Z" id="Shape" fill="#CA7070" fill-rule="nonzero"></path>
                <path d="M177,257 L169.884814,257 C169.938107,257.717219 169.693078,258.423371 169.213763,258.933911 C168.255851,260.104009 166.329782,261.517876 167.236469,262 L177,262 L177,257 Z" id="cbb1ca8a-3a06-4d8d-9881-c3637d2b9b50" fill="#00695C" fill-rule="nonzero"></path>
                <path d="M169.402303,258.933911 C169.8247,258.423371 170.040631,257.717219 169.993667,257 L169.542244,257 C169.589208,257.717219 169.373277,258.423371 168.95088,258.933911 C168.10672,260.104009 166.40937,261.517876 167.208389,262 L167.659811,262 C166.860793,261.517876 168.558143,260.109426 169.402303,258.933911 Z" id="Shape" fill="#FFFFFF" fill-rule="nonzero" opacity="0.2"></path>
                <path d="M202.691968,256 L195.997318,257.037219 C196.18242,257.798172 196.074576,258.597294 195.693484,259.288624 C194.962222,260.763343 193.319458,262.601826 194.308207,263 L204,261.525281 L202.691968,256 Z" id="ec846da8-b8c9-4838-98ee-b96510078eab" fill="#00695C" fill-rule="nonzero"></path>
                <path d="M198.766976,167.018305 C198.766976,167.018305 206.315612,191.465634 193.655022,205 L190,202.128442 C190,202.128442 197.482642,175.445363 193.294596,169.181093 C200.685863,166.653497 198.766976,167.018305 198.766976,167.018305 Z" id="Shape" fill="#00695C" fill-rule="nonzero"></path>
                <path d="M193.741275,168.665958 C193.741275,168.665958 192.073407,167.41164 193.741275,165.151876 C195.409142,162.892113 198.505817,164.654131 198.505817,164.654131 C198.505817,164.654131 199.617729,167.914362 198.505817,168.665958 C197.393905,169.417553 193.741275,168.665958 193.741275,168.665958 Z" id="Shape" fill="#CA7070" fill-rule="nonzero"></path>
                <path d="M196.286722,259.306508 C196.682617,258.616208 196.794314,257.817921 196.601324,257.058083 L203,256.078376 L203,256 L196.068101,257.058083 C196.259762,257.816373 196.148096,258.612699 195.753499,259.30161 C194.996322,260.771169 193.295341,262.603219 194.319129,263 L194.740375,262.936319 C193.977866,262.446466 195.561539,260.687894 196.286722,259.306508 Z" id="Shape" fill="#FFFFFF" fill-rule="nonzero" opacity="0.2"></path>
                <rect id="Rectangle-path" fill="#CA7070" fill-rule="nonzero" x="184" y="189" width="7" height="11" rx="3.5"></rect>
                <path d="M190.718753,203.124183 C190.718753,203.124183 197.649244,176.682353 193.874601,170.183007 C193.541405,170.115033 193.327207,170.062745 193.327207,170.062745 L193.265327,170 L193.089209,170.062745 C197.01617,176.337255 190,203.118954 190,203.118954 L193.427166,206 L193.727043,205.644444 L190.718753,203.124183 Z" id="Shape" fill="#FFFFFF" fill-rule="nonzero" opacity="0.2"></path>
                <circle id="Oval" fill="#CA7070" fill-rule="nonzero" cx="187" cy="185" r="8"></circle>
                <path d="M184.499545,196.367726 L184.499545,192.880817 C184.499859,192.625649 184.529104,192.371239 184.586784,192.121902 C181.167713,190.470439 179.34854,186.869856 180.146667,183.333836 C180.944794,179.797816 184.162406,177.202762 188,177 L187.520187,177 C183.588063,176.998837 180.166242,179.529513 179.240315,183.123545 C178.314389,186.717578 180.125084,190.440565 183.621705,192.132158 C183.564025,192.381494 183.53478,192.635904 183.534466,192.891073 L183.534466,196.377982 C183.524427,197.419684 183.996094,198.414103 184.826989,199.103018 C185.657885,199.791934 186.766035,200.10738 187.863689,199.967446 C185.939862,199.732951 184.499894,198.192149 184.499545,196.367726 Z" id="Shape" fill="#FFFFFF" fill-rule="nonzero" opacity="0.2"></path>
                <path d="M196,225.218753 C196,225.218753 180.375608,226.976559 179.8,225.218753 C175.75,212.841731 179.8,203.075567 179.8,203.075567 C179.8,198.615555 183.426494,195 187.9,195 C192.373506,195 196,198.615555 196,203.075567 L196,225.218753 Z" id="Shape" fill="#00695C" fill-rule="nonzero"></path>
                <path d="M196.002237,225 L203,257 L196.002237,257 L188.747393,233.259882 C188.747393,233.259882 179.677552,237.131221 177.348392,244.8739 C175.019232,252.616579 177.348392,257 177.348392,257 L169.831324,257 L169.7542,256.651784 C167.237528,245.047998 171.116626,232.987573 179.934633,225" id="Shape" fill="#263238" fill-rule="nonzero"></path>
                <path d="M180.728127,225.201442 C176.840836,212.825158 180.728127,203.059577 180.728127,203.059577 C180.727422,198.802005 183.909446,195.275297 188,195 C187.835748,195 187.666519,195 187.502267,195 C183.208484,195 179.727685,198.615339 179.727685,203.075086 C179.727685,203.075086 175.840394,212.845837 179.727685,225.216951 C179.926778,225.847656 181.977436,226.023426 184.525827,225.997578 C182.455259,225.95105 180.887402,225.744262 180.728127,225.201442 Z" id="Shape" fill="#FFFFFF" fill-rule="nonzero" opacity="0.2"></path>
                <path d="M179.221756,203 C179.221756,203 158.030271,188.449063 160.148894,170 L164.917109,170 C164.917109,170 176.30405,194.187969 183.600945,196.508281 C190.897839,198.828594 179.221756,203 179.221756,203 Z" id="Shape" fill="#00695C" fill-rule="nonzero"></path>
                <g id="Group" opacity="0.2" transform="translate(168.000000, 225.000000)" fill="#FFFFFF" fill-rule="nonzero">
                    <path d="M19.7578182,9.24515625 L26.8087273,32.71125 L27.8269091,32.71125 L20.6436364,8.806875 C20.6436364,8.806875 20.3127273,8.95125 19.7578182,9.24515625 Z" id="Shape"></path>
                    <path d="M11.928,0.48984375 L10.9098182,0.48984375 C2.17880347,8.53268208 -1.66202546,20.676553 0.829818182,32.360625 L0.906181818,32.71125 L1.92436364,32.71125 L1.848,32.360625 C-0.643843642,20.676553 3.19698529,8.53268208 11.928,0.48984375 Z" id="Shape"></path>
                </g>
                <path d="M160.90517,170 L160.141312,170 C158.117848,188.449062 178.494134,203 178.494134,203 L179,202.804062 C176.637605,201.025156 158.998055,187.221875 160.90517,170 Z" id="Shape" fill="#FFFFFF" fill-rule="nonzero" opacity="0.2"></path>
                <path d="M181.469734,181.055849 C181.919948,182.095242 182.236123,183.187651 182.410653,184.30679 C182.927641,186.570562 184.096034,188.829165 186.107118,189.992061 C187.220983,190.596091 188.459661,190.933978 189.726035,190.979231 C191.649231,191.098105 193.732693,190.725978 195.092372,189.361513 C195.939235,188.437154 196.507377,187.29223 196.731224,186.058887 C197.5578,182.35682 196.450247,178.488286 193.789562,175.784052 C191.045927,173.13518 187.026234,172.293291 183.449799,173.618481 C182.823682,173.924698 182.166892,174.163779 181.490414,174.331724 C180.439307,174.500042 179.372166,174.145072 178.63147,173.380733 C178.461392,173.931087 178.564465,174.529549 178.908864,174.991344 C179.253264,175.453139 179.797568,175.722724 180.37372,175.716863 C179.166876,176.296082 177.778866,176.370485 176.516988,175.9236 C177.251548,177.470594 179.055106,178.189561 180.652893,177.572329 C179.189478,178.223567 177.601661,178.548096 176,178.523319 C176.336042,178.523319 176.992617,179.143531 177.401038,179.267573 C177.913859,179.349006 178.432835,179.385324 178.952002,179.37611 C180.032374,179.442527 180.993803,180.083957 181.469734,181.055849 Z" id="Shape" fill="#263238" fill-rule="nonzero"></path>
                <g id="Group" opacity="0.2" transform="translate(175.000000, 173.000000)" fill="#FFFFFF" fill-rule="nonzero">
                    <path d="M4.93333333,2.91333333 C4.31598836,3.20918559 3.6450117,3.37966882 2.96,3.41472222 C3.82657394,3.45870937 4.69040828,3.28629021 5.472,2.91333333 C4.94477583,2.916456 4.44038637,2.70066314 4.08151305,2.3184415 C3.72263972,1.93621986 3.54217033,1.42259695 3.584,0.9025 C3.4232771,0.791572274 3.27330102,0.666127253 3.136,0.527777778 C2.96054506,1.08977488 3.06687686,1.70089962 3.422165,2.17246468 C3.77745314,2.64402974 4.3389657,2.9193181 4.93333333,2.91333333 Z" id="Shape"></path>
                    <path d="M6.61866667,1.51472222 C7.31653259,1.34322332 7.9940873,1.09908463 8.64,0.786388889 C9.6600909,0.387861263 10.7435559,0.17163851 11.84,0.147777778 C10.5645862,0.106728921 9.29414956,0.324045426 8.10666667,0.786388889 C7.46075396,1.09908463 6.78319926,1.34322332 6.08533333,1.51472222 C5.98933333,1.51472222 5.89333333,1.51472222 5.79733333,1.54638889 C6.07134837,1.57081711 6.34740287,1.56017377 6.61866667,1.51472222 Z" id="Shape"></path>
                    <path d="M2.35733333,6.555 C1.936,6.43361111 1.25866667,5.80555556 0.912,5.795 C2.56429983,5.8203005 4.20231722,5.48890532 5.712,4.82388889 C5.37326579,4.9621284 5.0116467,5.03727737 4.64533333,5.04555556 C3.28477319,5.56359447 1.83627649,5.81802443 0.378666667,5.795 C0.725333333,5.795 1.40266667,6.42833333 1.824,6.555 C2.19022979,6.64308352 2.56822155,6.67336411 2.944,6.64472222 C2.74538447,6.63962532 2.54823745,6.60947452 2.35733333,6.555 Z" id="Shape"></path>
                    <path d="M15.1093333,18.5144444 C13.8029214,18.468234 12.5250811,18.1231982 11.376,17.5063889 C9.30133333,16.3083333 8.11733333,14.0019444 7.56266667,11.7008333 C7.38261914,10.5580162 7.05644744,9.44249482 6.592,8.38111111 C6.09259485,7.38325013 5.08657054,6.73099659 3.96266667,6.67638889 C3.69637083,6.65670747 3.4289625,6.65670747 3.16266667,6.67638889 L3.424,6.67638889 C4.54790387,6.73099659 5.55392818,7.38325013 6.05333333,8.38111111 C6.51778077,9.44249482 6.84395247,10.5580162 7.024,11.7008333 C7.55733333,14.0125 8.76266667,16.3188889 10.8373333,17.5063889 C11.9864145,18.1231982 13.2642547,18.468234 14.5706667,18.5144444 C14.88,18.5144444 15.1893333,18.5144444 15.504,18.5144444 L15.1093333,18.5144444 Z" id="Shape"></path>
                    <path d="M4.30933333,5.02444444 C3.16298618,4.9424583 2.13593352,4.29334146 1.57866667,3.29861111 C1.36705816,3.25405559 1.15861487,3.19587631 0.954666667,3.12444444 C1.56556194,4.38581473 2.90086424,5.14209684 4.30933333,5.02444444 Z" id="Shape"></path>
                </g>
                <path d="M161.284993,169.671433 C161.284993,169.671433 159.632859,168.416905 161.284993,166.156763 C161.730139,165.500668 162.495829,165.076856 163.344654,165.016735 C162.303425,164.90609 161.285545,165.350629 160.734282,166.156763 C159.082148,168.416905 160.734282,169.671433 160.734282,169.671433 C161.80632,169.888405 162.901422,169.998584 164,170 C163.086457,169.958994 162.178299,169.84909 161.284993,169.671433 Z" id="Shape" fill="#FFFFFF" fill-rule="nonzero" opacity="0.2"></path>
                <g id="Group" opacity="0.2" transform="translate(11.000000, 170.000000)" fill="url(#linearGradient-5)" fill-rule="nonzero">
                    <path d="M0.485,0.425 L0.525,0.29 C0.525,0.29 0.015,0.19 0.485,0.425 Z" id="Shape"></path>
                </g>
                <g id="Group" opacity="0.2" transform="translate(0.000000, 166.000000)" fill="url(#linearGradient-6)" fill-rule="nonzero">
                    <path d="M60.582906,12.1522059 C60.5326783,11.988196 60.4699346,11.8281792 60.3952137,11.6735294 C60.3952137,11.6220588 60.3430769,11.5808824 60.3170085,11.5345588 C60.269748,11.4426511 60.2175365,11.3533076 60.1605983,11.2669118 L60.0563248,11.1330882 C60.0024347,11.0633591 59.9450111,10.996362 59.8842735,10.9323529 L59.764359,10.8139706 C59.7017949,10.7573529 59.6392308,10.7058824 59.5766667,10.6595588 L59.4463248,10.5669118 L59.2377778,10.4433824 L59.1074359,10.3764706 L58.8728205,10.2786765 L58.752906,10.2323529 C58.6416809,10.1946078 58.5287179,10.1637255 58.4140171,10.1397059 C57.655417,9.99810279 56.8748452,10.019167 56.1252137,10.2014706 C56.1252137,10.2014706 53.9406838,13.3823529 54.7800855,14.525 L54.5037607,14.4426471 C54.5037607,14.4426471 38.2735897,32.3235294 29.1183761,35.6433824 C28.8854986,35.4855392 28.6439316,35.3379902 28.3936752,35.2007353 L28.3936752,31.8551471 C28.4012984,31.7145614 28.4012984,31.5736739 28.3936752,31.4330882 C28.3779769,31.2999211 28.3553545,31.1676386 28.3258974,31.0367647 L28.3936752,31.0007353 L28.6647863,30.8514706 L29.055812,30.6147059 L29.3060684,30.4551471 C29.4937607,30.3281863 29.6675499,30.1943627 29.8274359,30.0536765 L30.0307692,29.8786765 C30.1558974,29.7757353 30.275812,29.6676471 30.3905128,29.5544118 L30.5990598,29.3536765 C30.7450427,29.2061275 30.8840741,29.0551471 31.0161538,28.9007353 L31.1621368,28.7257353 C31.287265,28.5713235 31.4071795,28.4134804 31.5218803,28.2522059 L31.6678632,28.0360294 C31.7721368,27.8781863 31.8711966,27.7169118 31.9650427,27.5522059 L32.0588889,27.3926471 C32.1735897,27.1816176 32.2830769,26.9602941 32.3769231,26.7338235 L32.4603419,26.5330882 C32.5333333,26.3512255 32.6011111,26.1676471 32.6636752,25.9823529 C32.6636752,25.9154412 32.7105983,25.8536765 32.7262393,25.7867647 C32.7992308,25.5448529 32.8670085,25.3029412 32.9191453,25.0507353 C32.9191453,24.9992647 32.9191453,24.9529412 32.9452137,24.9014706 C32.9869231,24.6921569 33.019943,24.4794118 33.0442735,24.2632353 C33.0442735,24.1911765 33.0442735,24.1191176 33.0442735,24.0470588 C33.0442735,23.7845588 33.0859829,23.5323529 33.0859829,23.2492647 C33.0862313,21.2465891 32.3905938,19.3044336 31.1152137,17.7470588 C31.8086325,16.6764706 32.2622222,16.0433824 32.2622222,16.0433824 C31.8451282,15.7602941 31.4332479,15.5029412 31.0265812,15.2507353 L30.6303419,15.0191176 C30.3592308,14.8595588 30.1089744,14.7 29.8170085,14.5558824 L29.3634188,14.3191176 C29.1183761,14.1904412 28.878547,14.0669118 28.6387179,13.9536765 L28.1747009,13.7426471 L27.4812821,13.4441176 L27.0276923,13.2639706 C26.7982906,13.1764706 26.5688889,13.0941176 26.3447009,13.0169118 L25.9171795,12.8727941 C25.6825641,12.8007353 25.4479487,12.7338235 25.218547,12.6720588 L24.8379487,12.5691176 C24.577265,12.5073529 24.3165812,12.4558824 24.0611111,12.4044118 L23.7847863,12.3477941 C23.4354701,12.2860294 23.0913675,12.2397059 22.7420513,12.2088235 C20.6086678,11.9831377 18.4525168,12.3095232 16.485641,13.1558824 C16.5899145,10.6955882 17.0070085,8.66764706 17.882906,7.41176471 L17.6691453,7.33970588 L17.5961538,7.41176471 C17.5961538,7.41176471 17.3406838,7.46838235 16.9392308,7.54044118 C16.8125422,7.74047017 16.6993343,7.94851835 16.6003419,8.16323529 C16.7755816,7.29269203 17.1132579,6.46190562 17.5961538,5.71323529 L17.3823932,5.64117647 C17.69,5.32720588 18.8057265,3.97352941 17.3094017,1.75514706 C15.5888889,-0.7875 12.4398291,1.18897059 12.4398291,1.18897059 C12.1901789,2.02858857 12.026004,2.89070123 11.9497436,3.7625 C11.7099145,3.66470588 11.5378632,3.59264706 11.4283761,3.53602941 C9.91976879,8.79154257 9.09803459,14.2159179 8.98316239,19.6772059 C3.30547009,27.6345588 0.959316239,39.3801471 0.500512821,41.9125 L0.464017094,42.1132353 C0.432735043,42.2985294 0.417094017,42.3963235 0.417094017,42.3963235 L15.1770085,42.7360294 C15.1770085,42.7875 15.1770085,42.8338235 15.1770085,42.8852941 L15.1770085,65.9595588 L4.43162393,88.3955882 C4.43162393,88.3955882 8.5191453,88.5242647 14.6712821,89.3014706 L12.9716239,101.299265 L12.4033333,104.665441 L22.6325641,104.665441 C23.7691453,102.421324 18.0862393,101.299265 18.0862393,101.299265 L17.9611111,101.299265 L20.1769231,90.1044118 C21.157094,90.2656863 22.1650712,90.4372549 23.2008547,90.6191176 C24.7194459,90.9090922 26.2587122,91.0811872 27.8045299,91.1338235 C29.084278,91.1779796 30.3655627,91.1229086 31.6365812,90.9691176 C32.3873504,97.0375 31.4019658,100.661029 31.2142735,101.263235 L31.1569231,101.263235 L30.5886325,104.629412 L40.8178632,104.629412 C41.8084615,102.673529 37.6166667,101.566912 36.5270085,101.319853 L36.5739316,100.990441 C37.1000711,97.2049267 37.2345819,93.3763762 36.9753846,89.5639706 C38.2953523,89.0358376 39.5260223,88.3120773 40.6249573,87.4176471 L40.7657265,87.2941176 L40.8074359,87.2529412 L33.1902564,66.15 C34.6135897,60.1794118 29.6605983,53.9102941 32.3039316,50.7757353 C34.947265,47.6411765 33.3466667,43.6419118 33.0338462,42.9573529 C40.1870085,39.8691176 54.6445299,32.1485294 58.7007692,18.7661765 C58.9986878,17.8252885 59.240667,16.8680201 59.4254701,15.8992647 C59.4254701,15.8992647 61.4692308,15.0808824 60.582906,12.1522059 Z" id="Shape"></path>
                </g>
                <path d="M12.2330239,174.018305 C12.2330239,174.018305 4.68438842,198.465634 17.3449781,212 L21,209.128442 C21,209.128442 13.517358,182.445363 17.7054039,176.181093 C10.3141374,173.653497 12.2330239,174.018305 12.2330239,174.018305 Z" id="Shape" fill="#FF5252" fill-rule="nonzero"></path>
                <path d="M18.2587254,175.665958 C18.2587254,175.665958 19.9265932,174.41164 18.2587254,172.151876 C16.5908576,169.892113 13.4941831,171.654131 13.4941831,171.654131 C13.4941831,171.654131 12.3822712,174.914362 13.4941831,175.665958 C14.6060949,176.417553 18.2587254,175.665958 18.2587254,175.665958 Z" id="Shape" fill="#F6B9AD" fill-rule="nonzero"></path>
                <rect id="Rectangle-path" fill="#F6B9AD" fill-rule="nonzero" transform="translate(24.500000, 201.500000) rotate(180.000000) translate(-24.500000, -201.500000) " x="21" y="196" width="7" height="11" rx="3.5"></rect>
                <path d="M20.2812472,211.124183 C20.2812472,211.124183 13.3507565,184.682353 17.1253987,178.183007 C17.4585954,178.115033 17.6727933,178.062745 17.6727933,178.062745 L17.7346726,178 L17.9107909,178.062745 C13.9838301,184.337255 21,211.118954 21,211.118954 L17.5728343,214 L17.2729573,213.644444 L20.2812472,211.124183 Z" id="Shape" fill="#FFFFFF" fill-rule="nonzero" opacity="0.2"></path>
                <circle id="Oval" fill="#F6B9AD" fill-rule="nonzero" cx="24" cy="192" r="8"></circle>
                <path d="M27.5004552,203.367726 L27.5004552,199.880817 C27.5001409,199.625649 27.470896,199.371239 27.4132164,199.121902 C30.8322874,197.470439 32.6514603,193.869856 31.853333,190.333836 C31.0552058,186.797816 27.8375943,184.202762 24,184 L24.4798132,184 C28.4119373,183.998837 31.8337578,186.529513 32.7596845,190.123545 C33.6856113,193.717578 31.8749156,197.440565 28.3782952,199.132158 C28.4359748,199.381494 28.4652197,199.635904 28.4655339,199.891073 L28.4655339,203.377982 C28.4755729,204.419684 28.0039061,205.414103 27.1730107,206.103018 C26.3421153,206.791934 25.2339646,207.10738 24.1363106,206.967446 C26.060138,206.732951 27.5001059,205.192149 27.5004552,203.367726 Z" id="Shape" fill="#FFFFFF" fill-rule="nonzero" opacity="0.2"></path>
                <path d="M16,232.218753 C16,232.218753 31.7011196,233.976559 32.2795544,232.218753 C34.1555594,226.531734 29.1528794,220.384583 31.6542194,217.380802 C34.2597819,214.278792 32.2795544,210.075567 32.2795544,210.075567 C32.2795544,205.615555 28.635252,202 24.1397772,202 C19.6443024,202 16,205.615555 16,210.075567 L16,232.218753 Z" id="Shape" fill="#FF5252" fill-rule="nonzero"></path>
                <path d="M31.7089231,217.379885 C34.2085739,214.27806 32.3088393,210.075086 32.3088393,210.075086 C32.3088393,205.615339 28.8126716,202 24.4999302,202 C24.3299539,202 24.164977,202 24,202.025849 C28.1078762,202.295797 31.3067178,205.818619 31.308979,210.075086 C31.308979,210.075086 33.2087136,214.27806 30.7090628,217.379885 C28.2894008,220.383487 33.1087276,226.525101 31.308979,232.216951 C31.1390027,232.759771 29.5842199,232.966559 27.5195083,232.997578 C30.0641529,233.023426 32.1138665,232.847656 32.3088393,232.216951 C34.1285851,226.519932 29.2892611,220.383487 31.7089231,217.379885 Z" id="Shape" fill="#FFFFFF" fill-rule="nonzero" opacity="0.2"></path>
                <path d="M28.9213132,232 C34.6204259,239.983357 37.1435786,252.048008 35.5115599,263.651784 L35.4649308,264 L30.599961,264 C30.599961,264 32.1076353,259.611458 30.599961,251.8739 C29.6758477,247.235023 27.047896,243.09812 23.2222005,240.259882 L18.5282041,264 L14,264 L18.5282041,232 L28.9213132,232 Z" id="Shape" fill="#F6B9AD" fill-rule="nonzero"></path>
                <path d="M56.6575226,185 C56.6575226,185 58.6389169,184.276523 57.7874086,181.787191 C56.9359003,179.29786 53.4752833,180.13557 53.4752833,180.13557 C53.4752833,180.13557 51.3738046,182.834329 52.1871041,183.805311 C53.0004037,184.776293 56.6575226,185 56.6575226,185 Z" id="Shape" fill="#F6B9AD" fill-rule="nonzero"></path>
                <path d="M29.0947619,212 C29.0947619,212 53.5379542,204.01879 57,185.399474 L52.4727093,184 C52.4727093,184 34.4836477,204.234498 26.8859453,204.37655 C19.288243,204.518602 29.0947619,212 29.0947619,212 Z" id="Shape" fill="#FF5252" fill-rule="nonzero"></path>
                <path d="M55.2518887,185 L56,185.224314 C52.5793256,203.266275 28.4282292,211 28.4282292,211 L28,210.668627 C30.8531417,209.689804 52.0633868,201.828627 55.2518887,185 Z" id="Shape" fill="#FFFFFF" fill-rule="nonzero" opacity="0.2"></path>
                <g id="Group" opacity="0.2" transform="translate(17.000000, 232.000000)" fill="#FFFFFF" fill-rule="nonzero">
                    <path d="M4.8372973,8.67796875 L0.184864865,32.5823437 L1.21189189,32.5823437 L5.73081081,9.37921875 C5.44505919,9.13034404 5.14683274,8.89628905 4.8372973,8.67796875 Z" id="Shape"></path>
                    <path d="M11.5181081,0.3609375 L10.4910811,0.3609375 C16.1397297,8.39953125 18.6405405,20.5476562 17.022973,32.2317188 L16.9767568,32.5823437 L18.0037838,32.5823437 L18.05,32.2317188 C19.6675676,20.5476563 17.177027,8.39953125 11.5181081,0.3609375 Z" id="Shape"></path>
                </g>
                <path d="M55.3559174,184.859632 C55.3559174,184.859632 57.1012195,184.123911 56.3511724,181.592449 C56.1663735,180.867561 55.6480203,180.27555 54.9568539,180 C55.8573455,180.165583 56.5810432,180.84129 56.8127399,181.732817 C57.562787,184.259439 55.8174849,185 55.8174849,185 C54.861841,184.926534 53.9170543,184.747994 53,184.46757 C53.773115,184.663958 54.5611514,184.795099 55.3559174,184.859632 Z" id="Shape" fill="#FFFFFF" fill-rule="nonzero" opacity="0.2"></path>
                <path d="M15.796875,232 L6,252.469716 C11.7134497,252.752552 17.3995464,253.436587 23.015625,254.516687 C33.84375,256.563659 39,251.44623 39,251.44623 L32.0132812,232 L15.796875,232 Z" id="Shape" fill="#263238" fill-rule="nonzero"></path>
                <path d="M18.9276018,264 C18.9276018,264 23.8552036,265 22.8696833,267 L14,267 L14.4927602,264 L18.9276018,264 Z" id="Shape" fill="#FF5252" fill-rule="nonzero"></path>
                <path d="M34.9276018,264 C34.9276018,264 39.8552036,265 38.8696833,267 L30,267 L30.4927602,264 L34.9276018,264 Z" id="Shape" fill="#FF5252" fill-rule="nonzero"></path>
                <path d="M32,185.536152 C32,185.536152 19.5714286,202.864711 25.2678571,210 L3,209.490336 C3,209.490336 9.21428571,170.246247 32,185.536152 Z" id="Shape" fill="#FCCC63" fill-rule="nonzero"></path>
                <path d="M32,185.4834 C28.7892857,183.322875 25.91,182.250274 23.3258929,182 C25.4984012,182.673142 27.5512992,183.676051 29.4107143,184.972638 C29.4107143,184.972638 16.9821429,202.338563 22.6785714,209.489238 L3.07767857,209.039767 C3.02589286,209.330901 3,209.489238 3,209.489238 L25.2678571,210 C19.5714286,202.849325 32,185.4834 32,185.4834 Z" id="Shape" fill="#FFFFFF" fill-rule="nonzero" opacity="0.2"></path>
                <path d="M32.8995633,232 L31.3275109,232 L38.4279476,251.450658 C38.4279476,251.450658 35.0427948,254.752152 28,254.987607 C36.1065502,255.243537 40,251.450658 40,251.450658 L32.8995633,232 Z" id="Shape" fill="#FFFFFF" fill-rule="nonzero" opacity="0.2"></path>
                <path d="M18.9742351,264 L18,264 C18,264 22.8711755,265 21.8969404,267 L22.8711755,267 C23.8454106,265 18.9742351,264 18.9742351,264 Z" id="Shape" fill="#FFFFFF" fill-rule="nonzero" opacity="0.2"></path>
                <path d="M34.9742351,264 L34,264 C34,264 38.8711755,265 37.8969404,267 L38.8711755,267 C39.8454106,265 34.9742351,264 34.9742351,264 Z" id="Shape" fill="#FFFFFF" fill-rule="nonzero" opacity="0.2"></path>
                <rect id="Rectangle-path" fill="#F5F5F5" fill-rule="nonzero" x="251" y="87" width="198" height="7"></rect>
                <rect id="Rectangle-path" fill="url(#linearGradient-1)" fill-rule="nonzero" x="247" y="84" width="206" height="256"></rect>
                <rect id="Rectangle-path" fill="#FFFFFF" fill-rule="nonzero" x="251" y="94" width="198" height="237"></rect>
                <circle id="Oval" fill="#FF5252" fill-rule="nonzero" cx="256" cy="91" r="2"></circle>
                <circle id="Oval" fill="#FFFF00" fill-rule="nonzero" cx="261" cy="91" r="2"></circle>
                <circle id="Oval" fill="#69F0AE" fill-rule="nonzero" cx="266" cy="91" r="2"></circle>
                <g id="Group" opacity="0.2" transform="translate(263.000000, 104.000000)" fill="#6C63FF" fill-rule="nonzero">
                    <rect id="Rectangle-path" x="0.320118694" y="0.34" width="173.48368" height="4.5"></rect>
                </g>
                <rect id="Rectangle-path" fill="url(#linearGradient-1)" fill-rule="nonzero" x="262" y="125" width="75" height="80"></rect>
                <rect id="Rectangle-path" fill="#FFFFFF" fill-rule="nonzero" x="264" y="127" width="72" height="74"></rect>
                <rect id="Rectangle-path" fill="url(#linearGradient-1)" fill-rule="nonzero" x="362" y="165" width="75" height="80"></rect>
                <rect id="Rectangle-path" fill="#FFFFFF" fill-rule="nonzero" x="364" y="167" width="72" height="74"></rect>
                <rect id="Rectangle-path" fill="url(#linearGradient-7)" fill-rule="nonzero" x="264" y="263" width="176" height="55"></rect>
                <rect id="Rectangle-path" fill="#6C63FF" fill-rule="nonzero" opacity="0.5" x="268" y="267" width="170" height="49"></rect>
                <polygon id="Shape" fill="#FFFFFF" fill-rule="nonzero" opacity="0.5" points="272.146341 271.642105 438 271.642105 438 267 268 267 268 316 272.146341 316"></polygon>
                <path d="M324.258529,144.130926 C314.155949,132.388227 297.092664,129.568382 283.749199,137.436434 C270.405734,145.304486 264.614484,161.600642 270.0004,176.12455 C275.386316,190.648459 290.402502,199.228689 305.649787,196.494567 C320.897072,193.760445 331.996263,180.49724 331.999977,165.00687 C332.009172,157.344548 329.261357,149.934663 324.258529,144.130926 Z M311.356116,184.112617 C302.695076,189.24457 291.664503,187.90356 284.485405,180.845887 C277.306307,173.788214 275.77742,162.782192 280.761004,154.034982 C285.744587,145.287772 295.991996,140.991004 305.723909,143.567964 C315.455822,146.144923 322.233892,154.949948 322.235431,165.017192 C322.259716,172.85927 318.125181,180.126567 311.371599,184.112617 L311.356116,184.112617 Z" id="Shape" fill="url(#linearGradient-8)" fill-rule="nonzero"></path>
                <path d="M315.97651,151 L323,144.808131 C317.241174,137.939984 308.839515,133.991896 300,134.000012 L300,143.485442 C306.140817,143.483717 311.976198,146.22839 315.97651,151 Z" id="Shape" fill="#FF5252" fill-rule="nonzero"></path>
                <path d="M299.512388,185.904286 C296.512599,185.905834 293.547506,185.273663 290.817948,184.050594 L287,192.339173 C296.024411,196.362254 306.479445,195.796457 315,190.823894 L310.272527,183 C307.019185,184.907159 303.300361,185.910913 299.512388,185.904286 Z" id="Shape" fill="#69F0AE" fill-rule="nonzero"></path>
                <path d="M329.999975,164.840206 C330.00937,157.555497 327.341499,150.511578 322.485534,145 L315.312658,151.056701 C319.48218,155.785156 321.299098,162.084046 320.273361,168.254463 C319.247623,174.424879 315.484879,179.831276 310,183.015464 L314.834466,191 C324.241774,185.516453 330.005425,175.574424 329.999975,164.840206 Z" id="Shape" fill="#FF9800" fill-rule="nonzero"></path>
                <path d="M278.459096,164.353025 C278.459096,152.703804 288.103287,143.260245 300,143.260245 L300,134 C285.402552,134.000447 272.783492,143.973421 269.701742,157.945026 C266.619992,171.916632 273.910756,186.100344 287.206804,192 L291.110437,183.557743 C283.410172,180.141622 278.462367,172.630861 278.459096,164.353025 Z" id="Shape" fill="#6C63FF" fill-rule="nonzero"></path>
                <rect id="Rectangle-path" fill="url(#linearGradient-1)" fill-rule="nonzero" x="374" y="178" width="55" height="9"></rect>
                <rect id="Rectangle-path" fill="#6C63FF" fill-rule="nonzero" x="374" y="179" width="54" height="8"></rect>
                <rect id="Rectangle-path" fill="#FF5252" fill-rule="nonzero" x="374" y="193" width="39" height="8"></rect>
                <rect id="Rectangle-path" fill="#69F0AE" fill-rule="nonzero" x="374" y="207" width="27" height="8"></rect>
                <rect id="Rectangle-path" fill="#FF9800" fill-rule="nonzero" x="374" y="221" width="49" height="8"></rect>
                <rect id="Rectangle-path" fill="#F5F5F5" fill-rule="nonzero" x="264" y="217" width="77" height="5"></rect>
                <rect id="Rectangle-path" fill="#F5F5F5" fill-rule="nonzero" x="264" y="225" width="43" height="5"></rect>
                <rect id="Rectangle-path" fill="#F5F5F5" fill-rule="nonzero" x="315" y="225" width="15" height="5"></rect>
                <rect id="Rectangle-path" fill="#F5F5F5" fill-rule="nonzero" x="315" y="242" width="15" height="5"></rect>
                <rect id="Rectangle-path" fill="#F5F5F5" fill-rule="nonzero" x="264" y="240" width="43" height="5"></rect>
                <rect id="Rectangle-path" fill="#F5F5F5" fill-rule="nonzero" x="264" y="232" width="77" height="5"></rect>
                <rect id="Rectangle-path" fill="#F5F5F5" fill-rule="nonzero" x="361" y="125" width="77" height="5"></rect>
                <rect id="Rectangle-path" fill="#F5F5F5" fill-rule="nonzero" x="361" y="133" width="43" height="5"></rect>
                <rect id="Rectangle-path" fill="#F5F5F5" fill-rule="nonzero" x="412" y="133" width="15" height="5"></rect>
                <rect id="Rectangle-path" fill="#F5F5F5" fill-rule="nonzero" x="412" y="150" width="15" height="5"></rect>
                <rect id="Rectangle-path" fill="#F5F5F5" fill-rule="nonzero" x="361" y="149" width="43" height="5"></rect>
                <rect id="Rectangle-path" fill="#F5F5F5" fill-rule="nonzero" x="361" y="141" width="77" height="5"></rect>
                <circle id="Oval" fill="url(#linearGradient-1)" fill-rule="nonzero" cx="385.5" cy="355.5" r="5.5"></circle>
                <circle id="Oval" fill="#FF5252" fill-rule="nonzero" cx="385" cy="356" r="4"></circle>
                <rect id="Rectangle-path" fill="url(#linearGradient-1)" fill-rule="nonzero" x="217" y="293" width="178" height="63"></rect>
                <rect id="Rectangle-path" fill="#FFFFFF" fill-rule="nonzero" x="223" y="295" width="170" height="49"></rect>
                <path d="M228,335 L385,335" id="Shape" stroke="#6C63FF" stroke-width="3" fill="url(#linearGradient-9)" fill-rule="nonzero"></path>
                <rect id="Rectangle-path" fill="url(#linearGradient-1)" fill-rule="nonzero" x="230" y="305" width="23" height="28"></rect>
                <rect id="Rectangle-path" fill="#6C63FF" fill-rule="nonzero" x="231" y="307" width="21" height="26"></rect>
                <rect id="Rectangle-path" fill="#69F0AE" fill-rule="nonzero" x="361" y="325" width="21" height="8"></rect>
                <rect id="Rectangle-path" fill="#FF9800" fill-rule="nonzero" x="322" y="315" width="21" height="19"></rect>
                <rect id="Rectangle-path" fill="#FF5252" fill-rule="nonzero" x="276" y="318" width="21" height="16"></rect>
                <rect id="Rectangle-path" fill="#FF5252" fill-rule="nonzero" x="223" y="345" width="170" height="7"></rect>
                <circle id="Oval" fill="url(#linearGradient-1)" fill-rule="nonzero" cx="229.5" cy="355.5" r="5.5"></circle>
                <circle id="Oval" fill="#FF5252" fill-rule="nonzero" cx="230" cy="356" r="4"></circle>
                <rect id="Rectangle-path" fill="#FF5252" fill-rule="nonzero" x="218" y="298" width="4" height="54"></rect>
                <rect id="Rectangle-path" fill="#000000" fill-rule="nonzero" opacity="0.2" x="218" y="298" width="4" height="54"></rect>
                <path d="M223,303.23322 C223,303.176142 223,303.124254 223,303.067176 C223,303.010099 223,302.895944 223,302.812922 C223,302.7299 223,302.703956 222.969034,302.652067 C222.938069,302.600179 222.932908,302.496401 222.907103,302.423757 C222.881298,302.351113 222.876137,302.325169 222.855493,302.27328 C222.83485,302.221392 222.793562,302.127992 222.762596,302.055348 L222.700665,301.925626 C222.659377,301.852982 222.612929,301.780338 222.56648,301.712883 L222.499388,301.614294 C222.4317,301.520742 222.359354,301.430687 222.282628,301.344474 C221.87103,300.903411 221.383134,300.541225 220.842722,300.275568 C221.265505,299.818893 221.58117,299.2728 221.766533,298.677398 C221.819997,298.518187 221.861403,298.355137 221.890395,298.189645 C221.890395,298.137756 221.890395,298.085867 221.890395,298.039168 C221.904314,297.939382 221.912928,297.838921 221.9162,297.738213 C221.9162,297.681136 221.9162,297.629247 221.9162,297.57217 C221.9162,297.515092 221.9162,297.400937 221.9162,297.317916 C221.9162,297.234894 221.9162,297.208949 221.885234,297.157061 C221.854269,297.105172 221.849108,297.001395 221.823303,296.928751 C221.797498,296.856107 221.792337,296.830162 221.771693,296.778274 C221.75105,296.726385 221.709762,296.632986 221.678796,296.560341 L221.616865,296.43062 C221.575577,296.357976 221.529129,296.285332 221.48268,296.217876 L221.415588,296.119288 C221.3479,296.025735 221.275554,295.93568 221.198828,295.849467 C220.684052,295.30701 220.059194,294.882286 219.36669,294.60414 C219.36669,294.60414 216.089486,295.823523 215.872726,297.16225 C213.467722,297.681136 199.450577,300.612844 189.825402,300.379345 L189.753149,300.187357 C189.754443,296.997014 188.000677,294.067583 185.196029,292.575294 L185.196029,289.316688 C185.203394,289.178417 185.203394,289.03985 185.196029,288.901579 C185.182191,288.769138 185.16152,288.63751 185.134097,288.507225 L185.196029,288.470903 L185.459237,288.325615 L185.841148,288.092116 L186.083712,287.931262 C186.262625,287.806729 186.434657,287.675278 186.599808,287.536908 L186.795924,287.365675 C186.914626,287.261898 187.028167,287.158121 187.141707,287.049155 L187.342985,286.851978 C187.484051,286.70669 187.618235,286.557942 187.745539,286.405736 L187.884885,286.229314 C188.005307,286.077108 188.120568,285.921442 188.230668,285.762317 L188.370014,285.549573 C188.469792,285.393907 188.56613,285.234782 188.659027,285.072198 L188.746763,284.916532 C188.860304,284.708977 188.963523,284.491045 189.056421,284.273113 L189.133835,284.075936 C189.206088,283.899515 189.27146,283.726552 189.329951,283.55705 L189.391882,283.365062 C189.464136,283.126374 189.526067,282.887686 189.577677,282.64381 C189.577677,282.59711 189.577677,282.545221 189.603481,282.498521 C189.641328,282.290967 189.672294,282.081683 189.696379,281.870669 C189.696379,281.798025 189.696379,281.73057 189.696379,281.657926 C189.696379,281.398482 189.737666,281.139039 189.737666,280.874407 C189.737537,279.399946 189.358898,277.950476 188.638383,276.666239 C189.190605,276.531328 189.526067,276.422362 189.48478,276.370474 C189.273181,276.085086 189.061582,275.815265 188.839661,275.555822 L188.628062,275.311946 C188.473233,275.135524 188.323565,274.969481 188.168737,274.793059 L187.921011,274.538805 C187.766183,274.383139 187.611354,274.237851 187.456526,274.097751 L187.213961,273.879819 C187.017845,273.713776 186.821728,273.552921 186.625612,273.397255 L186.496589,273.293478 C186.259185,273.117056 186.021781,272.951013 185.779216,272.774591 L185.510847,272.608548 C185.356018,272.509959 185.196029,272.41656 185.036039,272.333538 L184.71606,272.167494 L184.272218,271.954751 L183.947078,271.809463 C183.79225,271.742007 183.63226,271.68493 183.472271,271.627852 L183.178097,271.518886 C182.940693,271.441053 182.703289,271.368409 182.465885,271.306143 L182.099458,271.223121 L181.702064,271.140099 L181.304671,271.077833 L180.938244,271.036322 L180.530528,271 L180.179584,271 L179.771868,271 C179.548227,271 179.324586,271.010378 179.100945,271.031133 C173.821291,271.466998 169.197078,276.100653 169.197078,283.484406 L169.197078,289.576131 L177.454601,289.576131 L177.454601,292.346984 C174.424131,293.752692 172.482271,296.800727 172.479444,300.156224 L172.479444,323.770742 L165.470871,356.144061 L165.377974,356.144061 L164,362.323997 L173.888383,363.932545 L174.316742,364 C175.348933,363.553758 173.620014,361.462646 172.84071,359.848909 C172.761107,359.680486 172.692158,359.50718 172.634272,359.330023 C172.525416,359.004538 172.459482,358.666106 172.438156,358.323383 L180.035077,333.266362 L179.99895,333.266362 L180.179584,332.68002 C180.179584,332.68002 189.851207,336.831111 192.338786,345.179992 C194.356718,351.925515 193.102607,356.315293 192.555546,357.737042 L192.519419,357.737042 L192.519419,357.820064 C192.411039,358.089885 192.333625,358.240362 192.333625,358.240362 L192.519419,358.240362 L192.519419,362.822128 L202.975507,362.822128 C203.945766,362.329186 201.886547,360.891871 200.859517,359.70881 C200.523279,359.33383 200.288674,358.878165 200.178272,358.38565 L200.353744,358.38565 L200.436319,358.012052 C203.110912,345.522262 199.016069,332.541705 189.670574,323.884897 C189.689663,323.857561 189.705268,323.827926 189.717022,323.796686 C190.703892,320.760305 191.312368,317.612581 191.528516,314.425598 C199.522831,315.19355 210.159552,314.643531 218.112579,308.448028 C218.871714,307.87129 219.59717,307.251058 220.285339,306.590415 C220.971746,306.538526 222.174248,306.15455 222.84001,304.203537 C222.893475,304.044327 222.934881,303.881277 222.963873,303.715784 C222.963873,303.663896 222.963873,303.612007 222.963873,303.565307 C222.982402,303.455422 222.994465,303.344534 223,303.23322 Z" id="Shape" fill="url(#linearGradient-10)" fill-rule="nonzero"></path>
                <path d="M181.07001,312.749643 C181.07001,312.749643 205.478854,320.329955 219,307.665597 L216.132351,304 C216.132351,304 189.901952,309.709383 183.651415,305.525214 C177.400877,301.341044 181.07001,312.749643 181.07001,312.749643 Z" id="Shape" fill="#6C63FF" fill-rule="nonzero"></path>
                <path d="M217.522274,307 L218,307.614189 C204.499043,320.368849 180.15578,312.732431 180.15578,312.732431 C180.15578,312.732431 180.093468,312.537938 180,312.220607 C182.902706,313.075354 204.935228,318.915268 217.522274,307 Z" id="Shape" fill="#FFFFFF" fill-rule="nonzero" opacity="0.2"></path>
                <path d="M217.803468,306.97168 C217.803468,306.97168 219.873703,307.415728 220.827952,304.787168 C221.782201,302.158608 218.455808,301 218.455808,301 C218.455808,301 214.989243,302.209648 215.000025,303.495856 C215.010808,304.782064 217.803468,306.97168 217.803468,306.97168 Z" id="Shape" fill="#985454" fill-rule="nonzero"></path>
                <path d="M217.745794,306.548841 C217.745794,306.548841 219.655723,307.006884 220.536081,304.29548 C220.812641,303.536472 220.729445,302.683215 220.312261,302 C220.972009,302.72005 221.177639,303.779626 220.839481,304.716669 C219.959123,307.433338 218.049194,306.97003 218.049194,306.97003 C217.289967,306.295046 216.602811,305.534131 216,304.700874 C216.532418,305.367135 217.116371,305.985263 217.745794,306.548841 Z" id="Shape" fill="#FFFFFF" fill-rule="nonzero" opacity="0.2"></path>
                <path d="M192,355 L199.115186,355 C199.061893,355.717219 199.306922,356.423371 199.786237,356.933911 C200.744149,358.104009 202.670218,359.517876 201.763531,360 L192,360 L192,355 Z" id="4635430b-7803-4f1f-9770-b56b2b482545" fill="#6C63FF" fill-rule="nonzero"></path>
                <path d="M199.597697,356.933911 C199.1753,356.423371 198.959369,355.717219 199.006333,355 L199.457756,355 C199.410792,355.717219 199.626723,356.423371 200.04912,356.933911 C200.89328,358.104009 202.59063,359.517876 201.791611,360 L201.340189,360 C202.139207,359.517876 200.441857,358.109426 199.597697,356.933911 Z" id="Shape" fill="#FFFFFF" fill-rule="nonzero" opacity="0.2"></path>
                <path d="M166.308032,354 L173.002682,355.045582 C172.81758,355.805468 172.925424,356.603469 173.306516,357.293829 C174.037778,358.76648 175.680542,360.602384 174.691793,361 L165,359.527349 L166.308032,354 Z" id="a892faa3-7b18-4010-9d55-72c2aac7ddb8" fill="#6C63FF" fill-rule="nonzero"></path>
                <path d="M173.739939,357.308555 C173.345342,356.618195 173.233676,355.820194 173.425338,355.060309 L167,354.078541 L167,354 L173.931899,355.045582 C173.740238,355.805468 173.851904,356.603469 174.246501,357.293829 C175.003678,358.76648 176.704659,360.602384 175.680871,361 L175.259625,360.936185 C176.048795,360.455119 174.465122,358.692847 173.739939,357.308555 Z" id="Shape" fill="#FFFFFF" fill-rule="nonzero" opacity="0.2"></path>
                <rect id="Rectangle-path" fill="#985454" fill-rule="nonzero" transform="translate(181.500000, 292.500000) rotate(180.000000) translate(-181.500000, -292.500000) " x="178" y="287" width="7" height="11" rx="3.5"></rect>
                <circle id="Oval" fill="#985454" fill-rule="nonzero" cx="182" cy="283" r="8"></circle>
                <path d="M184.500455,294.367726 L184.500455,290.880817 C184.500141,290.625649 184.470896,290.371239 184.413216,290.121902 C187.832287,288.470439 189.65146,284.869856 188.853333,281.333836 C188.055206,277.797816 184.837594,275.202762 181,275 L181.479813,275 C185.411937,274.998837 188.833758,277.529513 189.759685,281.123545 C190.685611,284.717578 188.874916,288.440565 185.378295,290.132158 C185.435975,290.381494 185.46522,290.635904 185.465534,290.891073 L185.465534,294.377982 C185.475573,295.419684 185.003906,296.414103 184.173011,297.103018 C183.342115,297.791934 182.233965,298.10738 181.136311,297.967446 C183.060138,297.732951 184.500106,296.192149 184.500455,294.367726 Z" id="Shape" fill="#FFFFFF" fill-rule="nonzero" opacity="0.2"></path>
                <path d="M173,323.218753 C173,323.218753 188.624392,324.976559 189.2,323.218753 C193.25,310.841731 189.2,301.075567 189.2,301.075567 C189.2,296.615555 185.573506,293 181.1,293 C176.626494,293 173,296.615555 173,301.075567 L173,323.218753 Z" id="Shape" fill="#6C63FF" fill-rule="nonzero"></path>
                <path d="M172.995647,323 L166,355 L172.995647,355 L180.248298,331.259882 C180.248298,331.259882 189.315397,335.131221 191.643852,342.8739 C193.972308,350.616579 191.643852,355 191.643852,355 L199.168927,355 L199.246029,354.651784 C201.761939,343.047998 197.884014,330.987573 189.068673,323" id="Shape" fill="#263238" fill-rule="nonzero"></path>
                <path d="M188.271873,323.201442 C192.159164,310.825158 188.271873,301.059577 188.271873,301.059577 C188.272578,296.802005 185.090554,293.275297 181,293 C181.164252,293 181.333481,293 181.497733,293 C185.791516,293 189.272315,296.615339 189.272315,301.075086 C189.272315,301.075086 193.159606,310.845837 189.272315,323.216951 C189.073222,323.847656 187.022564,324.023426 184.474173,323.997578 C186.544741,323.95105 188.102644,323.744262 188.271873,323.201442 Z" id="Shape" fill="#FFFFFF" fill-rule="nonzero" opacity="0.2"></path>
                <g id="Group" opacity="0.2" transform="translate(172.000000, 323.000000)" fill="#FFFFFF" fill-rule="nonzero">
                    <path d="M8.50839286,9.24515625 L1.33607143,32.71125 L0.300357143,32.71125 L7.60732143,8.806875 C7.60732143,8.806875 7.94392857,8.95125 8.50839286,9.24515625 Z" id="Shape"></path>
                    <path d="M16.4730357,0.48984375 L17.50875,0.48984375 C26.3901074,8.53268208 30.2970731,20.676553 27.7623214,32.360625 L27.6846429,32.71125 L26.6489286,32.71125 L26.7266071,32.360625 C29.2613588,20.676553 25.3543932,8.53268208 16.4730357,0.48984375 Z" id="Shape"></path>
                </g>
                <path d="M180.07001,306.749643 C180.07001,306.749643 204.478854,314.329955 218,301.665597 L215.132351,298 C215.132351,298 188.901952,303.709383 182.651415,299.525214 C176.400877,295.341044 180.07001,306.749643 180.07001,306.749643 Z" id="Shape" fill="#6C63FF" fill-rule="nonzero"></path>
                <path d="M216.522274,302 L217,302.614189 C203.499043,315.368849 179.15578,307.732431 179.15578,307.732431 C179.15578,307.732431 179.093468,307.537938 179,307.220607 C181.902706,308.075354 203.935228,313.915268 216.522274,302 Z" id="Shape" fill="#FFFFFF" fill-rule="nonzero" opacity="0.2"></path>
                <path d="M216.803468,301.97168 C216.803468,301.97168 218.873703,302.415728 219.827952,299.787168 C220.782201,297.158608 217.455808,296 217.455808,296 C217.455808,296 213.989243,297.209648 214.000025,298.495856 C214.010808,299.782064 216.803468,301.97168 216.803468,301.97168 Z" id="Shape" fill="#985454" fill-rule="nonzero"></path>
                <path d="M216.745794,301.548841 C216.745794,301.548841 218.655723,302.006884 219.536081,299.29548 C219.812641,298.536472 219.729445,297.683215 219.312261,297 C219.972009,297.72005 220.177639,298.779626 219.839481,299.716669 C218.959123,302.433338 217.049194,301.97003 217.049194,301.97003 C216.289967,301.295046 215.602811,300.534131 215,299.700874 C215.532418,300.367135 216.116371,300.985263 216.745794,301.548841 Z" id="Shape" fill="#FFFFFF" fill-rule="nonzero" opacity="0.2"></path>
                <path d="M181.809019,280.431028 L181.295584,291 L170,291 L170,285.388379 C170,274.119841 182.153021,269.841924 188.997118,278.89601 C189.166552,279.14262 181.809019,280.431028 181.809019,280.431028 Z" id="Shape" fill="#263238" fill-rule="nonzero"></path>
                <path d="M180,274.026596 C182.961108,274.258487 186.006668,275.801066 188.413557,278.901346 C188.58774,279.123154 181.023984,280.413678 181.023984,280.413678 L180.496157,291 L182.079637,291 L182.607464,280.413678 C182.607464,280.413678 190.17122,279.123154 189.997037,278.901346 C187.162608,275.241503 183.436152,273.779582 180,274.026596 Z" id="Shape" fill="#FFFFFF" fill-rule="nonzero" opacity="0.2"></path>
            </g>
        </g>
    </g>
</svg>