<?xml version="1.0" encoding="UTF-8"?>
<svg width="540px" height="412px" viewBox="0 0 540 412" version="1.1" xmlns="http://www.w3.org/2000/svg" xmlns:xlink="http://www.w3.org/1999/xlink">
    <!-- Generator: Sketch 52.2 (67145) - http://www.bohemiancoding.com/sketch -->
    <title>undraw_may_the_force_bgdm</title>
    <desc>Created with Sketch.</desc>
    <defs>
        <linearGradient x1="50.0012108%" y1="99.9926045%" x2="50.0012108%" y2="-0.000818025522%" id="linearGradient-1">
            <stop stop-color="#808080" stop-opacity="0.25" offset="0%"></stop>
            <stop stop-color="#808080" stop-opacity="0.12" offset="54%"></stop>
            <stop stop-color="#808080" stop-opacity="0.1" offset="100%"></stop>
        </linearGradient>
    </defs>
    <g id="Role-Management" stroke="none" stroke-width="1" fill="none" fill-rule="evenodd">
        <g id="Access-denied" transform="translate(-210.000000, -100.000000)" fill-rule="nonzero">
            <g id="undraw_may_the_force_bgdm" transform="translate(210.000000, 100.000000)">
                <path d="M202.882699,354.013772 C188.584919,357.440113 174.628337,362.849264 159.978529,364.363609 C141.402247,366.2865 122.295215,361.857859 104.119705,366.188448 C95.6547693,368.203943 86.6374199,373.362519 85.1913945,381.985568 C83.8807647,389.829654 89.4969757,397.276089 96.0555404,401.715625 C109.438045,410.774455 126.552054,411.433577 142.680382,411.793097 C160.552606,412.190749 178.803938,412.544822 195.977521,407.47885 C207.12329,404.21048 217.565001,398.681488 228.856998,395.968742 C244.562892,392.199222 260.95118,394.024062 277.057845,394.378135 C281.61797,394.476186 286.264748,394.443503 290.597408,392.934605 C293.408222,391.948647 295.980739,390.363488 298.813216,389.442897 C304.364437,387.6344 310.381419,388.522307 316.143857,389.31761 C340.231634,392.618283 364.542485,393.984422 388.845899,393.403072 C400.901526,393.114366 413.672043,392.101171 423.463856,385.030598 C426.274669,383.004209 428.793028,380.465776 430.314875,377.339036 C432.600353,372.638031 432.389136,366.989199 430.71023,362.043066 C426.54546,349.743103 414.159467,341.751939 401.491851,339.208058 C388.824236,336.664177 375.739601,338.630646 362.969085,340.591668 L303.118797,349.819365 C298.878206,350.473039 294.599703,351.13216 290.559498,352.592031 C285.928967,354.2589 281.715455,356.949857 277.133666,358.736566 C263.967794,363.916932 255.584097,360.299936 244.097131,355.277542 C230.828358,349.459844 216.828449,350.625562 202.882699,354.013772 Z" id="Shape" fill="#EC4C6F" opacity="0.1"></path>
                <path d="M33.4473217,139.265604 C44.9378346,171.439022 30.2795789,208.496728 13.0221498,236.436374 C7.24440363,245.787536 0.87101357,255.59948 0.0804316251,267.335866 C-0.883428554,281.690577 6.95199661,294.890623 16.2602868,303.515376 C33.2307239,319.23617 56.4066877,324.115037 76.599017,316.167904 C94.0513842,309.315806 108.725885,293.833535 126.324455,287.594006 C155.77634,277.147809 186.971837,294.467788 212.178406,316.048643 C230.015234,331.319497 249.124574,349.886297 270.65981,346.622877 C285.821655,344.329809 298.644245,331.151447 307.362306,315.63665 C311.569718,308.144878 315.230221,299.753227 321.365353,294.700889 C325.009611,291.697675 329.292832,290.098491 333.570639,288.96551 C372.661126,278.606049 414.145018,303.884001 452.699425,290.884531 C478.750725,282.10257 499.527868,256.569832 512.442511,227.18821 C525.357155,197.806589 531.394818,164.608608 536.409057,131.725044 C539.977506,108.355271 542.939481,83.14237 534.735839,61.642829 C526.071927,38.8747825 505.971652,25.1109564 485.779323,22.5305778 C465.586994,19.9501992 445.340515,27.095029 426.756424,37.1671791 C403.515481,49.7654981 380.729393,67.3998921 355.371207,67.4595227 C338.097533,67.4974695 321.62527,59.2847099 305.104274,53.0180761 C277.488055,42.5447748 248.788848,37.3406499 220.160034,32.5376763 C192.765828,27.9352783 165.09546,23.6635591 137.538806,26.3794618 C118.045005,28.3039038 100.81465,37.5412255 81.894833,41.8129447 C69.5595887,44.5993199 57.16478,42.5285119 45.0732082,47.2339082 C30.1658651,53.0126552 14.8361563,66.4132768 14.0130847,87.5008246 C13.2062579,107.542126 27.3500938,122.194991 33.4473217,139.265604 Z" id="Shape" fill="#EC4C6F" opacity="0.1"></path>
                <path d="M434.253199,104.911166 C438.87358,97.9897087 432.866543,98.4496961 432.866543,98.4496961 L320.08701,129.555669 L369.129126,52.304841 C370.055369,46.7687572 363.587919,48.1541311 363.587919,48.1541311 L310.981665,132.07207 L297.196356,135.860202 L296.150948,133.506149 L293.556385,134.485651 C293.231387,133.332977 292.733058,132.494176 291.996397,132.126186 C287.581848,129.923658 282.327723,134.880699 277.436511,140.557485 L264.284947,145.509114 L268.439498,151.970585 L276.277353,149.437948 C277.842758,153.702302 281.152315,157.874658 282.316889,159.297914 L281.374397,159.839075 L282.761053,163.627207 L281.840226,163.978962 L282.241057,165.212811 L281.840226,165.364336 C281.840226,165.364336 283.107716,169.239053 284.629788,174.125743 L278.671501,183.62313 L277.680259,182.897974 L267.524089,196.248432 L258.629992,194.343543 C258.846657,190.945048 259.117488,187.892896 259.323319,185.728249 C261.170388,186.691517 262.432462,187.514083 262.432462,187.514083 C262.581382,186.583872 262.641236,185.641599 262.61121,184.700042 C263.012041,172.366968 247.812993,163.50274 245.608427,162.279714 C244.45028,160.62748 243.433764,158.880545 242.569701,157.057504 C241.762624,154.243464 242.640117,151.938115 244.281354,150.076519 L244.693017,150.103577 C245.039681,149.784291 245.413428,149.486653 245.776342,149.194425 L246.242172,149.194425 C257.648351,149.193018 267.192168,140.545272 268.304082,129.203913 C269.326556,130.072499 270.017313,131.267302 270.259484,132.586174 C270.579943,131.878083 270.694447,131.094175 270.589898,130.324118 C270.676564,129.19309 270.454482,127.326082 269.067826,124.658155 C269.663002,122.731611 269.939275,120.72089 269.885737,118.705377 C270.015736,113.878215 268.385332,106.740293 259.637484,100.727987 C259.637484,100.727987 242.087621,90.1158065 232.386447,104.418709 C222.685273,118.721612 223.611516,114.570902 223.611516,114.570902 L204.929579,127.775247 C204.837496,127.834774 204.75083,127.894302 204.674998,127.95383 C202.676263,129.506964 205.054161,132.223596 208.054971,134.637177 C197.275889,132.47253 182.261007,132.753934 170.035686,145.487468 C170.035686,145.487468 158.487443,173.173299 146.478787,183.79089 C134.470131,194.408482 125.234787,267.773769 125.234787,267.773769 L124.693124,270.376757 L107.701174,355.939827 L108.383669,355.642188 C106.758681,360.929338 105.388275,365.172045 105.388275,365.172045 L98,384.112704 L98.3304141,384.188466 L98,385.03809 C98,385.03809 133.105142,392.884934 144.187555,390.574174 C149.663762,389.432323 150.74167,387.619431 150.432923,386.071709 C150.850003,384.107292 148.347522,382.283577 148.347522,382.283577 C148.347522,382.283577 135.412624,380.438216 128.950591,369.836859 C127.818283,367.899832 127.214973,365.699692 127.201021,363.456563 C127.33102,357.62284 130.196414,351.280425 132.617645,346.951132 C146.944617,342.621839 164.976559,338.687593 179.774776,340.305667 C186.705898,341.061436 193.682448,341.318248 200.650446,341.074116 C198.738377,347.51394 196.858809,353.228607 196.858809,353.228607 L189.470533,372.169266 L189.800947,372.245028 L189.470533,373.094652 C189.470533,373.094652 224.575675,380.941496 235.658088,378.630736 C241.134295,377.488885 242.212204,375.675993 241.903456,374.128271 C242.320536,372.163854 239.818056,370.340139 239.818056,370.340139 C239.818056,370.340139 226.883157,368.494778 220.421124,357.893421 C219.288817,355.956394 218.685507,353.756254 218.671555,351.513125 C218.769054,347.183832 220.366958,342.573134 222.176111,338.70924 C225.013328,338.180008 227.819666,337.497138 230.582711,336.663649 C230.582711,336.663649 258.294161,341.739745 263.840784,346.815842 C266.197016,348.980488 265.801602,337.897497 264.566612,324.433395 C262.371669,300.535335 256.208085,277.169384 246.328838,255.294581 C245.007182,252.361485 243.696359,249.395919 242.450535,246.495292 L247.493412,239.498072 C247.877992,239.89312 248.116324,240.114996 248.116324,240.114996 C249.852623,240.530576 251.633929,240.72872 253.419199,240.704863 C268.802412,241.159438 265.671603,221.195985 265.671603,221.195985 C265.671603,220.903757 264.274114,220.005429 262.134547,219.17204 L263.066207,217.878664 L263.412871,217.683845 C263.689119,217.873252 263.797451,217.970661 263.797451,217.970661 C263.797451,217.970661 279.039832,210.123817 277.653176,204.587733 C277.265362,203.104021 276.52172,201.736985 275.486526,200.604783 L284.586455,187.97407 L283.50313,187.173151 L286.926437,181.761534 C288.551424,187.281383 289.867664,192.341245 289.672665,193.493919 C289.212252,196.264667 304.915046,202.260738 304.915046,202.260738 C304.915046,202.260738 309.93084,202.888486 313.76581,203.10495 C314.670386,209.301251 317.053701,217.716315 318.35369,222.045608 C318.876198,223.786145 319.57116,225.470278 320.428257,227.073 C322.643657,231.207475 327.204454,240.152878 327.719034,244.606638 C327.690482,244.808943 327.632069,245.005902 327.545702,245.191093 C325.704049,248.881815 325.704049,251.652563 325.704049,251.652563 L325.855715,251.652563 C325.770662,252.113573 325.719967,252.580254 325.704049,253.04876 L329.631102,252.669947 C329.771934,256.398551 327.464452,263.260481 311.842908,270.122411 C302.24465,274.343472 295.8422,278.158661 291.628066,281.183755 C285.067685,285.849715 282.197467,294.16326 284.483539,301.877777 C285.032381,303.705518 285.846296,305.44306 286.899353,307.035048 C290.149328,311.905503 291.167653,315.320233 291.465568,317.317119 C290.550158,317.28465 289.770164,317.235945 289.212252,317.165594 C289.212252,317.165594 289.477667,317.706756 289.927246,318.621319 C289.661832,318.621319 289.418084,318.578026 289.212252,318.550968 C289.212252,318.550968 304.335467,348.769435 305.012545,359.679254 C305.002484,360.321848 304.815043,360.949192 304.470882,361.492146 C304.470882,361.492146 302.623814,369.798977 294.769708,369.798977 C290.490575,369.798977 289.780998,371.032826 290.468909,372.228793 C289.477667,373.4897 291.97473,375.475763 293.848882,375.80046 C296.622194,376.260448 321.099919,378.105809 326.180712,371.184351 L325.882798,370.166967 C325.985714,370.047912 326.08863,369.923445 326.180712,369.798977 L322.930738,358.721398 C322.930738,358.721398 320.173676,349.840935 319.897428,344.80272 C319.912507,344.354993 320.000317,343.912691 320.157426,343.493109 C320.50409,342.681367 320.617839,340.34896 320.596173,337.318454 C320.666589,328.573282 319.231183,311.651157 319.231183,311.651157 L317.162033,312.506192 C315.255381,310.05473 312.48207,305.784964 313.662894,302.9601 C314.668331,303.0922 315.682315,303.148279 316.696203,303.127861 C320.000344,303.127861 326.099463,302.586699 335.345641,299.572428 L346.021807,323.188723 C346.021807,323.188723 349.271781,330.110181 356.183394,332.41553 L365.391655,340.971296 C364.947709,341.073795 364.496971,341.144327 364.042916,341.182349 L365.261656,342.010326 C365.007075,342.053619 364.75791,342.086089 364.503329,342.107735 L388.591057,358.439994 C388.758972,360.745343 388.872721,368.40278 382.984851,368.40278 C376.056988,368.40278 376.517401,373.478877 376.517401,373.478877 L377.059064,373.478877 C377.005976,373.784293 376.987804,374.094747 377.004898,374.404263 L410.723383,374.404263 C410.723383,374.404263 414.59627,367.520687 411.952957,363.310449 C411.764078,362.821034 411.504981,362.361653 411.183796,361.946722 C407.933822,357.796012 400.561796,349.023781 400.561796,349.023781 C400.561796,349.023781 393.346853,339.315341 389.024387,330.867807 C388.067588,328.99948 387.291303,327.044252 386.706072,325.028673 L386.570656,325.196433 C386.446074,324.823032 386.332324,324.455042 386.240242,324.11411 C386.240242,324.11411 385.698579,324.812208 384.788587,325.872885 C382.302356,323.140019 378.494469,319.378945 374.691999,317.214299 C369.87662,314.465197 367.363306,293.798233 366.399147,283.429576 C369.317849,280.199705 371.182663,276.158291 371.745355,271.843305 C372.709515,264.559269 372.82868,254.785889 368.647046,247.307035 C368.349132,245.737666 366.214982,234.351625 366.07415,227.013473 C366.074463,225.988594 366.176067,224.96625 366.377481,223.961321 C366.730793,222.130897 366.877958,220.266719 366.816227,218.40359 C366.816227,218.333239 366.816227,218.2683 366.816227,218.197949 C366.816227,217.808313 366.816227,217.418676 366.816227,217.018217 C366.709038,209.664187 365.022567,202.418883 361.870849,195.77221 C360.370445,192.649707 358.675041,188.883222 357.12047,185.214146 C355.815064,182.124113 353.247584,180.40863 350.468855,179.488655 C350.610653,179.05793 350.645964,178.59931 350.571771,178.151986 C350.656235,177.564336 350.575597,176.964797 350.338856,176.420269 C349.894693,175.392061 349.071366,174.585731 348.437621,173.665756 C348.025505,173.068082 347.690633,172.420777 347.440962,171.73922 C347.413879,171.663458 347.386796,171.587695 347.36513,171.511932 C347.58527,171.111245 347.897075,170.768206 348.275123,170.510783 C349.745483,169.290963 350.848072,167.687318 351.460098,165.878439 C351.918915,164.320922 352.179164,162.711783 352.234675,161.089159 C352.348424,159.508967 352.429673,157.901716 352.408007,156.310701 C352.445923,153.015027 352.110093,149.730175 350.739687,146.759198 C350.136696,145.358177 349.208295,144.120836 348.031375,143.14965 C347.234617,142.571534 346.379562,142.078201 345.480145,141.67769 C341.937672,139.951384 338.373534,138.219667 334.57648,137.169813 C330.779426,136.119959 326.695292,135.795262 322.914488,136.904644 C321.793733,137.184489 320.752259,137.717704 319.870345,138.463189 C319.149934,139.123407 318.646188,139.989265 317.92036,140.627836 C316.902035,141.553223 315.531629,142.002387 314.464554,142.868245 C312.46582,144.49173 311.859158,147.305771 311.929574,149.903347 C311.929574,149.903347 311.929574,149.941228 311.929574,149.962875 C311.929574,150.255102 311.929574,150.541918 311.929574,150.828734 C311.962074,151.938115 312.352071,153.3289 313.457062,153.464191 C314.069066,153.499187 314.660929,153.239732 315.04955,152.766092 C312.561527,159.845619 315.437427,167.694308 321.912412,171.495697 C323.180732,174.448751 323.977631,177.582269 324.274061,180.782032 C322.714073,180.94438 321.4195,181.047201 320.634089,181.047201 C320.371962,181.052267 320.11445,181.117048 319.881178,181.236607 C314.464554,180.695446 310.775833,178.844673 306.339618,177.356478 C302.547981,176.09016 299.563421,170.083266 297.673019,164.90976 L316.089541,135.908906 L434.253199,104.911166 Z M237.851821,235.244541 C236.768496,232.392619 235.86392,229.832925 235.235592,227.668278 C234.354872,224.710172 233.268918,221.81697 231.985617,219.009692 C231.25542,217.296124 230.786192,215.482968 230.593545,213.630545 C232.359364,211.465898 234.119767,209.301251 235.83142,207.201544 C237.125993,207.418009 238.480149,207.704824 239.888472,208.067403 C239.506286,209.105336 239.014191,210.0995 238.420567,211.032969 C235.647255,214.734514 241.204711,229.04824 241.204711,229.04824 L241.291377,228.956243 C241.377852,229.414923 241.489971,229.868405 241.627208,230.314559 L237.851821,235.244541 Z M316.934535,312.603601 L316.847869,312.641483 C316.501205,312.19773 316.116625,311.689038 315.732044,311.137053 C316.441622,312.013735 316.956201,312.56572 316.956201,312.56572 L316.934535,312.603601 Z M295.268038,157.160325 L295.268038,157.052093 C294.921861,157.627937 294.433123,158.105041 293.848882,158.437467 L292.494726,153.36137 L292.39181,153.447956 C292.80889,151.326602 293.475135,147.57094 293.838049,143.777397 L299.883002,141.823803 L299.22759,140.346432 L307.130445,138.273783 L295.268038,157.160325 Z" id="Shape" fill="url(#linearGradient-1)"></path>
                <path d="M294,138.549768 L426.964698,102.006208 C426.964698,102.006208 432.785958,101.559571 428.305156,108.24299 L295.340457,143 L294,138.549768 Z" id="Shape" fill="#8499F0"></path>
                <polygon id="Shape" fill="#9F9BAD" points="264 147.701087 267.97271 154 298 144.103261 294.469887 136"></polygon>
                <path d="M282.082102,161 C282.082102,161 271.380826,149.080753 276.287148,143.339684 C281.19347,137.598616 286.519873,132.305318 291.006115,134.512191 C295.492357,136.719065 291.006115,156.586254 291.006115,156.586254 L282.082102,161 Z" id="Shape" fill="#F9D3C4"></path>
                <path d="M281.856342,166 L280,161.158937 C280,161.158937 290.218292,155.876812 291.143658,155 L293,161.6 L281.856342,166 Z" id="Shape" fill="#F6E2D7"></path>
                <path d="M259,183.509356 C259,183.509356 255.916221,210.989774 259,218.191688 C259,218.191688 244.027719,225.850522 241.390556,229 C241.390556,229 236.105596,215.036771 238.732125,211.430374 C241.358655,207.823977 249.296728,179 249.296728,179 L259,183.509356 Z" id="Shape" fill="#2A2A31"></path>
                <path d="M317,167.242734 C317,167.242734 323.609087,177.476723 321.406058,186.870449 C319.203029,196.264174 343,181.516456 343,181.516456 C343,181.516456 335.949243,170.813858 336.832583,161 L317,167.242734 Z" id="Shape" fill="#F9D3C4"></path>
                <path d="M330,292.477132 L342.578753,320.076999 C342.578753,320.076999 345.724798,326.753867 352.461672,328.979489 L365.479787,341 L383,325.861467 C383,325.861467 376.713335,317.846001 370.421247,314.287156 C364.129158,310.72831 361.888957,276 361.888957,276 L330,292.477132 Z" id="Shape" fill="#C8B5AC"></path>
                <path d="M330,292.477132 L342.578753,320.076999 C342.578753,320.076999 345.724798,326.753867 352.461672,328.979489 L365.479787,341 L383,325.861467 C383,325.861467 376.713335,317.846001 370.421247,314.287156 C364.129158,310.72831 361.888957,276 361.888957,276 L330,292.477132 Z" id="Shape" fill="#000000" opacity="0.1"></path>
                <path d="M326.64158,248.475123 C326.64158,248.475123 332.432235,258.320393 310.125298,268.122529 C300.86348,272.204057 294.685347,275.902773 290.622201,278.825082 C284.300578,283.346547 281.542047,291.390704 283.755217,298.849909 C284.28433,300.619272 285.069424,302.30139 286.085471,303.842636 C291.43483,311.881682 290.541477,315.898509 290.541477,315.898509 C290.541477,315.898509 310.152207,323.04253 316.373393,310.986657 C316.373393,310.986657 309.689385,303.842636 311.470711,299.825809 C311.470711,299.825809 319.048073,301.610466 335.984123,295.361469 C343.489518,292.546967 350.717646,289.039859 357.5753,284.885369 C362.994178,281.624771 366.633701,276.066948 367.46139,269.788569 C368.483904,262.051459 368.53772,251.413607 363.156071,244 L326.64158,248.475123 Z" id="Shape" fill="#C8B5AC"></path>
                <path d="M364.144738,244 L363.548877,244.070108 C367.725326,251.328942 367.61157,260.895934 366.669025,268.00916 C365.83591,274.288911 362.172532,279.847949 356.718134,283.10926 C349.81553,287.264658 342.540022,290.772533 334.985431,293.587651 C317.938368,299.838014 310.28967,298.036788 310.28967,298.036788 C308.496668,302.054493 315.224489,309.200076 315.224489,309.200076 C310.110911,319.015142 296.086493,316.108372 291.043335,314.684648 C291.07923,315.089346 291.064674,315.496911 291,315.898049 C291,315.898049 310.739275,323.043633 317.00124,310.985124 C317.00124,310.985124 310.273419,303.839541 312.066421,299.821835 C312.066421,299.821835 319.693452,301.606883 336.740515,295.35652 C344.304413,292.542933 351.589051,289.035027 358.500302,284.878129 C363.9547,281.616818 367.618079,276.05778 368.451194,269.778029 C369.491243,262.055406 369.539996,251.415228 364.144738,244 Z" id="Shape" fill="#000000" opacity="0.1"></path>
                <path d="M263.341364,343.033926 C257.96721,338.101502 231.107254,333.169079 231.107254,333.169079 C231.107254,333.169079 210.51354,339.893634 181.858594,336.753343 C153.203649,333.613051 112,352 112,352 L128.511736,268.890558 L129.01455,266.362081 C129.01455,266.362081 137.951649,195.072047 149.619077,184.757813 C161.286506,174.44358 172.451122,147.545358 172.451122,147.545358 C193.493583,125.574145 223.046023,141.714161 223.046023,141.714161 C223.046023,141.714161 223.208221,142.120233 223.49477,142.878235 C225.835825,149.115503 236.443562,178.915788 232.448089,197.308151 C229.836705,209.338717 231.031562,215.716757 232.485935,218.965335 C233.727748,221.686318 234.779162,224.490464 235.632573,227.357494 C237.519474,233.822163 241.904221,244.22844 246.391694,254.206987 C255.950301,275.431305 261.917681,298.099769 264.049628,321.284699 C265.239079,334.365638 265.622947,345.123844 263.341364,343.033926 Z" id="Shape" fill="#3E3F49"></path>
                <path d="M215.941536,141.453576 C215.941536,141.453576 201.684236,133.502823 205.719321,130.415307 C209.754405,127.327792 230.666906,126 230.666906,126 L238,143 L215.941536,141.453576 Z" id="Shape" fill="#151519"></path>
                <path d="M257,145.219302 C257,145.219302 240.303682,148.822382 243.011929,158.281827 C243.011929,158.281827 245.736524,164.143635 248.428424,165.945175 C251.120324,167.746714 231.279823,170 231.279823,170 L220,160.986858 L221.580265,148.593787 C221.580265,148.593787 222.255965,129 233.088954,129 C243.921944,129 257,145.219302 257,145.219302 Z" id="Shape" fill="#535461"></path>
                <circle id="Oval" fill="#F9D3C4" cx="327" cy="159" r="15"></circle>
                <path d="M336.55661,181.266071 C336.55661,181.266071 350.099524,179.028785 353.714239,187.529393 C355.229911,191.101487 356.909145,194.749237 358.343036,197.797135 C361.42283,204.243761 363.070136,211.270733 363.17356,218.40287 C363.234361,220.214526 363.089887,222.027224 362.742848,223.806944 C361.390737,229.627132 365,247.973965 365,247.973965 L323.019149,252 C323.165138,249.80889 323.780333,247.673738 324.82378,245.736678 C326.241315,242.926559 320.462133,231.588811 317.866953,226.822418 C317.029637,225.271973 316.350227,223.642706 315.838787,221.958751 C313.837882,215.360376 309.219988,199.013051 311.727935,196.521773 C311.727935,196.521773 314.453965,183.551995 318.046871,183.551995 C321.639778,183.551995 336.55661,181.266071 336.55661,181.266071 Z" id="Shape" fill="#FFFFFF" opacity="0.1"></path>
                <path d="M336.55661,179.266071 C336.55661,179.266071 350.099524,177.028785 353.714239,185.529393 C355.229911,189.101487 356.909145,192.749237 358.343036,195.797135 C361.42283,202.243761 363.070136,209.270733 363.17356,216.40287 C363.234361,218.214526 363.089887,220.027224 362.742848,221.806944 C361.390737,227.627132 365,245.973965 365,245.973965 L323.019149,250 C323.165138,247.80889 323.780333,245.673738 324.82378,243.736678 C326.241315,240.926559 320.462133,229.588811 317.866953,224.822418 C317.029637,223.271973 316.350227,221.642706 315.838787,219.958751 C313.837882,213.360376 309.219988,197.013051 311.727935,194.521773 C311.727935,194.521773 314.453965,181.551995 318.046871,181.551995 C321.639778,181.551995 336.55661,179.266071 336.55661,179.266071 Z" id="Shape" fill="#C8B5AC"></path>
                <path d="M322.174619,183 C322.174619,183 321.292974,178.112005 323.491776,177.221328 C325.690577,176.330651 334.485783,175 334.485783,175 C334.485783,175 337.14134,181.218645 339.765031,181.218645 C342.388721,181.218645 322.174619,183 322.174619,183 Z" id="Shape" fill="#C8B5AC"></path>
                <path d="M322.174619,183 C322.174619,183 321.292974,178.112005 323.491776,177.221328 C325.690577,176.330651 334.485783,175 334.485783,175 C334.485783,175 337.14134,181.218645 339.765031,181.218645 C342.388721,181.218645 322.174619,183 322.174619,183 Z" id="Shape" fill="#000000" opacity="0.1"></path>
                <path d="M333.163098,207.811041 C333.163098,207.811041 317.87148,203.753258 314.276647,203.753258 C310.681813,203.753258 303.486716,202.849107 303.486716,202.849107 C303.486716,202.849107 288.195097,196.983022 288.645809,194.281464 C289.096521,191.579906 281,166.764788 281,166.764788 C281,166.764788 293.142066,162.254929 294.032629,160 C294.032629,160 298.078175,177.592807 304.82256,179.847737 C311.566946,182.102666 316.513915,185.261746 328.655981,183.006817 C331.020034,182.561555 333.414464,182.297535 335.818497,182.217047 C344.273415,181.955606 351.609699,188.404486 351.984387,196.879535 C352.272191,203.192249 348.677357,209.14548 333.163098,207.811041 Z" id="Shape" fill="#FFFFFF" opacity="0.1"></path>
                <path d="M333.168113,206.807231 C333.168113,206.807231 317.876616,202.747921 314.281811,202.747921 C310.687006,202.747921 303.486536,201.865225 303.486536,201.865225 C303.486536,201.865225 288.19504,195.996934 288.645748,193.29436 C289.096456,190.591786 281,165.767333 281,165.767333 C281,165.767333 293.141969,161.255778 294.032525,159 C294.032525,159 298.078038,176.599425 304.82237,178.855203 C311.566702,181.110981 316.513631,184.271249 328.655601,182.015471 C331.019635,181.570042 333.414046,181.305923 335.818059,181.225404 C344.27291,180.963865 351.609136,187.415171 351.983821,195.893408 C352.277053,202.181252 348.682248,208.158518 333.168113,206.807231 Z" id="Shape" fill="#C8B5AC"></path>
                <path d="M318.925932,155.391212 C319.807229,156.774971 321.242024,157.906649 322.881022,158.00319 C323.740824,158.056824 324.638243,157.826198 325.444308,158.131912 C326.217426,158.490973 326.802828,159.158992 327.056437,159.971559 C328.050583,162.594264 326.986578,165.83376 328.561091,168.150751 C329.635843,169.722228 331.58652,170.3712 333.322245,171.148893 C331.849834,172.130396 331.640257,174.366936 332.489312,175.906233 C333.338367,177.44553 334.961243,178.432396 336.605615,179.086731 C338.986196,179.938792 341.450308,180.537452 343.956924,180.872745 C344.816726,181.017557 345.784004,181.140915 346.498715,180.636755 C347.374638,180.009237 347.433749,178.684476 347.003848,177.69761 C346.573947,176.710743 345.784004,175.93305 345.171395,175.048088 C344.773645,174.472463 344.450446,173.848935 344.209491,173.19235 C344.088312,172.919626 344.038392,172.620688 344.064399,172.323479 C344.226502,171.823509 344.561821,171.397563 345.010182,171.122076 C346.427322,169.946961 347.489606,168.402098 348.078601,166.659724 C348.521129,165.159727 348.772098,163.609958 348.825554,162.047197 C349.137233,157.681386 349.223213,153.117129 347.390759,149.142847 C346.812364,147.794793 345.920836,146.603478 344.789858,145.667361 C344.021169,145.111029 343.196286,144.636467 342.328674,144.251422 C338.916334,142.588767 335.482499,140.920748 331.822965,139.917792 C328.163432,138.914835 324.229837,138.598394 320.586425,139.660348 C319.507975,139.930821 318.506053,140.444578 317.657724,141.162101 C316.964508,141.800346 316.475496,142.631674 315.776906,143.264556 C314.793507,144.154881 313.476935,144.589316 312.445173,145.409917 C310.521365,146.976031 309.935625,149.700641 310.005484,152.162443 C310.032353,153.235124 310.41389,154.570611 311.472521,154.699333 C313.224368,154.913869 313.976695,151.96936 315.6963,151.610012 C317.845805,151.18094 318.071503,154.055725 318.925932,155.391212 Z" id="Shape" fill="#000000" opacity="0.1"></path>
                <path d="M318.925932,154.391212 C319.807229,155.774971 321.242024,156.906649 322.881022,157.00319 C323.740824,157.056824 324.638243,156.826198 325.444308,157.131912 C326.217426,157.490973 326.802828,158.158992 327.056437,158.971559 C328.050583,161.594264 326.986578,164.83376 328.561091,167.150751 C329.635843,168.722228 331.58652,169.3712 333.322245,170.148893 C331.849834,171.130396 331.640257,173.366936 332.489312,174.906233 C333.338367,176.44553 334.961243,177.432396 336.605615,178.086731 C338.986196,178.938792 341.450308,179.537452 343.956924,179.872745 C344.816726,180.017557 345.784004,180.140915 346.498715,179.636755 C347.374638,179.009237 347.433749,177.684476 347.003848,176.69761 C346.573947,175.710743 345.784004,174.93305 345.171395,174.048088 C344.773645,173.472463 344.450446,172.848935 344.209491,172.19235 C344.088312,171.919626 344.038392,171.620688 344.064399,171.323479 C344.226502,170.823509 344.561821,170.397563 345.010182,170.122076 C346.427322,168.946961 347.489606,167.402098 348.078601,165.659724 C348.521129,164.159727 348.772098,162.609958 348.825554,161.047197 C349.137233,156.681386 349.223213,152.117129 347.390759,148.142847 C346.812364,146.794793 345.920836,145.603478 344.789858,144.667361 C344.021169,144.111029 343.196286,143.636467 342.328674,143.251422 C338.916334,141.588767 335.482499,139.920748 331.822965,138.917792 C328.163432,137.914835 324.229837,137.598394 320.586425,138.660348 C319.507975,138.930821 318.506053,139.444578 317.657724,140.162101 C316.964508,140.800346 316.475496,141.631674 315.776906,142.264556 C314.793507,143.154881 313.476935,143.589316 312.445173,144.409917 C310.521365,145.976031 309.935625,148.700641 310.005484,151.162443 C310.032353,152.235124 310.41389,153.570611 311.472521,153.699333 C313.224368,153.913869 313.976695,150.96936 315.6963,150.610012 C317.845805,150.186303 318.071503,153.061088 318.925932,154.391212 Z" id="Shape" fill="#D37F3F"></path>
                <path d="M373.12501,330.420156 C373.12501,330.420156 366.840177,337.148065 361,337.597675 L384.799942,353.74574 C384.799942,353.74574 386.144756,364.038032 379.409844,364.038032 C372.674932,364.038032 373.12501,369 373.12501,369 L405.904835,369 C405.904835,369 409.944698,361.822481 406.804993,357.786819 C403.665287,353.751157 396.501987,345.224805 396.501987,345.224805 C396.501987,345.224805 384.827056,329.515517 382.582085,321 C382.544126,321 377.831857,327.056201 373.12501,330.420156 Z" id="Shape" fill="#FFFFFF" opacity="0.1"></path>
                <path d="M373.12501,331.447241 C373.12501,331.447241 366.840177,338.17515 361,338.62476 L384.799942,354.772825 C384.799942,354.772825 386.144756,365.065117 379.409844,365.065117 C372.674932,365.065117 373.12501,370 373.12501,370 L405.904835,370 C405.904835,370 409.944698,362.822481 406.804993,358.786819 C403.665287,354.751157 396.501987,346.224805 396.501987,346.224805 C396.501987,346.224805 384.827056,330.515517 382.582085,322 C382.554972,322.021668 377.842702,328.077869 373.12501,331.447241 Z" id="Shape" fill="#74555E"></path>
                <path d="M205.118036,236.06833 L246.894073,285.466377 C246.894073,285.466377 252.286979,302.532538 239.255026,308.367679 L233.862119,314.652928 L211.845606,306.12256 C211.845606,306.12256 219.034339,303.87744 211.845606,290.85141 C204.656872,277.82538 191.180031,264.821041 191.180031,264.821041 L181.745158,262.575922 L157.932817,301.198482 C157.932817,301.198482 155.220087,318.264642 144.455976,320.509761 L135.021102,325 L122,314.696312 L152.100448,250.477223 C152.100448,250.477223 147.608168,219.023861 160.189808,215 L205.118036,236.06833 Z" id="Shape" fill="#2A2A31"></path>
                <path d="M237.038175,166.833806 C239.038955,167.53285 240.683802,168.96887 244.981975,165.26773 C244.981975,165.26773 256.145359,177.834265 252.127619,185.908494 C248.109879,193.982723 207.468688,242 207.468688,242 L153,221.359236 C153,221.359236 169.97158,198.919383 167.291289,189.495836 C164.610999,180.07229 186.943161,146.864991 203.019513,149.108435 C219.095865,151.351878 223.118998,152.695777 223.118998,152.695777 C223.118998,152.695777 225.459534,164.839634 233.780839,166.069734 C234.887984,166.221639 235.978529,166.477447 237.038175,166.833806 Z" id="Shape" fill="#000000" opacity="0.1"></path>
                <path d="M237.038175,164.833806 C239.038955,165.53285 240.683802,166.96887 244.981975,163.26773 C244.981975,163.26773 256.145359,175.834265 252.127619,183.908494 C248.109879,191.982723 207.468688,240 207.468688,240 L153,219.359236 C153,219.359236 169.97158,196.919383 167.291289,187.495836 C164.610999,178.07229 186.943161,144.864991 203.019513,147.108435 C219.095865,149.351878 223.118998,150.695777 223.118998,150.695777 C223.118998,150.695777 225.459534,162.839634 233.780839,164.069734 C234.887984,164.221639 235.978529,164.477447 237.038175,164.833806 Z" id="Shape" fill="#2A2A31"></path>
                <path d="M181,156.052437 C181,156.052437 184.587905,197.044604 223.637539,202 L238,184.430374 C238,184.430374 215.556623,173.170583 215.556623,170.015666 C215.556623,170.015666 207.031283,163.259791 209.719502,152 L181,156.052437 Z" id="Shape" fill="#2A2A31"></path>
                <path d="M245,164 C245,164 264.083795,173.96309 261.812176,188 C261.812176,188 252.7257,182.110731 247.72704,183.472317 L245,164 Z" id="Shape" fill="#000000" opacity="0.1"></path>
                <path d="M245,163 C245,163 264.083795,172.96309 261.812176,187 C261.812176,187 252.7257,181.110731 247.72704,182.472317 L245,163 Z" id="Shape" fill="#757681"></path>
                <path d="M250,295.698485 C250,295.698485 227.64898,321.325945 227.64898,324.925735 C227.64898,324.925735 214.694996,342.908393 220.945293,353.25168 C227.195591,363.594966 239.717775,365.392146 239.717775,365.392146 C239.717775,365.392146 246.421462,370.338463 235.696643,372.586296 C224.971823,374.834128 191,367.189326 191,367.189326 L198.151679,348.728868 C198.151679,348.728868 205.751349,325.349239 205.751349,320.402922 C205.751349,315.456605 212.007044,299.759786 212.007044,299.759786 L234.800659,306.953935 L241.952337,297.495665 L247.074559,293 L250,295.698485 Z" id="Shape" fill="#000000" opacity="0.1"></path>
                <path d="M250,296.698668 C250,296.698668 227.64898,322.327868 227.64898,325.922472 C227.64898,325.922472 214.694996,343.906351 220.945293,354.25034 C227.195591,364.594328 239.717775,366.39163 239.717775,366.39163 C239.717775,366.39163 246.421462,371.338283 235.696643,373.586268 C224.971823,375.834253 191,368.188932 191,368.188932 L198.151679,349.72722 C198.151679,349.72722 205.751349,326.346005 205.751349,321.399352 C205.751349,316.4527 212.007044,300.716805 212.007044,300.716805 L234.800659,307.911443 L241.952337,298.49597 L247.074559,294 L250,296.698668 Z" id="Shape" fill="#535461"></path>
                <path d="M161,307.693238 C161,307.693238 138.64898,333.322438 138.64898,336.922472 C138.64898,336.922472 125.694996,354.906351 131.945293,365.25034 C138.195591,375.594328 150.717775,377.39163 150.717775,377.39163 C150.717775,377.39163 157.421462,382.338283 146.696643,384.586268 C135.971823,386.834253 102,379.188932 102,379.188932 L109.151679,360.72722 C109.151679,360.72722 116.772939,337.373155 116.772939,332.426502 C116.772939,327.479849 123.028634,311.743955 123.028634,311.743955 L145.822249,318.938592 L152.936145,309.49597 L158.058366,305 L161,307.693238 Z" id="Shape" fill="#000000" opacity="0.1"></path>
                <path d="M161,308.708976 C161,308.708976 138.64898,334.332958 138.64898,337.932259 C138.64898,337.932259 125.694996,355.912477 131.945293,366.25436 C138.195591,376.596243 150.717775,378.393179 150.717775,378.393179 C150.717775,378.393179 157.421462,383.338825 146.696643,385.586352 C135.971823,387.833879 102,380.190115 102,380.190115 L109.151679,361.732162 C109.151679,361.732162 116.772939,338.382851 116.772939,333.437205 C116.772939,328.491559 123.028634,312.758868 123.028634,312.758868 L145.822249,319.952041 L152.936145,310.495055 L158.058366,306 L161,308.708976 Z" id="Shape" fill="#535461"></path>
                <path d="M277,186.511229 L360.521822,53.1491842 C360.521822,53.1491842 366.807653,51.8047213 365.912776,57.1879941 L281.040504,191 L277,186.511229 Z" id="Shape" fill="#FC6681"></path>
                <path d="M215,151.9851 L213.672705,160.381274 C213.672705,160.381274 190.627007,144.047967 180.431453,167 L176,148.435541 C176,148.435541 206.581309,138.710284 215,151.9851 Z" id="Shape" fill="#000000" opacity="0.1"></path>
                <path d="M215,150.974389 L213.672705,159.370583 C213.672705,159.370583 190.627007,143.015886 180.431453,166 L176,147.435497 C176,147.435497 206.581309,137.715555 215,150.974389 Z" id="Shape" fill="#757681"></path>
                <path d="M223,143.873342 L223,152.131861 L214.936411,156.168997 C197.468006,140.909162 180.00501,152.131861 180.00501,152.131861 C180.00501,152.131861 154.478424,192.969261 150.000455,196.567461 C145.522487,200.165661 128,270 128,270 L128.50296,267.469338 C128.50296,267.469338 137.431857,196.09601 149.102698,185.799956 C160.77354,175.503903 171.941421,148.555337 171.941421,148.555337 C192.990038,126.565133 222.551121,142.7191 222.551121,142.7191 C222.551121,142.7191 222.713367,143.114685 223,143.873342 Z" id="Shape" fill="#000000" opacity="0.1"></path>
                <path d="M223,142.899031 L223,151.155868 L214.936411,155.192182 C197.468006,139.935455 180.00501,151.155868 180.00501,151.155868 C180.00501,151.155868 154.478424,191.984951 150.000455,195.582418 C145.522487,199.179885 128,269 128,269 L128.50296,266.469854 C128.50296,266.469854 137.431857,195.111063 149.102698,184.790017 C160.77354,174.468971 171.941421,147.552983 171.941421,147.552983 C192.990038,125.567259 222.551121,141.717935 222.551121,141.717935 C222.551121,141.717935 222.713367,142.129693 223,142.899031 Z" id="Shape" fill="#2A2A31"></path>
                <path d="M232.930029,130 C229.966558,130 227.304922,131.296296 225,133.174603 C226.568995,143.050132 235.125883,150.499559 245.47539,151 C249.668153,147.296296 257,145.767196 257,145.767196 C257,145.767196 243.839993,130 232.930029,130 Z" id="Shape" fill="#000000" opacity="0.1"></path>
                <circle id="Oval" fill="#535461" cx="246.5" cy="129.5" r="21.5"></circle>
                <path d="M259.373033,104.702996 C259.373033,104.702996 242.336322,94.3235684 232.92201,108.319407 C223.507698,122.315247 224.406361,118.272733 224.406361,118.272733 L206,131.383589 C206,131.383589 221.244798,131.383589 230.65911,135 C230.65911,135 258.902047,118.261807 263.833869,129.116503 C263.833869,129.116503 269.215023,131.378126 269.664355,135 C269.664355,135 271.006936,132.738377 268.321773,127.761715 C268.321773,127.77264 273.735409,114.650859 259.373033,104.702996 Z" id="Shape" fill="#000000" opacity="0.1"></path>
                <path d="M259.373033,103.702996 C259.373033,103.702996 242.336322,93.3235684 232.92201,107.319407 C223.507698,121.315247 224.406361,117.272733 224.406361,117.272733 L206,130.383589 C206,130.383589 221.244798,130.383589 230.65911,134 C230.65911,134 258.902047,117.261807 263.833869,128.116503 C263.833869,128.116503 269.215023,130.378126 269.664355,134 C269.664355,134 271.006936,131.738377 268.321773,126.761715 C268.321773,126.77264 273.735409,113.656321 259.373033,103.702996 Z" id="Shape" fill="#535461"></path>
                <polygon id="Shape" fill="#9F9BAD" points="276.31427 184 234 240.225863 242.34775 246 283 188.948484"></polygon>
                <path d="M233.100098,180 C233.100098,180 219.133893,192.482252 220.042485,207.192901 C220.042485,207.192901 230.379762,203.629619 244.824747,208.974542 C259.269732,214.319465 262.398119,217 262.398119,217 C262.398119,217 277.267476,209.421298 275.912749,204.081757 C274.558021,198.742217 268.225079,196.49229 268.225079,196.49229 L255.60816,193.800989 C255.60816,193.800989 234.900961,183.563282 233.100098,180 Z" id="Shape" fill="#000000" opacity="0.1"></path>
                <path d="M234.100098,180 C234.100098,180 220.133893,192.482252 221.042485,207.192901 C221.042485,207.192901 231.379762,203.629619 245.824747,208.974542 C260.269732,214.319465 263.398119,217 263.398119,217 C263.398119,217 278.267476,209.421298 276.912749,204.081757 C275.558021,198.742217 269.252282,196.503055 269.252282,196.503055 L256.635363,193.811754 C256.635363,193.811754 235.906402,183.563282 234.100098,180 Z" id="Shape" fill="#757681"></path>
                <path d="M263.747642,220.673813 C263.747642,220.673813 267.29929,243.94989 247.754496,239.413728 C247.754496,239.413728 236.203593,228.461901 243.312254,220.673813 C250.420914,212.885725 263.747642,219.758864 263.747642,220.673813 Z" id="Shape" fill="#000000" opacity="0.1"></path>
                <path d="M264.747642,220.673813 C264.747642,220.673813 268.29929,243.94989 248.754496,239.413728 C248.754496,239.413728 237.203593,228.461901 244.312254,220.673813 C251.420914,212.885725 264.747642,219.758864 264.747642,220.673813 Z" id="Shape" fill="#757681"></path>
                <path d="M361,223 C361,223 360.554482,230.234855 357.446592,232.042204 C354.338701,233.849553 345.444444,235.20916 345.444444,236.110104 C345.444444,237.011048 341.891036,241.084408 341,239.724802" id="Shape" fill="#000000" opacity="0.1"></path>
                <path d="M296.147254,314.603008 C293.430131,314.681015 290.710814,314.619103 288,314.417514 C288,314.417514 306.890766,352.367391 302.844297,357.790361 C302.844297,357.790361 301.04647,365.924815 293.398914,365.924815 C285.751358,365.924815 289.803259,369.989315 292.497284,370.442138 C295.19131,370.894962 319.035607,372.7008 324,365.924815 L320.849728,355.084331 C320.849728,355.084331 316.803259,341.990642 318.133977,338.820878 C319.464695,335.651114 317.232348,309 317.232348,309 L311.197948,311.509624 C306.42275,313.493428 301.314422,314.543347 296.147254,314.603008 Z" id="Shape" fill="#FFFFFF" opacity="0.1"></path>
                <path d="M296.147254,315.603008 C293.430131,315.681015 290.710814,315.619103 288,315.417514 C288,315.417514 306.890766,353.367391 302.844297,358.790361 C302.844297,358.790361 301.04647,366.924815 293.398914,366.924815 C285.751358,366.924815 289.803259,370.989315 292.497284,371.442138 C295.19131,371.894962 319.035607,373.7008 324,366.924815 L320.849728,356.084331 C320.849728,356.084331 316.803259,342.990642 318.133977,339.820878 C319.464695,336.651114 317.232348,310 317.232348,310 L311.197948,312.509624 C306.42275,314.493428 301.314422,315.543347 296.147254,315.603008 Z" id="Shape" fill="#74555E"></path>
                <path d="M401.57616,2.54354548 C400.940187,2.2644649 400.612271,1.55128261 400.812826,0.883374141 C400.827777,0.833817716 400.836863,0.782661319 400.839895,0.730964969 C400.857242,0.427254142 400.67508,0.14783692 400.391171,0.0426694702 C400.107262,-0.0624979798 399.788342,0.0313052983 399.605567,0.273737454 C399.575032,0.315919042 399.54959,0.361599109 399.529775,0.409817072 C399.252206,1.04925206 398.542884,1.37895272 397.878592,1.17730612 C397.829304,1.1622739 397.778424,1.15313883 397.727008,1.15009019 C397.424941,1.13264882 397.147037,1.31580231 397.042438,1.60125682 C396.93784,1.88671132 397.031136,2.20736711 397.272256,2.39113631 C397.314209,2.4218378 397.359642,2.44741864 397.407598,2.46734089 C398.044733,2.73994365 398.379305,3.44777128 398.187174,4.11662586 C398.172223,4.16618228 398.163137,4.21733868 398.160105,4.26903503 C398.142758,4.57274586 398.32492,4.85216308 398.608829,4.95733053 C398.892738,5.06249798 399.211658,4.9686947 399.394433,4.72626255 C399.424968,4.68408096 399.45041,4.63840089 399.470225,4.59018293 C399.747794,3.95074794 400.457116,3.62104728 401.121408,3.82269388 C401.170696,3.8377261 401.221576,3.84686117 401.272992,3.84990981 C401.575059,3.86735118 401.852963,3.68419769 401.957562,3.39874318 C402.06216,3.11328868 401.968864,2.79263289 401.727744,2.60886369 C401.680155,2.58075724 401.629223,2.55881062 401.57616,2.54354548 Z" id="Shape" fill="#EC4C6F"></path>
                <path d="M258.591073,36.5380195 C257.953027,36.2595452 257.624043,35.5479124 257.825252,34.881455 C257.840251,34.8320062 257.849366,34.780961 257.852408,34.7293769 C257.869812,34.4263259 257.687056,34.1475157 257.402222,34.0425768 C257.117388,33.9376378 256.797428,34.0312373 256.614059,34.2731427 C256.583424,34.3152327 256.557898,34.3608135 256.53802,34.4089267 C256.259545,35.0469725 255.547912,35.3759569 254.881455,35.1747484 C254.832006,35.1597488 254.780961,35.1506336 254.729377,35.1475916 C254.426326,35.1301881 254.147516,35.3129437 254.042577,35.597778 C253.937638,35.8826124 254.031237,36.2025715 254.273143,36.3859415 C254.315233,36.4165763 254.360814,36.4421015 254.408927,36.4619805 C255.046973,36.7404548 255.375957,37.4520876 255.174748,38.118545 C255.159749,38.1679938 255.150634,38.219039 255.147592,38.2706231 C255.130188,38.5736741 255.312944,38.8524843 255.597778,38.9574232 C255.882612,39.0623622 256.202572,38.9687627 256.385941,38.7268573 C256.416576,38.6847673 256.442102,38.6391865 256.46198,38.5910733 C256.740455,37.9530275 257.452088,37.6240431 258.118545,37.8252516 C258.167994,37.8402512 258.219039,37.8493664 258.270623,37.8524084 C258.573674,37.8698119 258.852484,37.6870563 258.957423,37.402222 C259.062362,37.1173876 258.968763,36.7974285 258.726857,36.6140585 C258.684767,36.5834237 258.639186,36.5578985 258.591073,36.5380195 Z" id="Shape" fill="#EC4C6F"></path>
                <circle id="Oval" fill="#EC4C6F" cx="446" cy="87" r="2"></circle>
                <polygon id="Rectangle-path" fill="#EC4C6F" points="102 180 103 180 103 186 102 186"></polygon>
                <polygon id="Rectangle-path" fill="#EC4C6F" transform="translate(102.500000, 183.000000) rotate(90.000000) translate(-102.500000, -183.000000) " points="102 180 103 180 103 186 102 186"></polygon>
                <polygon id="Rectangle-path" fill="#EC4C6F" points="460 24 461 24 461 30 460 30"></polygon>
                <polygon id="Rectangle-path" fill="#EC4C6F" transform="translate(460.500000, 27.000000) rotate(90.000000) translate(-460.500000, -27.000000) " points="460 24 461 24 461 30 460 30"></polygon>
                <polygon id="Rectangle-path" fill="#EC4C6F" points="172 76 173 76 173 82 172 82"></polygon>
                <polygon id="Rectangle-path" fill="#EC4C6F" transform="translate(172.500000, 79.000000) rotate(90.000000) translate(-172.500000, -79.000000) " points="172 76 173 76 173 82 172 82"></polygon>
                <polygon id="Rectangle-path" fill="#EC4C6F" points="311 19 312 19 312 25 311 25"></polygon>
                <polygon id="Rectangle-path" fill="#EC4C6F" transform="translate(311.500000, 22.000000) rotate(90.000000) translate(-311.500000, -22.000000) " points="311 19 312 19 312 25 311 25"></polygon>
                <polygon id="Rectangle-path" fill="#EC4C6F" points="471 127 472 127 472 133 471 133"></polygon>
                <polygon id="Rectangle-path" fill="#EC4C6F" transform="translate(471.500000, 130.000000) rotate(90.000000) translate(-471.500000, -130.000000) " points="471 127 472 127 472 133 471 133"></polygon>
                <path d="M147.580196,14.5608683 C146.944755,14.2837802 146.616623,13.5749016 146.816267,12.9105204 C146.831495,12.8604482 146.840719,12.8087409 146.843746,12.7564879 C146.874538,12.4499485 146.69788,12.1603193 146.411404,12.0476673 C146.124928,11.9350153 145.798558,12.0268369 145.612666,12.2723859 C145.581623,12.3149884 145.555791,12.3611605 145.535723,12.4099149 C145.2589,13.0459642 144.5507,13.3744113 143.886955,13.174576 C143.836931,13.1593334 143.785273,13.1501 143.73307,13.1470702 C143.429076,13.1266346 143.147951,13.3090575 143.042505,13.5951814 C142.937058,13.8813052 143.032483,14.2027662 143.276911,14.3848312 C143.319472,14.4159038 143.3656,14.4417602 143.414308,14.4618474 C144.049749,14.7389354 144.377881,15.447814 144.178237,16.1121953 C144.163009,16.1622674 144.153785,16.2139747 144.150758,16.2662277 C144.130342,16.5705131 144.31259,16.8519069 144.59844,16.9574548 C144.88429,17.0630027 145.205443,16.9674861 145.387334,16.722824 C145.418377,16.6802215 145.444209,16.6340494 145.464277,16.585295 C145.7411,15.9492457 146.4493,15.6207986 147.113045,15.8206338 C147.163069,15.8358764 147.214727,15.8451099 147.26693,15.8481396 C147.570924,15.8685753 147.852049,15.6861523 147.957495,15.4000285 C148.062942,15.1139046 147.967517,14.7924437 147.723089,14.6103787 C147.677512,14.5884461 147.629566,14.5718334 147.580196,14.5608683 Z" id="Shape" fill="#EC4C6F"></path>
                <path d="M97.5856919,111.535723 C96.9502513,111.2589 96.6221186,110.5507 96.8217626,109.886955 C96.8369906,109.836931 96.8462152,109.785273 96.8492421,109.73307 C96.8696582,109.429076 96.6874098,109.147951 96.4015598,109.042505 C96.1157098,108.937058 95.7945566,109.032483 95.6126658,109.276911 C95.5816229,109.319472 95.5557913,109.3656 95.5357233,109.414308 C95.2589005,110.049749 94.5507003,110.377881 93.886955,110.178237 C93.8369308,110.163009 93.785273,110.153785 93.73307,110.150758 C93.4290758,110.130342 93.1479514,110.31259 93.0425045,110.59844 C92.9370576,110.88429 93.0324828,111.205443 93.2769107,111.387334 C93.3194725,111.418377 93.3656003,111.444209 93.4143081,111.464277 C94.0497487,111.7411 94.3778814,112.4493 94.1782374,113.113045 C94.1630094,113.163069 94.1537848,113.214727 94.1507579,113.26693 C94.1303418,113.570924 94.3125902,113.852049 94.5984402,113.957495 C94.8842902,114.062942 95.2054434,113.967517 95.3873342,113.723089 C95.4183771,113.680528 95.4442087,113.6344 95.4642767,113.585692 C95.7410995,112.950251 96.4492997,112.622119 97.113045,112.821763 C97.1630692,112.836991 97.214727,112.846215 97.26693,112.849242 C97.5709242,112.869658 97.8520486,112.68741 97.9574955,112.40156 C98.0629424,112.11571 97.9675172,111.794557 97.7230893,111.612666 C97.6805275,111.581623 97.6343997,111.555791 97.5856919,111.535723 Z" id="Shape" fill="#EC4C6F"></path>
                <circle id="Oval" fill="#EC4C6F" cx="40" cy="100" r="2"></circle>
                <circle id="Oval" fill="#EC4C6F" cx="74" cy="30" r="2"></circle>
                <circle id="Oval" fill="#EC4C6F" cx="455" cy="181" r="2"></circle>
            </g>
        </g>
    </g>
</svg>