<svg xmlns="http://www.w3.org/2000/svg" viewBox="13867 4970 146.598 110.1">
  <defs>
    <style>
      .cls-1 {
        fill: #9b9b9b;
      }
    </style>
  </defs>
  <path id="path" class="cls-1" d="M461.749,359.416l7.907-7.908L571.24,453.092,563.333,461l-12.166-12.166H480q-15.512,0-25.548-10.949c-6.691-7.3-10.949-15.816-10.949-25.548s3.65-18.249,10.341-25.548a32.759,32.759,0,0,1,24.94-10.949Zm29.2,28.59H480.605c-6.691,0-12.166,2.433-17.032,7.3s-7.3,10.341-7.3,17.032,2.433,12.166,7.3,17.032,10.341,7.3,17.032,7.3h59.612Zm70.562,0a28.826,28.826,0,0,1,20.073,9.732c5.475,6.083,8.516,12.774,8.516,20.682a29.274,29.274,0,0,1-12.774,24.94l-9.124-9.124c6.083-3.65,9.124-8.516,9.124-15.815a18.71,18.71,0,0,0-18.249-18.249H549.95V397.13a33.232,33.232,0,0,0-33.456-33.456,29.631,29.631,0,0,0-15.207,3.65l-9.124-9.124a43.867,43.867,0,0,1,24.332-7.3,46.255,46.255,0,0,1,29.2,10.341C554.208,369.149,559.075,377.665,561.508,388.006Z" transform="translate(13423.5 4619.101)"/>
</svg>
