<svg xmlns="http://www.w3.org/2000/svg" viewBox="806 -3793 29.493 30.092">
  <defs>
    <style>
      .cls-1 {
        fill: #0f9f4f;
      }
    </style>
  </defs>
  <path id="Path_74" data-name="Path 74" class="cls-1" d="M17.38,0a.281.281,0,0,0-.038.019L.489,3.213a.6.6,0,0,0-.489.6V26.274a.6.6,0,0,0,.489.6l16.853,3.2a.6.6,0,0,0,.715-.583v-3.01H28.289a1.212,1.212,0,0,0,1.2-1.2V4.812a1.212,1.212,0,0,0-1.2-1.2H18.057V.6a.6.6,0,0,0-.2-.454A.6.6,0,0,0,17.38,0Zm-.527,1.317V3.928a.608.608,0,0,0,0,.527V25.766a.613.613,0,0,0,0,.245v2.765L1.2,25.785V4.3Zm1.2,3.5H28.289V25.277H18.057v-3.01h2.408v-1.2H18.057V17.452h2.408v-1.2H18.057v-3.01h2.408v-1.2H18.057V9.026h2.408v-1.2H18.057Zm3.611,3.01v1.2h4.815v-1.2ZM4.025,9.439l3.292,5.624L3.724,20.687h3.01l1.956-3.63a6.022,6.022,0,0,0,.263-.79h.019a3.2,3.2,0,0,0,.226.752l1.956,3.668h2.991l-3.461-5.68,3.367-5.568H11.229L9.442,12.769c-.172.435-.294.778-.357,1H9.066a5.717,5.717,0,0,0-.339-.959L7.11,9.439Zm17.643,2.6v1.2h4.815v-1.2Zm0,4.213v1.2h4.815v-1.2Zm0,4.815v1.2h4.815v-1.2Z" transform="translate(806 -3792.992)"/>
</svg>
