<svg xmlns="http://www.w3.org/2000/svg" width="328" height="243" viewBox="0 0 328 243">
    <defs>
        <linearGradient id="a" x1="49.999%" x2="49.999%" y1="99.997%" y2="-.006%">
            <stop offset="0%" stop-color="gray" stop-opacity=".25"/>
            <stop offset="54%" stop-color="gray" stop-opacity=".12"/>
            <stop offset="100%" stop-color="gray" stop-opacity=".1"/>
        </linearGradient>
    </defs>
    <g fill="none" fill-rule="evenodd">
        <g opacity=".1">
            <path fill="#EC4C6F" fill-rule="nonzero" d="M261.685 172.096s-23.398-3.015-5.948 34.562c0 0 15.903-6.762 16.536-22.014.267-6.143-4.14-11.514-10.256-12.5l-.332-.048z"/>
            <path stroke="#535461" d="M262.029 172.04s5.297 20.952-6.274 34.621"/>
            <path stroke="#535461" stroke-width="2" d="M255.438 208.597s8.425-20.603 24.158-28.245a33.835 33.835 0 0 0 15.418-14.852 56.403 56.403 0 0 0 3.863-9.625"/>
            <path fill="#EC4C6F" fill-rule="nonzero" d="M308.763 151.004c-1.64 2.045-10.128 5.04-10.128 5.04s1.022-8.894 2.662-10.924a4.796 4.796 0 0 1 4.525-1.984 4.773 4.773 0 0 1 3.872 3.055 4.715 4.715 0 0 1-.928 4.822l-.003-.009zM305.85 167.205c-2.497.833-11.257-1.24-11.257-1.24s5.721-6.9 8.219-7.734a4.81 4.81 0 0 1 4.897.766 4.722 4.722 0 0 1 1.58 4.663 4.76 4.76 0 0 1-3.439 3.545zM290.058 186.358c-2.578-.53-9.088-6.709-9.088-6.709s8.449-3.092 11.03-2.561c2.424.67 3.909 3.09 3.396 5.534-.512 2.445-2.846 4.077-5.338 3.733v.003zM274.821 198.18c-2.632-.092-10.1-5.087-10.1-5.087s7.803-4.47 10.435-4.376c2.504.253 4.382 2.39 4.293 4.885-.088 2.496-2.112 4.497-4.628 4.575v.003zM286.437 160.164c.338 2.594 6.04 9.507 6.04 9.507s3.756-8.123 3.422-10.716a4.744 4.744 0 0 0-2.834-4.039 4.81 4.81 0 0 0-4.919.629 4.724 4.724 0 0 0-1.709 4.619zM268.793 174.227c1.102 2.372 8.63 7.278 8.63 7.278s1.136-8.867.033-11.238a4.774 4.774 0 0 0-3.921-3.009 4.794 4.794 0 0 0-4.501 2.06 4.712 4.712 0 0 0-.241 4.912v-.003zM253.532 190.217c.681 2.526 7.269 8.62 7.269 8.62s2.629-8.545 1.945-11.071a4.757 4.757 0 0 0-3.351-3.632 4.805 4.805 0 0 0-4.793 1.276 4.716 4.716 0 0 0-1.07 4.807z"/>
            <path fill="#000" fill-rule="nonzero" d="M308.763 151.004c-1.64 2.045-10.128 5.04-10.128 5.04s1.022-8.894 2.662-10.924a4.796 4.796 0 0 1 4.525-1.984 4.773 4.773 0 0 1 3.872 3.055 4.715 4.715 0 0 1-.928 4.822l-.003-.009zM305.85 167.205c-2.497.833-11.257-1.24-11.257-1.24s5.721-6.9 8.219-7.734a4.81 4.81 0 0 1 4.897.766 4.722 4.722 0 0 1 1.58 4.663 4.76 4.76 0 0 1-3.439 3.545zM290.058 186.358c-2.578-.53-9.088-6.709-9.088-6.709s8.449-3.092 11.03-2.561c2.424.67 3.909 3.09 3.396 5.534-.512 2.445-2.846 4.077-5.338 3.733v.003zM274.821 198.18c-2.632-.092-10.1-5.087-10.1-5.087s7.803-4.47 10.435-4.376c2.504.253 4.382 2.39 4.293 4.885-.088 2.496-2.112 4.497-4.628 4.575v.003zM286.437 160.164c.338 2.594 6.04 9.507 6.04 9.507s3.756-8.123 3.422-10.716a4.744 4.744 0 0 0-2.834-4.039 4.81 4.81 0 0 0-4.919.629 4.724 4.724 0 0 0-1.709 4.619zM268.793 174.227c1.102 2.372 8.63 7.278 8.63 7.278s1.136-8.867.033-11.238a4.774 4.774 0 0 0-3.921-3.009 4.794 4.794 0 0 0-4.501 2.06 4.712 4.712 0 0 0-.241 4.912v-.003zM253.532 190.217c.681 2.526 7.269 8.62 7.269 8.62s2.629-8.545 1.945-11.071a4.757 4.757 0 0 0-3.351-3.632 4.805 4.805 0 0 0-4.793 1.276 4.716 4.716 0 0 0-1.07 4.807z" opacity=".25"/>
            <path stroke="#535461" stroke-width="2" d="M266.66 217.97s8.424-20.602 24.157-28.245a33.834 33.834 0 0 0 15.41-14.854 56.403 56.403 0 0 0 3.862-9.626"/>
            <path fill="#EC4C6F" fill-rule="nonzero" d="M319.97 160.372c-1.64 2.045-10.129 5.04-10.129 5.04s1.022-8.894 2.662-10.925a4.807 4.807 0 0 1 6.53-.54 4.718 4.718 0 0 1 .94 6.433l-.004-.008zM317.062 176.572c-2.497.833-11.257-1.239-11.257-1.239s5.721-6.901 8.22-7.734c2.435-.641 4.953.704 5.756 3.074.802 2.37-.387 4.951-2.719 5.9zM301.27 195.737c-2.578-.53-9.088-6.708-9.088-6.708s8.449-3.092 11.03-2.562c2.424.67 3.909 3.09 3.397 5.535-.512 2.444-2.847 4.076-5.339 3.732v.003zM286.03 207.544c-2.631-.091-10.1-5.086-10.1-5.086s7.803-4.465 10.435-4.373c2.504.253 4.382 2.39 4.294 4.885-.089 2.496-2.113 4.496-4.628 4.574zM297.646 169.543c.338 2.594 6.041 9.507 6.041 9.507s3.755-8.122 3.42-10.716a4.744 4.744 0 0 0-2.833-4.039 4.81 4.81 0 0 0-4.918.63 4.724 4.724 0 0 0-1.71 4.618zM280.005 183.583c1.102 2.372 8.63 7.278 8.63 7.278s1.136-8.867.034-11.238c-1.2-2.2-3.916-3.096-6.205-2.049a4.73 4.73 0 0 0-2.46 6.012v-.003zM264.744 199.59c.682 2.527 7.27 8.621 7.27 8.621s2.628-8.546 1.944-11.072c-.812-2.364-3.332-3.698-5.763-3.051-2.43.646-3.94 3.053-3.45 5.503z"/>
        </g>
        <path fill="#EC4C6F" fill-rule="nonzero" d="M4 129c5.193 21.98 16.186 40.98 33.56 50.19 36.107 19.14 117.535 9.27 178.309-2.073 30.706-5.71 58.579-21.487 79.131-44.79L4 129zM320.231 23.635h-33.23c-1.587 0-2.873-1.263-2.873-2.821 0-1.558 1.286-2.82 2.873-2.82h5.744c-1.586 0-2.872-1.264-2.872-2.822s1.286-2.82 2.872-2.82h-4.102c-1.586 0-2.872-1.263-2.872-2.821 0-1.558 1.286-2.821 2.872-2.821h17.345c-3.85-1.757-8.348-3.007-13.529-3.662-47.293-5.967-64.178-2.02-70.134 2.049-7.349 5.006-15.547 8.69-24.309 10.463-29.182 5.905-83.752 13.02-133.212-2.283C40.22 5.665 21.95 18.523 11 40h315c-.411-6.242-1.643-12.003-3.902-17.05-.518.44-1.18.684-1.867.685zM.717 82a144.402 144.402 0 0 0 1.295 38.388L294.666 131A136.297 136.297 0 0 0 315 100.25L.717 82zm115.748 27.384h-5.762c1.591 0 2.881 1.279 2.881 2.857 0 1.577-1.29 2.857-2.881 2.857H77.37c-1.591 0-2.881-1.28-2.881-2.857 0-1.578 1.29-2.857 2.881-2.857h5.762c-1.59 0-2.88-1.28-2.88-2.857 0-1.578 1.29-2.857 2.88-2.857h-4.114c-1.592 0-2.881-1.28-2.881-2.857 0-1.578 1.29-2.857 2.88-2.857h33.334c1.59 0 2.88 1.279 2.88 2.857 0 1.578-1.29 2.857-2.88 2.857h4.114c1.591 0 2.881 1.279 2.881 2.857 0 1.578-1.29 2.857-2.88 2.857zM327.852 41L8.636 48.629C4.756 58.43 2.195 69.513 1 81h321.259a131.875 131.875 0 0 0 4.64-20.635c.956-6.751 1.338-13.283.953-19.365zM65.806 65.99h-5.757c1.59 0 2.878 1.265 2.878 2.826 0 1.562-1.289 2.827-2.878 2.827H26.747c-1.59 0-2.879-1.265-2.879-2.827 0-1.561 1.289-2.827 2.879-2.827h5.757c-1.59 0-2.879-1.265-2.879-2.827 0-1.56 1.289-2.827 2.879-2.827h-4.111c-1.59 0-2.879-1.265-2.879-2.827 0-1.56 1.289-2.826 2.879-2.826h33.302c1.59 0 2.878 1.265 2.878 2.826 0 1.562-1.288 2.827-2.878 2.827h4.11c1.59 0 2.88 1.266 2.88 2.827 0 1.562-1.29 2.827-2.88 2.827z" opacity=".1"/>
        <path fill="url(#a)" fill-rule="nonzero" d="M282 242.844s-13.357-73.197-38.827-85.075c-21.583-10.072-44.922-16.861-51.558-18.703a28.638 28.638 0 0 0-3.42-4.46c-9.071-9.46-14.52-9.284-15.402-9.167a46.035 46.035 0 0 1-.9-5.69c-.026-.3-.053-.579-.077-.875l.078-.04a69.164 69.164 0 0 1-.144-1.751 45.142 45.142 0 0 0 10.129-7.37c.039.128.071.257.113.389a544.42 544.42 0 0 0 19.206-17.012c1.798-1.68 3.687-3.504 4.298-5.873a8.612 8.612 0 0 0 .225-2.492c.081-1.797-.345-3.633-.417-5.454 0-.3.033-.578.072-.862.42-2.98 2.494-5.427 4.197-7.928a37.36 37.36 0 0 0 6.364-21.402 36.21 36.21 0 0 0-1.499-10.782c-1.328-4.438-4.092-9.101-8.693-10.072-1.78-.374-3.63-.14-5.446-.257-7.521-.48-13.15-6.59-19.149-11.067a50.567 50.567 0 0 0-25.053-9.715c-2.833-.3-5.759-.32-8.454.578-6.052 2.012-9.727 8.227-15.557 10.782-4.31 1.898-9.292 1.59-13.789 3.015-6.693 2.127-12.374 8.985-12.523 16.032v.914c-.075 3.561 1.199 7.188 1.3 10.833 0 .33.005.66.015.991-.033 3.935-.503 7.883-1.939 11.582-.773 1.991-1.769 4.297-1.607 6.289-.09 1.219.147 2.363.996 3.294l1.447-1.275a43.69 43.69 0 0 0-.728 7.96c0 13.46 6.127 25.511 15.791 33.622a272.165 272.165 0 0 1 .519 18.955L107.43 143.74 71.09 160.213s-33.237 7.014-26.079 53.667l3.417 28.967h30.345l-.07.153h45.039l.027-.153h107.157l-.021.153h4.196v-.153l46.9-.003zM173.06 126.181a31.106 31.106 0 0 1 2.158 5.93 24.279 24.279 0 0 1-2.33-6.253l.046.08.126.243zm-51.504 5.99c0 .571-.01 1.147-.03 1.729l-.072.101c-.005-.616.029-1.232.102-1.845v.015z"/>
        <path fill="#FDC2CC" fill-rule="nonzero" d="M183 139.443l-5.849 57.348L145.861 207s-40.647-7.807-30.12-30.325c7.49-16.019 7.282-44.645 6.539-59.837-.292-6.168-.69-10.122-.69-10.122s53.222-47.74 48.836-4.804c-.849 8.314-.898 14.814-.427 19.895 1.973 21.15 13.001 17.636 13.001 17.636z"/>
        <path fill="#000" fill-rule="nonzero" d="M183 139.443l-5.849 57.348L145.861 207s-40.647-7.807-30.12-30.325c7.49-16.019 7.282-44.645 6.539-59.837-.292-6.168-.69-10.122-.69-10.122s53.222-47.74 48.836-4.804c-.849 8.314-.898 14.814-.427 19.895 1.973 21.15 13.001 17.636 13.001 17.636z" opacity=".03"/>
        <path fill="#000" fill-rule="nonzero" d="M171.738 100.857c-.863 8.288-.914 14.768-.435 19.833-15.663 8.594-34.972 6.626-48.6-4.954-.298-6.148-.703-10.09-.703-10.09s54.206-47.592 49.738-4.79z" opacity=".1"/>
        <circle cx="149.5" cy="82.5" r="43.5" fill="#FDC2CC" fill-rule="nonzero"/>
        <circle cx="149.5" cy="82.5" r="43.5" fill="#000" fill-rule="nonzero" opacity=".03"/>
        <path fill="#EC4C6F" fill-rule="nonzero" d="M277 243H52.256l-3.288-28.382c-6.874-45.71 25.105-52.58 25.105-52.58l34.967-16.134 13.897-12.995c-4.483 17.029 29.438 52.431 29.438 52.431.217-.202.424-.417.618-.642.915-.998 3.1-3.496 8.216-9.692 1.829-2.22 4.038-4.911 6.697-8.18 12.792-15.714 6.229-34.282 4.268-38.12l-.122-.24c-.075-.137-.132-.248-.177-.326a.487.487 0 0 0-.045-.08.475.475 0 0 1-.032-.06l16.437 12.846s.63.168 1.793.496c6.396 1.793 28.864 8.458 49.611 18.326C264.15 171.298 277 243 277 243z"/>
        <path fill="#EC4C6F" fill-rule="nonzero" d="M199.42 174.61c-2.65-2.687-20.617-5.972-20.617-5.972.59 7.167-21.206 18.217-21.206 18.217l1.62 56.145h-10.45L147 192.53l5.007-7.168.61-.642a98.219 98.219 0 0 0 8.096-9.688c1.803-2.22 3.98-4.91 6.6-8.177 12.607-15.709 6.139-34.27 4.207-38.107l-.121-.239a5.095 5.095 0 0 0-.174-.325.489.489 0 0 0-.044-.08.477.477 0 0 1-.032-.06s5.301-1.195 14.726 8.959a27.97 27.97 0 0 1 3.24 4.378c7.658 12.46 12.641 35.598 10.306 33.23z"/>
        <path fill="#000" fill-rule="nonzero" d="M199.42 174.61c-2.65-2.687-20.617-5.972-20.617-5.972.59 7.167-21.206 18.217-21.206 18.217l1.62 56.145h-10.45L147 192.53l5.007-7.168.61-.642a98.219 98.219 0 0 0 8.096-9.688c1.803-2.22 3.98-4.91 6.6-8.177 12.607-15.709 6.139-34.27 4.207-38.107l-.121-.239a5.095 5.095 0 0 0-.174-.325.489.489 0 0 0-.044-.08.477.477 0 0 1-.032-.06s5.301-1.195 14.726 8.959a27.97 27.97 0 0 1 3.24 4.378c7.658 12.46 12.641 35.598 10.306 33.23zM78 197s15.192 28.957 16 46M231 213l-4 30h4z" opacity=".1"/>
        <path fill="#000" fill-rule="nonzero" d="M81 243l22.283-50.85s6.28-12 7.776-24.001c1.496-12 9.571-30.9 9.571-30.9s20.04-25.5 29.312-21.9c9.272 3.6-8.076 17.1-8.076 17.1s25.423 9.9 8.076 39.3c-17.348 29.4-17.647 24-17.647 24L123.771 243H81z" opacity=".1"/>
        <path fill="#FDC2CC" fill-rule="nonzero" d="M80 243l22.283-50.848s6.28-12 7.776-24c.951-7.628 4.561-18.047 7.065-24.625a37.777 37.777 0 0 1 7.094-11.7c6.479-7.272 18.245-18.998 24.724-16.478 9.272 3.6-8.076 17.099-8.076 17.099s25.423 9.9 8.076 39.299c-17.348 29.398-17.647 23.999-17.647 23.999l-8.524 47.248L80 243z"/>
        <circle cx="163" cy="57" r="1" fill="#FFF" fill-rule="nonzero" opacity=".15"/>
        <circle cx="159" cy="59" r="1" fill="#FFF" fill-rule="nonzero" opacity=".15"/>
        <path fill="#000" fill-rule="nonzero" d="M119.198 25.399c4.317-1.411 9.11-1.107 13.252-2.981 5.6-2.538 9.13-8.681 14.944-10.67 2.59-.887 5.4-.853 8.12-.57a47.792 47.792 0 0 1 24.068 9.606c5.763 4.428 11.17 10.465 18.394 10.938 1.746.115 3.521-.117 5.231.253 4.428.959 7.081 5.567 8.355 9.947a37.772 37.772 0 0 1-4.673 30.925c-1.635 2.471-3.628 4.892-4.031 7.836-.394 2.888.823 5.88.113 8.708-.597 2.342-2.387 4.145-4.13 5.805A523.58 523.58 0 0 1 180.391 112c-3.264-10.477 1.525-21.759.779-32.715-.299-4.268-1.79-8.928-5.518-10.941-3.488-1.881-7.946-.905-11.476-2.713-3.94-2.005-5.556-6.752-8.534-10.037-5.073-5.606-13.88-6.33-20.972-3.798-7.093 2.532-12.891 7.74-18.501 12.82l-10.197 9.237c-1.99-2.266-.48-5.745.597-8.578 1.606-4.247 1.958-8.825 1.85-13.334-.086-3.617-1.322-7.189-1.25-10.71.143-6.944 5.598-13.732 12.029-15.832z" opacity=".1"/>
        <path fill="#865A61" fill-rule="nonzero" d="M119.198 24.399c4.317-1.411 9.11-1.107 13.252-2.981 5.6-2.538 9.13-8.681 14.944-10.67 2.59-.887 5.4-.853 8.12-.57a47.792 47.792 0 0 1 24.068 9.606c5.763 4.428 11.17 10.465 18.394 10.938 1.746.115 3.521-.117 5.231.253 4.428.959 7.081 5.567 8.355 9.947a37.772 37.772 0 0 1-4.673 30.925c-1.635 2.471-3.628 4.892-4.031 7.836-.394 2.888.823 5.88.113 8.708-.597 2.342-2.387 4.145-4.13 5.805A523.58 523.58 0 0 1 180.391 111c-3.264-10.477 1.525-21.759.779-32.715-.299-4.268-1.79-8.928-5.518-10.941-3.488-1.881-7.946-.905-11.476-2.713-3.94-2.005-5.556-6.752-8.534-10.037-5.073-5.606-13.88-6.33-20.972-3.798-7.093 2.532-12.891 7.74-18.501 12.82l-10.197 9.237c-1.99-2.266-.48-5.745.597-8.578 1.606-4.247 1.958-8.825 1.85-13.334-.086-3.617-1.322-7.189-1.25-10.71.143-6.944 5.598-13.732 12.029-15.832z"/>
    </g>
</svg>
