<svg xmlns="http://www.w3.org/2000/svg" viewBox="865.604 -3792.328 22.242 28.42">
  <defs>
    <style>
      .cls-1 {
        fill: #f5421d;
      }
    </style>
  </defs>
  <path id="Path_82" data-name="Path 82" class="cls-1" d="M7,2V30.42H29.242V10.285L20.706,2ZM8.236,3.236H19.974v8.032h8.032V29.185H8.236Zm12.974.975,6,5.821h-6Zm-3.849,8.833a1.347,1.347,0,0,0-1.154.654,1.993,1.993,0,0,0-.174,1.24,7.167,7.167,0,0,0,.8,2.254,17.124,17.124,0,0,1-.6,1.986,18.884,18.884,0,0,1-1.306,2.413,17.223,17.223,0,0,0-1.767.806,2.854,2.854,0,0,0-1.1,1.064A1.092,1.092,0,0,0,12,24.3a1.161,1.161,0,0,0,.582.606,1.491,1.491,0,0,0,1.513-.183,5.092,5.092,0,0,0,1.178-1.212c.191-.258.343-.676.531-.977.606-.268,1.035-.545,1.723-.782a21.276,21.276,0,0,1,2.626-.644,4.256,4.256,0,0,0,2.343.871,2.383,2.383,0,0,0,1.207-.217,1.242,1.242,0,0,0,.579-1.026,1.174,1.174,0,0,0-.331-.8,1.535,1.535,0,0,0-.7-.374,4.752,4.752,0,0,0-1.7-.058c-.34.036-.8.217-1.175.287-.051-.039-.1-.056-.15-.1A10.232,10.232,0,0,1,18.208,17.2c-.031-.056-.027-.094-.058-.15a15.316,15.316,0,0,0,.444-1.482,3.731,3.731,0,0,0-.046-1.581,1.4,1.4,0,0,0-.4-.659A1.224,1.224,0,0,0,17.361,13.044Zm-.051,1.231a.169.169,0,0,1,.029.007s.007,0,.027.063a3.6,3.6,0,0,1,0,.719c-.015-.072-.1-.208-.106-.273a1.048,1.048,0,0,1,.029-.5A.019.019,0,0,1,17.31,14.275Zm.374,4.334a11.065,11.065,0,0,0,1.277,1.53c-.632.169-1.2.229-1.837.449-.135.046-.212.111-.345.159.188-.393.422-.685.591-1.091C17.525,19.287,17.551,18.976,17.684,18.609Z" transform="translate(858.604 -3794.328)"/>
</svg>
