<svg xmlns="http://www.w3.org/2000/svg" width="150" height="98" viewBox="0 0 150 98">
    <g fill="none" fill-rule="nonzero">
        <g fill="#EC4C6F">
            <path d="M98.632 20.594a3.764 3.764 0 0 0-3.537 3.555l-1.35 10.926a2.4 2.4 0 0 0-2.443.563l-7.519 4.858a.859.859 0 0 0-.392.721v9.41c0 .474.384.858.856.858h8.875a.857.857 0 0 0 .856-.858v-1.1l5.318-3.583a7.264 7.264 0 0 0 2.925-6.043l-.015-15.163c-.002-2.285-1.606-4.144-3.574-4.144zm-.29 23.926l-5.698 3.838a.859.859 0 0 0-.379.712v.699H85.1v-8.084l7.196-4.65a.856.856 0 0 0 .142-.114.703.703 0 0 1 .892-.158c.112.066.211.154.292.257.459.647.467 1.512.02 2.168l-5.45 3.825.982 1.406 5.543-3.892a.841.841 0 0 0 .152-.135 3.61 3.61 0 0 0 .428-3.924l1.5-12.109a2.117 2.117 0 0 1 1.836-2.049c1.027 0 1.86 1.09 1.862 2.43l.015 15.16a5.54 5.54 0 0 1-2.168 4.62zM53.781 45.944l5.318 3.584v1.099c0 .474.384.858.856.858h8.879a.857.857 0 0 0 .856-.858v-9.41a.859.859 0 0 0-.392-.72l-7.518-4.86a2.4 2.4 0 0 0-2.444-.562l-1.354-10.926a3.764 3.764 0 0 0-3.537-3.555c-1.97 0-3.572 1.86-3.574 4.144l-.015 15.163a7.264 7.264 0 0 0 2.925 6.043zM52.583 24.74c.002-1.34.836-2.43 1.862-2.43a2.117 2.117 0 0 1 1.838 2.05l1.5 12.108a3.61 3.61 0 0 0 .428 3.924.841.841 0 0 0 .151.136l5.543 3.892.983-1.406-5.451-3.825a1.9 1.9 0 0 1 .018-2.168c.08-.103.18-.19.292-.257a.704.704 0 0 1 .893.157c.043.043.09.082.141.115l7.197 4.649v8.084H60.81v-.699a.859.859 0 0 0-.378-.712l-5.697-3.838a5.54 5.54 0 0 1-2.168-4.62l.015-15.16zM63.697 14.587a6.122 6.122 0 0 0 1.049 3.433 6.122 6.122 0 0 0-1.049 3.432 5.96 5.96 0 0 0 4.163 5.755 5.898 5.898 0 0 0 5.786 5.4 5.614 5.614 0 0 0 2.892-.819c.873.531 1.873.814 2.893.82a5.898 5.898 0 0 0 5.786-5.4 5.96 5.96 0 0 0 4.163-5.756 6.122 6.122 0 0 0-1.049-3.432 6.122 6.122 0 0 0 1.049-3.433 5.96 5.96 0 0 0-4.163-5.755 5.898 5.898 0 0 0-5.786-5.4 5.614 5.614 0 0 0-2.893.819 5.614 5.614 0 0 0-2.892-.819 5.898 5.898 0 0 0-5.786 5.4 5.96 5.96 0 0 0-4.163 5.755zm13.698 6.007c0-.948.766-1.716 1.712-1.716.945 0 1.712.768 1.712 1.716h1.712a3.428 3.428 0 0 0-3.424-3.432 3.383 3.383 0 0 0-1.712.477V5.719a3.925 3.925 0 0 1 2.036-.57 4.16 4.16 0 0 1 4.032 3.53 3.432 3.432 0 0 0-2.59 3.728 3.427 3.427 0 0 0 3.37 3.038V13.73a1.714 1.714 0 0 1-1.644-1.645 1.715 1.715 0 0 1 1.505-1.773.74.74 0 0 0 .137.05 4.22 4.22 0 0 1 3.426 4.226 4.382 4.382 0 0 1-1.061 2.87.86.86 0 0 0 0 1.125 4.382 4.382 0 0 1 1.061 2.87 4.225 4.225 0 0 1-3.123 4.145 3.415 3.415 0 0 0-3.842-1.43 3.426 3.426 0 0 0-2.451 3.292h1.712c0-.948.766-1.717 1.712-1.717s1.712.769 1.712 1.717h.064a4.16 4.16 0 0 1-4.023 3.432c-.717-.001-1.42-.198-2.033-.57v-9.727zM69.543 9.439a4.204 4.204 0 0 1 4.103-4.29c.718 0 1.422.197 2.036.57v5.436c0 .948-.766 1.716-1.712 1.716a1.714 1.714 0 0 1-1.712-1.716h-1.712a3.428 3.428 0 0 0 3.424 3.432 3.383 3.383 0 0 0 1.712-.477v16.21a3.925 3.925 0 0 1-2.036.57 4.16 4.16 0 0 1-4.032-3.53 3.432 3.432 0 0 0 2.59-3.728 3.427 3.427 0 0 0-3.37-3.038v1.716a1.714 1.714 0 0 1 1.644 1.645 1.715 1.715 0 0 1-1.506 1.774.74.74 0 0 0-.138-.05 4.22 4.22 0 0 1-3.425-4.227 4.382 4.382 0 0 1 1.062-2.87.86.86 0 0 0 0-1.124 4.382 4.382 0 0 1-1.062-2.87 4.22 4.22 0 0 1 3.425-4.227.944.944 0 0 0 .709-.922zM66.508 3.062a18.115 18.115 0 0 0-2.716 2.25l1.214 1.21a16.342 16.342 0 0 1 2.458-2.035l-.956-1.425zM66.571 33.019a17.98 17.98 0 0 0 3.109 1.662l.653-1.586a16.237 16.237 0 0 1-2.81-1.503l-.952 1.427zM79.728 34.01l.334 1.684a17.904 17.904 0 0 0 3.371-1.03l-.657-1.585c-.983.41-2.004.722-3.048.931zM65.055 29.567a16.467 16.467 0 0 1-2.028-2.467l-1.421.96a18.207 18.207 0 0 0 2.24 2.724l1.209-1.217zM58.895 14.544a18.214 18.214 0 0 0-.334 3.476v.036l1.712-.036c0-1.056.101-2.11.302-3.147l-1.68-.329zM61.564 8.045a18.05 18.05 0 0 0-1.656 3.117l1.584.654a16.26 16.26 0 0 1 1.497-2.82l-1.425-.95zM61.518 24.284c-.41-.985-.72-2.008-.93-3.054l-1.678.336c.23 1.157.575 2.289 1.027 3.378l1.58-.66zM73.383 34.017l-.33 1.683c1.148.226 2.315.34 3.485.34h.018l-.018-1.717c-1.059 0-2.116-.102-3.155-.306zM94.516 18.02v-.073l-1.712.073c0 1.067-.104 2.132-.31 3.18l1.68.332c.228-1.157.342-2.333.342-3.512zM91.546 11.72c.411.984.725 2.007.936 3.053l1.678-.344a18.01 18.01 0 0 0-1.035-3.375l-1.58.667zM87.997 6.448a16.458 16.458 0 0 1 2.034 2.462l1.419-.96a18.153 18.153 0 0 0-2.247-2.716l-1.206 1.214zM86.537 32.997a18.164 18.164 0 0 0 2.72-2.242l-1.211-1.213a16.325 16.325 0 0 1-2.463 2.03l.954 1.425zM76.538 1.716c1.048 0 2.093.1 3.122.3L79.987.33A18.099 18.099 0 0 0 76.538 0h-.053l.053 1.716zM70.27 2.97a16.13 16.13 0 0 1 3.045-.934L72.978.354a17.823 17.823 0 0 0-3.369 1.034l.66 1.583zM93.153 24.913l-1.58-.657c-.41.986-.915 1.93-1.508 2.816l1.423.955a18.12 18.12 0 0 0 1.665-3.114zM82.712 2.931c.985.406 1.928.908 2.815 1.498l.946-1.426a17.887 17.887 0 0 0-3.11-1.656l-.651 1.584z"/>
        </g>
        <path fill="#EC4C6F" d="M2.377 68.417v10.359h6.25c3.54 0 5.623-1.892 5.623-5.18 0-3.22-2.168-5.18-5.725-5.18H2.377zm0 12.437v10.07H.057V66.337h8.756c4.76 0 7.809 2.811 7.809 7.19 0 3.476-1.965 6.082-5.234 6.951l5.928 10.444h-2.71L8.983 80.854H2.377zm25.034 8.4c3.269 0 5.759-2.25 5.759-5.163v-2.147l-5.404.392c-3.1.222-4.59 1.38-4.59 3.476 0 2.113 1.779 3.441 4.235 3.441zm-.373 1.976c-3.574 0-6.148-2.096-6.148-5.384 0-3.203 2.354-5.06 6.572-5.35l5.708-.375V78.35c0-2.624-1.576-4.09-4.54-4.09-2.506 0-4.319 1.074-4.76 2.846h-2.252c.424-2.914 3.252-4.839 7.08-4.839 4.285 0 6.707 2.25 6.707 6.066v12.59h-2.134v-3.152h-.203c-1.118 2.181-3.354 3.459-6.03 3.459zm13.974-.307v-18.35h2.117v3.306h.22c.966-2.266 2.981-3.612 5.894-3.612 4.065 0 6.386 2.454 6.386 6.73v11.926H53.41V79.56c0-3.492-1.592-5.281-4.76-5.281-3.218 0-5.42 2.283-5.42 5.741v10.904h-2.218zm22.78-9.762l8.91-8.587h2.778l-8.147 7.871 8.52 10.478h-2.846l-7.351-9.047-2.066 1.926v7.121h-2.22V65.265h2.22v15.896h.203z"/>
        <path fill="#3E3E5F" d="M87.94 88.742c3.659 0 5.928-2.845 5.928-7.19 0-4.361-2.32-7.274-5.928-7.274-3.641 0-5.843 2.879-5.843 7.24 0 4.345 2.202 7.224 5.843 7.224zm.187 9.064c-4.184 0-6.962-1.874-7.436-4.736h2.354c.407 1.686 2.304 2.777 5.082 2.777 3.523 0 5.708-1.857 5.708-4.822v-4.123h-.22c-1.085 2.42-3.32 3.834-6.115 3.834-4.692 0-7.69-3.714-7.69-9.217 0-5.504 3.015-9.252 7.69-9.252 2.795 0 5.217 1.55 6.216 3.936h.203v-3.63h2.134v18.623c0 3.986-3.133 6.61-7.926 6.61zm28.116-25.232v18.35h-2.117v-3.306h-.203c-.915 2.283-3.032 3.612-5.946 3.612-4.065 0-6.368-2.522-6.368-6.73V72.574h2.219v11.364c0 3.424 1.592 5.247 4.725 5.247 3.405 0 5.471-2.232 5.471-5.707V72.574h2.219zm5.725 18.35v-18.35h2.117v3.016h.22c.61-1.994 2.66-3.323 5.082-3.323.61 0 1.22.034 1.71.154v2.231c-.406-.119-1.32-.221-1.981-.221-2.829 0-4.93 2.147-4.93 5.043v11.45h-2.218zm27.422-18.35v18.35h-2.117v-3.306h-.204c-.914 2.283-3.031 3.612-5.945 3.612-4.065 0-6.368-2.522-6.368-6.73V72.574h2.219v11.364c0 3.424 1.592 5.247 4.725 5.247 3.405 0 5.471-2.232 5.471-5.707V72.574h2.219z"/>
    </g>
</svg>
