<?xml version="1.0" encoding="UTF-8"?>
<svg width="32px" height="31px" viewBox="0 0 32 31" version="1.1" xmlns="http://www.w3.org/2000/svg" xmlns:xlink="http://www.w3.org/1999/xlink">
    <!-- Generator: Sketch 54.1 (76490) - https://sketchapp.com -->
    <title>noun_intellectual_1544049</title>
    <desc>Created with Sketch.</desc>
    <defs>
        <linearGradient x1="52.8979683%" y1="100%" x2="-10.7373809%" y2="-41.2390755%" id="linearGradient-1">
            <stop stop-color="#EC008C" offset="0%"></stop>
            <stop stop-color="#FC6767" offset="100%"></stop>
        </linearGradient>
        <linearGradient x1="52.8992858%" y1="100%" x2="-10.7649936%" y2="-41.2390755%" id="linearGradient-2">
            <stop stop-color="#EC008C" offset="0%"></stop>
            <stop stop-color="#FC6767" offset="100%"></stop>
        </linearGradient>
        <linearGradient x1="56.0425133%" y1="100%" x2="-76.6426661%" y2="-41.2390755%" id="linearGradient-3">
            <stop stop-color="#EC008C" offset="0%"></stop>
            <stop stop-color="#FC6767" offset="100%"></stop>
        </linearGradient>
        <linearGradient x1="57.7607901%" y1="94.1655363%" x2="-112.655355%" y2="-30.592454%" id="linearGradient-4">
            <stop stop-color="#EC008C" offset="0%"></stop>
            <stop stop-color="#FC6767" offset="100%"></stop>
        </linearGradient>
        <linearGradient x1="57.7607901%" y1="83.5625462%" x2="-112.655355%" y2="-11.2443137%" id="linearGradient-5">
            <stop stop-color="#EC008C" offset="0%"></stop>
            <stop stop-color="#FC6767" offset="100%"></stop>
        </linearGradient>
        <linearGradient x1="57.7607901%" y1="74.7822314%" x2="-112.655355%" y2="4.77784229%" id="linearGradient-6">
            <stop stop-color="#EC008C" offset="0%"></stop>
            <stop stop-color="#FC6767" offset="100%"></stop>
        </linearGradient>
        <linearGradient x1="56.8356323%" y1="100%" x2="-93.265336%" y2="-41.2390755%" id="linearGradient-7">
            <stop stop-color="#EC008C" offset="0%"></stop>
            <stop stop-color="#FC6767" offset="100%"></stop>
        </linearGradient>
        <linearGradient x1="52.5661303%" y1="100%" x2="-3.78251896%" y2="-41.2390755%" id="linearGradient-8">
            <stop stop-color="#EC008C" offset="0%"></stop>
            <stop stop-color="#FC6767" offset="100%"></stop>
        </linearGradient>
        <linearGradient x1="55.2065438%" y1="100%" x2="-59.1219085%" y2="-41.2390755%" id="linearGradient-9">
            <stop stop-color="#EC008C" offset="0%"></stop>
            <stop stop-color="#FC6767" offset="100%"></stop>
        </linearGradient>
        <linearGradient x1="53.8422937%" y1="100%" x2="-30.529127%" y2="-41.2390755%" id="linearGradient-10">
            <stop stop-color="#EC008C" offset="0%"></stop>
            <stop stop-color="#FC6767" offset="100%"></stop>
        </linearGradient>
        <linearGradient x1="57.7607901%" y1="66.5808095%" x2="-112.655355%" y2="19.7436455%" id="linearGradient-11">
            <stop stop-color="#EC008C" offset="0%"></stop>
            <stop stop-color="#FC6767" offset="100%"></stop>
        </linearGradient>
        <linearGradient x1="52.4783417%" y1="100%" x2="-1.94259051%" y2="-41.2390755%" id="linearGradient-12">
            <stop stop-color="#EC008C" offset="0%"></stop>
            <stop stop-color="#FC6767" offset="100%"></stop>
        </linearGradient>
        <linearGradient x1="53.8535961%" y1="100%" x2="-30.7660077%" y2="-41.2390755%" id="linearGradient-13">
            <stop stop-color="#EC008C" offset="0%"></stop>
            <stop stop-color="#FC6767" offset="100%"></stop>
        </linearGradient>
        <linearGradient x1="56.8780204%" y1="100%" x2="-94.1537301%" y2="-41.2390755%" id="linearGradient-14">
            <stop stop-color="#EC008C" offset="0%"></stop>
            <stop stop-color="#FC6767" offset="100%"></stop>
        </linearGradient>
        <linearGradient x1="57.7607901%" y1="94.0163308%" x2="-112.655355%" y2="-30.3201866%" id="linearGradient-15">
            <stop stop-color="#EC008C" offset="0%"></stop>
            <stop stop-color="#FC6767" offset="100%"></stop>
        </linearGradient>
        <linearGradient x1="57.7607901%" y1="66.4845506%" x2="-112.655355%" y2="19.9192968%" id="linearGradient-16">
            <stop stop-color="#EC008C" offset="0%"></stop>
            <stop stop-color="#FC6767" offset="100%"></stop>
        </linearGradient>
        <linearGradient x1="57.7607901%" y1="74.8195848%" x2="-112.655355%" y2="4.70968065%" id="linearGradient-17">
            <stop stop-color="#EC008C" offset="0%"></stop>
            <stop stop-color="#FC6767" offset="100%"></stop>
        </linearGradient>
        <linearGradient x1="55.2326163%" y1="100%" x2="-59.668352%" y2="-41.2390755%" id="linearGradient-18">
            <stop stop-color="#EC008C" offset="0%"></stop>
            <stop stop-color="#FC6767" offset="100%"></stop>
        </linearGradient>
        <linearGradient x1="57.7607901%" y1="83.4135451%" x2="-112.655355%" y2="-10.9724192%" id="linearGradient-19">
            <stop stop-color="#EC008C" offset="0%"></stop>
            <stop stop-color="#FC6767" offset="100%"></stop>
        </linearGradient>
    </defs>
    <g id="Components" stroke="none" stroke-width="1" fill="none" fill-rule="evenodd">
        <g id="Icons-Copy" transform="translate(-587.000000, -208.000000)" fill-rule="nonzero">
            <g id="noun_intellectual_1544049" transform="translate(587.000000, 208.000000)">
                <path d="M29.3202581,12.3870968 C28.1689434,12.4536192 27.2510742,13.3739319 27.1876129,14.5254194 L26.3741935,21.0972903 C25.8583914,20.9247019 25.2893799,21.055445 24.9006452,21.435871 L20.368,24.3581935 C20.2206985,24.4531952 20.1316793,24.616462 20.1316129,24.7917419 L20.1316129,30.4516129 C20.1316129,30.7366631 20.3626917,30.9677419 20.6477419,30.9677419 L25.9979355,30.9677419 C26.2829857,30.9677419 26.5140645,30.7366631 26.5140645,30.4516129 L26.5140645,29.7904516 L29.7202581,27.6350968 C30.8672282,26.7847286 31.5258495,25.4272015 31.483871,24 L31.4750968,14.88 C31.4735484,13.5055484 30.5068387,12.3870968 29.3202581,12.3870968 Z M29.1447742,26.7783226 L25.7099355,29.0869677 C25.5673087,29.1828726 25.4817791,29.3434824 25.4818065,29.5153548 L25.4818065,29.9354839 L21.1612903,29.9354839 L21.1612903,25.0730323 L25.499871,22.2766452 C25.5306094,22.2568446 25.5591568,22.2338336 25.5850323,22.208 C25.7173604,22.0498512 25.9441576,22.0095849 26.1228387,22.1125161 C26.1907456,22.1525673 26.2504623,22.205104 26.2988387,22.2673548 C26.5757024,22.6564793 26.5804419,23.1769954 26.3107097,23.5710968 L23.0250323,25.872 L23.6175484,26.7179355 L26.9594839,24.3767742 C26.9931195,24.3533835 27.0237949,24.3260009 27.0508387,24.2952258 C27.5983828,23.629717 27.6996998,22.7030723 27.3089032,21.9349677 L28.2131613,14.651871 C28.2283475,14.024468 28.6980742,13.5015275 29.3202581,13.4193548 C29.9396129,13.4193548 30.4418065,14.0748387 30.4428387,14.8810323 L30.4516129,24 C30.4945716,25.0836912 30.0069459,26.1203773 29.1447742,26.7783226 L29.1447742,26.7783226 Z" id="Shape" fill="url(#linearGradient-1)"></path>
                <path d="M2.27974194,27.6350968 L5.48593548,29.7904516 L5.48593548,30.4516129 C5.48593548,30.7366631 5.71701432,30.9677419 6.00206452,30.9677419 L11.3548387,30.9677419 C11.6398889,30.9677419 11.8709677,30.7366631 11.8709677,30.4516129 L11.8709677,24.7917419 C11.8709014,24.616462 11.7818821,24.4531952 11.6345806,24.3581935 L7.10193548,21.435871 C6.71320074,21.055445 6.14418925,20.9247019 5.6283871,21.0972903 L4.8123871,14.5254194 C4.74892583,13.3739319 3.83105659,12.4536192 2.67974194,12.3870968 C1.49264516,12.3870968 0.526451613,13.5055484 0.524903226,14.88 L0.516129032,24 C0.474150502,25.4272015 1.13277185,26.7847286 2.27974194,27.6350968 Z M1.55716129,14.8810323 C1.55819355,14.0748387 2.06141935,13.4193548 2.67974194,13.4193548 C3.30252303,13.5010934 3.77285978,14.0244443 3.78787097,14.6523871 L4.69212903,21.9354839 C4.30133249,22.7035884 4.40264942,23.6302331 4.95019355,24.2957419 C4.97723735,24.3265171 5.0079128,24.3538997 5.04154839,24.3772903 L8.38348387,26.7184516 L8.976,25.8725161 L5.68929032,23.5716129 C5.41970673,23.1775272 5.42423847,22.6572014 5.70064516,22.267871 C5.74908481,22.2056797 5.80878928,22.1531538 5.87664516,22.1130323 C6.05536462,22.009908 6.2823237,22.0499468 6.41496774,22.208 C6.4408432,22.2338336 6.46939057,22.2568446 6.50012903,22.2766452 L10.8387097,25.0730323 L10.8387097,29.9354839 L6.51819355,29.9354839 L6.51819355,29.5153548 C6.51822088,29.3434824 6.43269133,29.1828726 6.29006452,29.0869677 L2.85522581,26.7783226 C1.99305408,26.1203773 1.50542837,25.0836912 1.5483871,24 L1.55716129,14.8810323 Z" id="Shape" fill="url(#linearGradient-2)"></path>
                <path d="M8.25806452,8.77419355 C8.25742805,9.51013673 8.4776818,10.2293326 8.89032258,10.8387097 C8.4776818,11.4480867 8.25742805,12.1672826 8.25806452,12.9032258 C8.23982958,14.4841833 9.25927759,15.8904848 10.7674839,16.3649032 C10.9236956,18.1827756 12.4316159,19.5867322 14.256,19.6129032 C14.8712409,19.6100516 15.4741101,19.4398423 16,19.1205161 C16.5258899,19.4398423 17.1287591,19.6100516 17.744,19.6129032 C19.5683841,19.5867322 21.0763044,18.1827756 21.2325161,16.3649032 C22.7407224,15.8904848 23.7601704,14.4841833 23.7419355,12.9032258 C23.742572,12.1672826 23.5223182,11.4480867 23.1096774,10.8387097 C23.5223182,10.2293326 23.742572,9.51013673 23.7419355,8.77419355 C23.7601704,7.19323607 22.7407224,5.78693459 21.2325161,5.31251613 C21.0763044,3.49464372 19.5683841,2.09068714 17.744,2.06451613 C17.1287591,2.06736777 16.5258899,2.23757706 16,2.55690323 C15.4741101,2.23757706 14.8712409,2.06736777 14.256,2.06451613 C12.4316159,2.09068714 10.9236956,3.49464372 10.7674839,5.31251613 C9.25927759,5.78693459 8.23982958,7.19323607 8.25806452,8.77419355 Z M16.516129,12.3870968 C16.516129,11.8169964 16.9782867,11.3548387 17.5483871,11.3548387 C18.1184875,11.3548387 18.5806452,11.8169964 18.5806452,12.3870968 L19.6129032,12.3870968 C19.6129032,11.246896 18.6885879,10.3225806 17.5483871,10.3225806 C17.1849016,10.3247198 16.828566,10.4237811 16.516129,10.6095484 L16.516129,3.44 C16.8863972,3.21561122 17.3110464,3.09690938 17.744,3.09677419 C18.9629716,3.11893341 19.9890915,4.01520884 20.1749677,5.22012903 C19.1632431,5.46679503 18.4936065,6.4283317 18.6131109,7.462812 C18.7326153,8.4972923 19.6038445,9.28082634 20.6451613,9.29032258 L20.6451613,8.25806452 C20.1073548,8.23702995 19.6759655,7.80630802 19.6540982,7.26853478 C19.6322309,6.73076154 20.0272253,6.26643665 20.5615484,6.20180645 C20.5878397,6.21462058 20.6153266,6.22482013 20.6436129,6.23225806 C21.8596815,6.46295037 22.7323717,7.53664483 22.7096774,8.77419355 C22.7111385,9.40795815 22.4838924,10.0209728 22.0696774,10.5006452 C21.901508,10.6946507 21.901508,10.9827686 22.0696774,11.1767742 C22.4838924,11.6564466 22.7111385,12.2694612 22.7096774,12.9032258 C22.7269415,14.0674669 21.9509677,15.094585 20.8263226,15.396129 C20.3306544,14.6271731 19.3874805,14.2768995 18.5100464,14.5359162 C17.6326124,14.7949329 17.0308657,15.6012639 17.0322581,16.516129 L18.0645161,16.516129 C18.0645161,15.9460286 18.5266738,15.483871 19.0967742,15.483871 C19.6668746,15.483871 20.1290323,15.9460286 20.1290323,16.516129 L20.1677419,16.516129 C19.9566661,17.6957289 18.9401084,18.5608844 17.7419355,18.5806452 C17.309683,18.5801333 16.8857975,18.4614453 16.516129,18.2374194 L16.516129,12.3870968 Z M11.7821935,5.67741935 C11.7548139,4.28249928 12.8611689,3.12836303 14.256,3.09677419 C14.6889536,3.09690938 15.1136028,3.21561122 15.483871,3.44 L15.483871,6.70967742 C15.483871,7.27977781 15.0217133,7.74193548 14.4516129,7.74193548 C13.8815125,7.74193548 13.4193548,7.27977781 13.4193548,6.70967742 L12.3870968,6.70967742 C12.3870968,7.84987819 13.3114121,8.77419355 14.4516129,8.77419355 C14.8150984,8.77205438 15.171434,8.67299308 15.483871,8.48722581 L15.483871,18.2374194 C15.1136028,18.4618081 14.6889536,18.58051 14.256,18.5806452 C13.0370284,18.5584859 12.0109085,17.6622105 11.8250323,16.4572903 C12.8367569,16.2106243 13.5063935,15.2490877 13.3868891,14.2146074 C13.2673847,13.1801271 12.3961555,12.396593 11.3548387,12.3870968 L11.3548387,13.4193548 C11.8926452,13.4403894 12.3240345,13.8711113 12.3459018,14.4088846 C12.3677691,14.9466578 11.9727747,15.4109827 11.4384516,15.4756129 C11.4116643,15.4627032 11.3836542,15.452502 11.3548387,15.4451613 C10.1393871,15.2138073 9.26749434,14.1402893 9.29032258,12.9032258 C9.28886148,12.2694612 9.51610755,11.6564466 9.93032258,11.1767742 C10.098492,10.9827686 10.098492,10.6946507 9.93032258,10.5006452 C9.51610755,10.0209728 9.28886148,9.40795815 9.29032258,8.77419355 C9.26749434,7.53713002 10.1393871,6.46361207 11.3548387,6.23225806 C11.6079807,6.16766645 11.7843666,5.93866296 11.7821935,5.67741935 Z" id="Shape" fill="url(#linearGradient-3)"></path>
                <path d="M9.95251613,1.84206452 C9.36412263,2.23870337 8.81580771,2.6917719 8.31535484,3.19483871 L9.04722581,3.92258065 C9.50008241,3.46733103 9.99638053,3.05746589 10.5290323,2.69883871 L9.95251613,1.84206452 Z" id="Path" fill="url(#linearGradient-4)"></path>
                <path d="M9.99070968,19.8606452 C10.5811918,20.2543919 11.2088878,20.5892438 11.8647742,20.8603871 L12.2585806,19.9065806 C11.6655088,19.6613889 11.0979648,19.3585144 10.564129,19.0023226 L9.99070968,19.8606452 Z" id="Path" fill="url(#linearGradient-5)"></path>
                <path d="M17.9230968,20.4567742 L18.1243871,21.4694194 C18.820583,21.3301964 19.5013744,21.1227434 20.1569032,20.8500645 L19.7605161,19.8967742 C19.1679125,20.143309 18.552469,20.3308809 17.9230968,20.4567742 L17.9230968,20.4567742 Z" id="Path" fill="url(#linearGradient-6)"></path>
                <path d="M9.07664516,17.7842581 C8.62194052,17.3304367 8.21244364,16.8334744 7.85393548,16.3003871 L6.99716129,16.8774194 C7.39327617,17.4661019 7.84563684,18.0149155 8.34787097,18.516129 L9.07664516,17.7842581 Z" id="Path" fill="url(#linearGradient-7)"></path>
                <path d="M5.36258065,8.7483871 C5.22855184,9.43708616 5.16114406,10.1370901 5.16129032,10.8387097 L5.16129009,10.8603871 L6.19354839,10.8387097 C6.19354494,10.2034499 6.25455624,9.56965817 6.37574194,8.94606452 L5.36258065,8.7483871 Z" id="Path" fill="url(#linearGradient-8)"></path>
                <path d="M6.97187097,4.83922581 C6.57862708,5.42993312 6.24429408,6.05780149 5.97367742,6.71380645 L6.92851613,7.10709677 C7.17298102,6.51348483 7.47534515,5.94540678 7.83122581,5.41109677 L6.97187097,4.83922581 Z" id="Path" fill="url(#linearGradient-9)"></path>
                <path d="M6.944,14.6064516 C6.69737123,14.0140595 6.50979587,13.3987777 6.384,12.7695484 L5.37187097,12.971871 C5.51099657,13.667924 5.7184529,14.3485537 5.99122581,15.003871 L6.944,14.6064516 Z" id="Path" fill="url(#linearGradient-10)"></path>
                <path d="M14.0975484,20.4609032 L13.8983226,21.4735484 C14.5906534,21.6092221 15.2945007,21.6774981 16,21.6774194 L16.0108387,21.6774194 L16,20.6451613 C15.3613872,20.6453206 14.7242609,20.583613 14.0975484,20.4609032 Z" id="Path" fill="url(#linearGradient-11)"></path>
                <path d="M26.8387097,10.8387097 L26.8387099,10.7948387 L25.8064516,10.8387097 C25.8064102,11.4808293 25.7440098,12.1214274 25.620129,12.7514839 L26.6327742,12.9512258 C26.769872,12.2554141 26.838843,11.5478991 26.8387097,10.8387097 Z" id="Path" fill="url(#linearGradient-12)"></path>
                <path d="M25.0477419,7.04980645 C25.2960324,7.64164778 25.4851684,8.25659893 25.6123871,8.88567742 L26.624,8.67922581 C26.4831352,7.98357137 26.2741272,7.30347431 26,6.64877419 L25.0477419,7.04980645 Z" id="Path" fill="url(#linearGradient-13)"></path>
                <path d="M22.9083871,3.87870968 C23.3642148,4.33136403 23.7749236,4.82729137 24.1347097,5.35948387 L24.9899355,4.78193548 C24.5925728,4.19476171 24.1389928,3.64766539 23.6356129,3.1483871 L22.9083871,3.87870968 Z" id="Path" fill="url(#linearGradient-14)"></path>
                <path d="M22.0283871,19.8477419 C22.6173789,19.4523911 23.1665423,19.0007185 23.668129,18.4990968 L22.9378065,17.7692903 C22.4838728,18.2236703 21.9865315,18.6325032 21.4529032,18.9899355 L22.0283871,19.8477419 Z" id="Path" fill="url(#linearGradient-15)"></path>
                <path d="M16,1.03225806 C16.6315739,1.03223489 17.2617055,1.09255193 17.8818065,1.2123871 L18.0789677,0.199225806 C17.3939208,0.0666478453 16.697758,-6.4879648e-05 16,-9.16829309e-16 L15.9674839,-4.72768319e-08 L16,1.03225806 Z" id="Path" fill="url(#linearGradient-16)"></path>
                <path d="M12.2203871,1.78683871 C12.8125087,1.53945466 13.4276262,1.35118515 14.0567742,1.22477419 L13.8534194,0.212645161 C13.1575811,0.352490649 12.4772805,0.560816511 11.8224516,0.834580645 L12.2203871,1.78683871 Z" id="Path" fill="url(#linearGradient-17)"></path>
                <path d="M26.0170323,14.9847742 L25.0637419,14.5899355 C24.816965,15.1829767 24.5125358,15.7503455 24.1548387,16.283871 L25.0131613,16.8578065 C25.4080463,16.2676819 25.7442703,15.6403519 26.0170323,14.9847742 L26.0170323,14.9847742 Z" id="Path" fill="url(#linearGradient-18)"></path>
                <path d="M19.7218065,1.76309677 C20.3157439,2.00729093 20.8843124,2.30912142 21.4193548,2.66425806 L21.9896774,1.80645161 C21.3987414,1.41355492 20.7704964,1.07989702 20.1140645,0.810322581 L19.7218065,1.76309677 Z" id="Path" fill="url(#linearGradient-19)"></path>
            </g>
        </g>
    </g>
</svg>