<?xml version="1.0" encoding="UTF-8"?>
<svg width="377px" height="300px" viewBox="0 0 377 300" version="1.1" xmlns="http://www.w3.org/2000/svg" xmlns:xlink="http://www.w3.org/1999/xlink">
    <!-- Generator: Sketch 49.2 (51160) - http://www.bohemiancoding.com/sketch -->
    <title>undraw_data_xmfy</title>
    <desc>Created with Sketch.</desc>
    <defs>
        <linearGradient x1="50%" y1="100%" x2="50%" y2="0%" id="linearGradient-1">
            <stop stop-color="#808080" stop-opacity="0.25" offset="0%"></stop>
            <stop stop-color="#808080" stop-opacity="0.12" offset="54%"></stop>
            <stop stop-color="#808080" stop-opacity="0.1" offset="100%"></stop>
        </linearGradient>
        <linearGradient x1="22762%" y1="37300%" x2="22762%" y2="36200%" id="linearGradient-2">
            <stop stop-color="#808080" stop-opacity="0.25" offset="0%"></stop>
            <stop stop-color="#808080" stop-opacity="0.12" offset="54%"></stop>
            <stop stop-color="#808080" stop-opacity="0.1" offset="100%"></stop>
        </linearGradient>
        <linearGradient x1="22762%" y1="42900%" x2="22762%" y2="41800%" id="linearGradient-3">
            <stop stop-color="#808080" stop-opacity="0.25" offset="0%"></stop>
            <stop stop-color="#808080" stop-opacity="0.12" offset="54%"></stop>
            <stop stop-color="#808080" stop-opacity="0.1" offset="100%"></stop>
        </linearGradient>
        <linearGradient x1="32962%" y1="42900%" x2="32962%" y2="41800%" id="linearGradient-4">
            <stop stop-color="#808080" stop-opacity="0.25" offset="0%"></stop>
            <stop stop-color="#808080" stop-opacity="0.12" offset="54%"></stop>
            <stop stop-color="#808080" stop-opacity="0.1" offset="100%"></stop>
        </linearGradient>
        <linearGradient x1="33662%" y1="8300%" x2="33662%" y2="7200%" id="linearGradient-5">
            <stop stop-color="#808080" stop-opacity="0.25" offset="0%"></stop>
            <stop stop-color="#808080" stop-opacity="0.12" offset="54%"></stop>
            <stop stop-color="#808080" stop-opacity="0.1" offset="100%"></stop>
        </linearGradient>
        <linearGradient x1="33662%" y1="9800%" x2="33662%" y2="8700%" id="linearGradient-6">
            <stop stop-color="#808080" stop-opacity="0.25" offset="0%"></stop>
            <stop stop-color="#808080" stop-opacity="0.12" offset="54%"></stop>
            <stop stop-color="#808080" stop-opacity="0.1" offset="100%"></stop>
        </linearGradient>
        <linearGradient x1="33662%" y1="11300%" x2="33662%" y2="10200%" id="linearGradient-7">
            <stop stop-color="#808080" stop-opacity="0.25" offset="0%"></stop>
            <stop stop-color="#808080" stop-opacity="0.12" offset="54%"></stop>
            <stop stop-color="#808080" stop-opacity="0.1" offset="100%"></stop>
        </linearGradient>
        <linearGradient x1="33662%" y1="12800%" x2="33662%" y2="11700%" id="linearGradient-8">
            <stop stop-color="#808080" stop-opacity="0.25" offset="0%"></stop>
            <stop stop-color="#808080" stop-opacity="0.12" offset="54%"></stop>
            <stop stop-color="#808080" stop-opacity="0.1" offset="100%"></stop>
        </linearGradient>
        <linearGradient x1="21412%" y1="33200%" x2="21412%" y2="18200%" id="linearGradient-9">
            <stop stop-color="#808080" stop-opacity="0.25" offset="0%"></stop>
            <stop stop-color="#808080" stop-opacity="0.12" offset="54%"></stop>
            <stop stop-color="#808080" stop-opacity="0.1" offset="100%"></stop>
        </linearGradient>
        <linearGradient x1="38390%" y1="43530%" x2="38390%" y2="28330%" id="linearGradient-10">
            <stop stop-color="#808080" stop-opacity="0.25" offset="0%"></stop>
            <stop stop-color="#808080" stop-opacity="0.12" offset="54%"></stop>
            <stop stop-color="#808080" stop-opacity="0.1" offset="100%"></stop>
        </linearGradient>
        <linearGradient x1="44290%" y1="32130%" x2="44290%" y2="30730%" id="linearGradient-11">
            <stop stop-color="#808080" stop-opacity="0.25" offset="0%"></stop>
            <stop stop-color="#808080" stop-opacity="0.12" offset="54%"></stop>
            <stop stop-color="#808080" stop-opacity="0.1" offset="100%"></stop>
        </linearGradient>
        <linearGradient x1="48490%" y1="31730%" x2="48490%" y2="30330%" id="linearGradient-12">
            <stop stop-color="#808080" stop-opacity="0.25" offset="0%"></stop>
            <stop stop-color="#808080" stop-opacity="0.12" offset="54%"></stop>
            <stop stop-color="#808080" stop-opacity="0.1" offset="100%"></stop>
        </linearGradient>
        <linearGradient x1="54796%" y1="41342%" x2="54796%" y2="41316%" id="linearGradient-13">
            <stop stop-color="#808080" stop-opacity="0.25" offset="0%"></stop>
            <stop stop-color="#808080" stop-opacity="0.12" offset="54%"></stop>
            <stop stop-color="#808080" stop-opacity="0.1" offset="100%"></stop>
        </linearGradient>
        <linearGradient x1="51763%" y1="58129%" x2="51763%" y2="40848%" id="linearGradient-14">
            <stop stop-color="#808080" stop-opacity="0.25" offset="0%"></stop>
            <stop stop-color="#808080" stop-opacity="0.12" offset="54%"></stop>
            <stop stop-color="#808080" stop-opacity="0.1" offset="100%"></stop>
        </linearGradient>
        <linearGradient x1="19131%" y1="42333%" x2="19131%" y2="42302%" id="linearGradient-15">
            <stop stop-color="#808080" stop-opacity="0.25" offset="0%"></stop>
            <stop stop-color="#808080" stop-opacity="0.12" offset="54%"></stop>
            <stop stop-color="#808080" stop-opacity="0.1" offset="100%"></stop>
        </linearGradient>
        <linearGradient x1="22823%" y1="61983%" x2="22823%" y2="41736%" id="linearGradient-16">
            <stop stop-color="#808080" stop-opacity="0.25" offset="0%"></stop>
            <stop stop-color="#808080" stop-opacity="0.12" offset="54%"></stop>
            <stop stop-color="#808080" stop-opacity="0.1" offset="100%"></stop>
        </linearGradient>
        <linearGradient x1="69200%" y1="65905%" x2="69200%" y2="16305%" id="linearGradient-17">
            <stop stop-color="#808080" stop-opacity="0.25" offset="0%"></stop>
            <stop stop-color="#808080" stop-opacity="0.12" offset="54%"></stop>
            <stop stop-color="#808080" stop-opacity="0.1" offset="100%"></stop>
        </linearGradient>
        <linearGradient x1="59512%" y1="39568%" x2="59512%" y2="24168%" id="linearGradient-18">
            <stop stop-color="#808080" stop-opacity="0.25" offset="0%"></stop>
            <stop stop-color="#808080" stop-opacity="0.12" offset="54%"></stop>
            <stop stop-color="#808080" stop-opacity="0.1" offset="100%"></stop>
        </linearGradient>
        <linearGradient x1="78812%" y1="47268%" x2="78812%" y2="31868%" id="linearGradient-19">
            <stop stop-color="#808080" stop-opacity="0.25" offset="0%"></stop>
            <stop stop-color="#808080" stop-opacity="0.12" offset="54%"></stop>
            <stop stop-color="#808080" stop-opacity="0.1" offset="100%"></stop>
        </linearGradient>
        <linearGradient x1="69612%" y1="61468%" x2="69612%" y2="50868%" id="linearGradient-20">
            <stop stop-color="#808080" stop-opacity="0.25" offset="0%"></stop>
            <stop stop-color="#808080" stop-opacity="0.12" offset="54%"></stop>
            <stop stop-color="#808080" stop-opacity="0.1" offset="100%"></stop>
        </linearGradient>
        <linearGradient x1="74912%" y1="47515%" x2="74912%" y2="35115%" id="linearGradient-21">
            <stop stop-color="#808080" stop-opacity="0.25" offset="0%"></stop>
            <stop stop-color="#808080" stop-opacity="0.12" offset="54%"></stop>
            <stop stop-color="#808080" stop-opacity="0.1" offset="100%"></stop>
        </linearGradient>
        <linearGradient x1="79062%" y1="36268%" x2="79062%" y2="34468%" id="linearGradient-22">
            <stop stop-color="#808080" stop-opacity="0.25" offset="0%"></stop>
            <stop stop-color="#808080" stop-opacity="0.12" offset="54%"></stop>
            <stop stop-color="#808080" stop-opacity="0.1" offset="100%"></stop>
        </linearGradient>
        <linearGradient x1="76062%" y1="69968%" x2="76062%" y2="67768%" id="linearGradient-23">
            <stop stop-color="#808080" stop-opacity="0.25" offset="0%"></stop>
            <stop stop-color="#808080" stop-opacity="0.12" offset="54%"></stop>
            <stop stop-color="#808080" stop-opacity="0.1" offset="100%"></stop>
        </linearGradient>
        <linearGradient x1="60762%" y1="68768%" x2="60762%" y2="56668%" id="linearGradient-24">
            <stop stop-color="#808080" stop-opacity="0.25" offset="0%"></stop>
            <stop stop-color="#808080" stop-opacity="0.12" offset="54%"></stop>
            <stop stop-color="#808080" stop-opacity="0.1" offset="100%"></stop>
        </linearGradient>
        <linearGradient x1="60862%" y1="64868%" x2="60862%" y2="64868%" id="linearGradient-25">
            <stop stop-color="#808080" stop-opacity="0.25" offset="0%"></stop>
            <stop stop-color="#808080" stop-opacity="0.12" offset="54%"></stop>
            <stop stop-color="#808080" stop-opacity="0.1" offset="100%"></stop>
        </linearGradient>
        <linearGradient x1="48212%" y1="64568%" x2="48212%" y2="59068%" id="linearGradient-26">
            <stop stop-color="#808080" stop-opacity="0.25" offset="0%"></stop>
            <stop stop-color="#808080" stop-opacity="0.12" offset="54%"></stop>
            <stop stop-color="#808080" stop-opacity="0.1" offset="100%"></stop>
        </linearGradient>
        <linearGradient x1="45962%" y1="69968%" x2="45962%" y2="67768%" id="linearGradient-27">
            <stop stop-color="#808080" stop-opacity="0.25" offset="0%"></stop>
            <stop stop-color="#808080" stop-opacity="0.12" offset="54%"></stop>
            <stop stop-color="#808080" stop-opacity="0.1" offset="100%"></stop>
        </linearGradient>
        <linearGradient x1="48635%" y1="70879%" x2="60065%" y2="70879%" id="linearGradient-28">
            <stop stop-color="#808080" stop-opacity="0.25" offset="0%"></stop>
            <stop stop-color="#808080" stop-opacity="0.12" offset="54%"></stop>
            <stop stop-color="#808080" stop-opacity="0.1" offset="100%"></stop>
        </linearGradient>
    </defs>
    <g id="Backend-Project-Screens" stroke="none" stroke-width="1" fill="none" fill-rule="evenodd">
        <g id="Success" transform="translate(-202.000000, -296.000000)">
            <g id="undraw_data_xmfy" transform="translate(202.000000, 296.000000)">
                <ellipse id="Oval" fill="#F2F2F2" fill-rule="nonzero" cx="156.5" cy="293" rx="28.5" ry="7"></ellipse>
                <ellipse id="Oval" fill="#F2F2F2" fill-rule="nonzero" cx="158.5" cy="214" rx="28.5" ry="7"></ellipse>
                <ellipse id="Oval" fill="#F2F2F2" fill-rule="nonzero" cx="28.5" cy="217" rx="28.5" ry="7"></ellipse>
                <rect id="Rectangle-path" fill="#F5F5F5" fill-rule="nonzero" x="10" y="2" width="162" height="6"></rect>
                <rect id="Rectangle-path" fill="url(#linearGradient-1)" fill-rule="nonzero" x="7" y="0" width="168" height="205"></rect>
                <rect id="Rectangle-path" fill="#FFFFFF" fill-rule="nonzero" x="10" y="8" width="162" height="194"></rect>
                <circle id="Oval" fill="#FF5252" fill-rule="nonzero" cx="12.5" cy="4.5" r="1.5"></circle>
                <circle id="Oval" fill="#FFFF00" fill-rule="nonzero" cx="16.5" cy="4.5" r="1.5"></circle>
                <circle id="Oval" fill="#69F0AE" fill-rule="nonzero" cx="21.5" cy="4.5" r="1.5"></circle>
                <g id="Group" opacity="0.2" transform="translate(14.000000, 15.000000)" fill="#6C63FF" fill-rule="nonzero">
                    <rect id="Rectangle-path" x="0.2604" y="0" width="62.58" height="4"></rect>
                </g>
                <rect id="Rectangle-path" fill="#F5F5F5" fill-rule="nonzero" x="59" y="31" width="63" height="4"></rect>
                <rect id="Rectangle-path" fill="#6C63FF" fill-rule="nonzero" opacity="0.5" x="14" y="153" width="63" height="4"></rect>
                <rect id="Rectangle-path" fill="url(#linearGradient-2)" fill-rule="nonzero" x="86" y="153" width="21" height="5"></rect>
                <rect id="Rectangle-path" fill="url(#linearGradient-3)" fill-rule="nonzero" x="86" y="177" width="21" height="5"></rect>
                <rect id="Rectangle-path" fill="url(#linearGradient-4)" fill-rule="nonzero" x="129" y="177" width="21" height="5"></rect>
                <rect id="Rectangle-path" fill="#6C63FF" fill-rule="nonzero" x="87" y="153" width="20" height="4"></rect>
                <rect id="Rectangle-path" fill="#6C63FF" fill-rule="nonzero" x="87" y="177" width="20" height="4"></rect>
                <rect id="Rectangle-path" fill="#6C63FF" fill-rule="nonzero" x="129" y="177" width="20" height="4"></rect>
                <rect id="Rectangle-path" fill="#F5F5F5" fill-rule="nonzero" x="14" y="165" width="63" height="4"></rect>
                <rect id="Rectangle-path" fill="#6C63FF" fill-rule="nonzero" opacity="0.5" x="87" y="165" width="63" height="4"></rect>
                <rect id="Rectangle-path" fill="#F5F5F5" fill-rule="nonzero" x="87" y="189" width="63" height="4"></rect>
                <rect id="Rectangle-path" fill="#6C63FF" fill-rule="nonzero" opacity="0.5" x="14" y="177" width="63" height="4"></rect>
                <rect id="Rectangle-path" fill="#F5F5F5" fill-rule="nonzero" x="14" y="189" width="63" height="4"></rect>
                <rect id="Rectangle-path" fill="#F5F5F5" fill-rule="nonzero" x="59" y="37" width="36" height="4"></rect>
                <rect id="Rectangle-path" fill="#F5F5F5" fill-rule="nonzero" x="101" y="37" width="12" height="4"></rect>
                <rect id="Rectangle-path" fill="#F5F5F5" fill-rule="nonzero" x="59" y="50" width="36" height="4"></rect>
                <rect id="Rectangle-path" fill="#F5F5F5" fill-rule="nonzero" x="101" y="50" width="12" height="4"></rect>
                <rect id="Rectangle-path" fill="#F5F5F5" fill-rule="nonzero" x="59" y="44" width="63" height="4"></rect>
                <g id="Group" opacity="0.2" transform="translate(103.000000, 15.000000)" fill="#6C63FF" fill-rule="nonzero">
                    <rect id="Rectangle-path" x="0.2604" y="0" width="62.58" height="4"></rect>
                </g>
                <rect id="Rectangle-path" fill="url(#linearGradient-5)" fill-rule="nonzero" x="139" y="30" width="8" height="5"></rect>
                <rect id="Rectangle-path" fill="url(#linearGradient-6)" fill-rule="nonzero" x="139" y="37" width="8" height="5"></rect>
                <rect id="Rectangle-path" fill="url(#linearGradient-7)" fill-rule="nonzero" x="139" y="43" width="8" height="5"></rect>
                <rect id="Rectangle-path" fill="#FF5252" fill-rule="nonzero" x="139" y="31" width="7" height="4"></rect>
                <rect id="Rectangle-path" fill="#FF9800" fill-rule="nonzero" x="139" y="37" width="7" height="4"></rect>
                <rect id="Rectangle-path" fill="#69F0AE" fill-rule="nonzero" x="139" y="44" width="7" height="4"></rect>
                <rect id="Rectangle-path" fill="url(#linearGradient-8)" fill-rule="nonzero" x="139" y="49" width="8" height="5"></rect>
                <rect id="Rectangle-path" fill="#6C63FF" fill-rule="nonzero" x="139" y="50" width="7" height="4"></rect>
                <rect id="Rectangle-path" fill="url(#linearGradient-9)" fill-rule="nonzero" x="13" y="77" width="155" height="63"></rect>
                <rect id="Rectangle-path" fill="#6C63FF" fill-rule="nonzero" opacity="0.5" x="14" y="78" width="152" height="60"></rect>
                <polygon id="Shape" fill="#FFFFFF" fill-rule="nonzero" opacity="0.5" points="18.6573816 82.6478873 166 82.6478873 166 78 14 78 14 138 18.6573816 138"></polygon>
                <rect id="Rectangle-path" fill="url(#linearGradient-10)" fill-rule="nonzero" transform="translate(94.500000, 112.000000) rotate(-5.200000) translate(-94.500000, -112.000000) " x="16" y="80" width="157" height="64"></rect>
                <rect id="Rectangle-path" fill="#FFFFFF" fill-rule="nonzero" transform="translate(95.000000, 112.000000) rotate(-5.200000) translate(-95.000000, -112.000000) " x="19" y="82" width="152" height="60"></rect>
                <path d="M27.6237833,137 L25,103.994094 C25,103.994094 38.5421075,89.7475429 65.880237,100.306751 C93.2183665,110.865959 106.10876,103.411661 110.552264,96.2800055 C114.995768,89.1483497 138.05967,81.1954222 145.53322,93.1248135 C153.006771,105.054205 161.969953,91.6414961 161.969953,91.6414961 L165,124.605501 L27.6237833,137 Z" id="Shape" fill="#6C63FF" fill-rule="nonzero" opacity="0.5"></path>
                <path d="M42,104 L44,131" id="Shape" stroke="#6C63FF" stroke-dasharray="11.51"></path>
                <path d="M45,134 L45.275,137" id="Shape" stroke="#6C63FF"></path>
                <path d="M67,101 L67.275,104" id="Shape" stroke="#6C63FF"></path>
                <path d="M68,109 L70,128" id="Shape" stroke="#6C63FF" stroke-dasharray="13.06"></path>
                <path d="M70,131 L70.27,134" id="Shape" stroke="#6C63FF"></path>
                <path d="M94,106 L94.3,109" id="Shape" stroke="#6C63FF"></path>
                <path d="M95,112 L96,126" id="Shape" stroke="#6C63FF" stroke-dasharray="9.789999999999999"></path>
                <path d="M96,129 L96.295,132" id="Shape" stroke="#6C63FF"></path>
                <path d="M118,91 L118.27,94" id="Shape" stroke="#6C63FF"></path>
                <path d="M119,98 L121,124" id="Shape" stroke="#6C63FF" stroke-dasharray="11.28"></path>
                <path d="M136,95 L139,123" id="Shape" stroke="#6C63FF" stroke-dasharray="11.93"></path>
                <path d="M139,125 L139.275,128" id="Shape" stroke="#6C63FF"></path>
                <circle id="Oval" fill="#FF9800" fill-rule="nonzero" transform="translate(41.000000, 97.000000) rotate(-5.200000) translate(-41.000000, -97.000000) " cx="41" cy="97" r="2"></circle>
                <circle id="Oval" fill="#FF5252" fill-rule="nonzero" transform="translate(67.000000, 101.000000) rotate(-5.200000) translate(-67.000000, -101.000000) " cx="67" cy="101" r="2"></circle>
                <circle id="Oval" fill="#69F0AE" fill-rule="nonzero" transform="translate(94.000000, 106.000000) rotate(-5.200000) translate(-94.000000, -106.000000) " cx="94" cy="106" r="2"></circle>
                <circle id="Oval" fill="url(#linearGradient-11)" fill-rule="nonzero" transform="translate(118.000000, 91.000000) rotate(-5.200000) translate(-118.000000, -91.000000) " cx="118" cy="91" r="3"></circle>
                <circle id="Oval" fill="url(#linearGradient-12)" fill-rule="nonzero" transform="translate(135.000000, 88.000000) rotate(-5.200000) translate(-135.000000, -88.000000) " cx="135" cy="88" r="3"></circle>
                <circle id="Oval" fill="#6C63FF" fill-rule="nonzero" transform="translate(118.000000, 91.000000) rotate(-5.200000) translate(-118.000000, -91.000000) " cx="118" cy="91" r="2"></circle>
                <circle id="Oval" fill="#6C63FF" fill-rule="nonzero" transform="translate(135.000000, 87.000000) rotate(-5.200000) translate(-135.000000, -87.000000) " cx="135" cy="87" r="2"></circle>
                <circle id="Oval" fill="#69F0AE" fill-rule="nonzero" transform="translate(162.000000, 93.000000) rotate(-5.200000) translate(-162.000000, -93.000000) " cx="162" cy="93" r="2"></circle>
                <g id="Group" opacity="0.2" transform="translate(166.000000, 134.000000)" fill="url(#linearGradient-13)" fill-rule="nonzero">
                    <path d="M0.13,0.36 L0.165,0.475 C0.55,0.26 0.13,0.36 0.13,0.36 Z" id="Shape"></path>
                </g>
                <g id="Group" opacity="0.2" transform="translate(137.000000, 133.000000)" fill="url(#linearGradient-14)" fill-rule="nonzero">
                    <path d="M25.7992308,72.8734104 L32.6869231,71.7636416 L31.7392308,67.5439884 L31.7392308,67.4849133 L31.7138462,67.4849133 L26.8315385,45.1207514 L26.8315385,28.8117919 C26.8309721,28.6045856 26.819675,28.3975468 26.7976923,28.1915029 C34.0915385,18.5453757 29.7592308,3.40947977 29.3361538,2.08872832 C29.26,2.1267052 29.1457692,2.17734104 28.985,2.24063584 C28.9321594,1.65006412 28.8201912,1.06624931 28.6507692,0.497919075 C28.6507692,0.497919075 26.5353846,-0.843930636 25.3803846,0.881907514 C24.3734615,2.3883237 25.1223077,3.30820809 25.3296154,3.5234104 L25.1857692,3.56982659 C25.5099237,4.07792394 25.7365918,4.64167432 25.8542308,5.23236994 C25.7874337,5.0868719 25.7111151,4.94591264 25.6257692,4.81040462 C25.3592308,4.76398844 25.2026923,4.72179191 25.2026923,4.72179191 L25.1519231,4.67537572 L25.0080769,4.72179191 C25.74,5.78936416 25.9980769,7.67554913 25.9642308,9.91196532 C25.7114525,9.56287898 25.4283047,9.23670261 25.1180769,8.93722543 C23.7806863,7.66312997 22.0168193,6.92936462 20.1680769,6.87803468 L19.8169231,6.87803468 C19.6251282,6.87803468 19.4333333,6.89069364 19.2415385,6.91601156 L19.0976923,6.91601156 L18.8565385,6.94976879 L18.5815385,7.00040462 L18.3826923,7.04260116 L18.04,7.13543353 L17.9130769,7.1734104 C17.7692308,7.21982659 17.6296154,7.26624277 17.49,7.32109827 C17.0261926,7.54619628 16.5397532,7.72158987 16.0388462,7.84433526 C15.9711538,7.84433526 15.9034615,7.84433526 15.8315385,7.86543353 C15.2659925,7.90492868 14.7044943,7.74513547 14.245,7.41393064 L14.0926923,7.29578035 C14.0350748,7.24656069 13.9800037,7.19445103 13.9276923,7.13965318 C13.8702228,7.28586048 13.8456694,7.44287744 13.8557692,7.59959538 C13.8874899,7.97154491 14.0654346,8.31588095 14.3507692,8.55745665 C14.4308772,8.62666106 14.5189274,8.6861512 14.6130769,8.73468208 C14.7521619,8.80739717 14.9048749,8.85050428 15.0615385,8.86127168 L15.2223077,8.86127168 L15.1842308,8.86127168 C15.0869231,8.90768786 14.9896154,8.94988439 14.8880769,8.98786127 L14.8669231,8.98786127 C14.7569231,9.02583815 14.6511538,9.05959538 14.5369231,9.08913295 C13.9824916,9.22887625 13.4029999,9.23754578 12.8446154,9.11445087 L12.6626923,9.07225434 C12.5738462,9.04693642 12.4807692,9.0216185 12.3961538,8.99208092 C12.4239773,9.05551521 12.4550437,9.11748482 12.4892308,9.17774566 L12.5230769,9.23260116 L12.5992308,9.35075145 L12.6457692,9.40982659 L12.7303846,9.51531792 L12.7811538,9.57017341 L12.8869231,9.67566474 L12.9292308,9.71364162 L13.0857692,9.84445087 L13.1407692,9.88242775 L13.255,9.96260116 L13.3311538,10.0090173 L13.4326923,10.0680925 L13.5173077,10.110289 L13.6230769,10.1567052 L13.7119231,10.1946821 L13.8303846,10.2368786 L13.9784615,10.2790751 L14.0884615,10.3086127 L14.1942308,10.3086127 L14.2915385,10.3086127 L14.4015385,10.3086127 L14.8246154,10.3086127 C15.0429865,10.2896775 15.2570801,10.2370065 15.4592308,10.1524855 L15.07,10.3128324 L14.8753846,10.3803468 L14.6765385,10.4520809 L14.4776923,10.5111561 L14.2746154,10.5702312 L14.0757692,10.6208671 L13.8642308,10.6715029 L13.6696154,10.7094798 L13.4453846,10.7474566 L13.2592308,10.7769942 L13.0180769,10.8065318 L12.8446154,10.8065318 L12.5696154,10.8065318 L12.4257692,10.8065318 L12.0026923,10.8065318 C12.2365395,10.8743153 12.4539664,10.9892057 12.6415385,11.144104 C12.7627685,11.2314635 12.8950748,11.302409 13.035,11.3550867 C13.0974896,11.3732056 13.1610822,11.3873002 13.2253846,11.3972832 L13.2803846,11.3972832 L13.4157692,11.3972832 L13.9869231,11.3972832 L14.1730769,11.3972832 C14.5589052,11.4361514 14.932233,11.5554749 15.2688462,11.7475145 C15.4471649,11.8620048 15.6057498,12.0044987 15.7384615,12.1694798 C15.6792308,12.2665318 15.62,12.3593642 15.5692308,12.4606358 C15.5184615,12.5619075 15.4803846,12.629422 15.4380769,12.7180347 C15.3534615,12.892447 15.2787179,13.071079 15.2138462,13.2539306 C14.9729383,13.9094857 14.8497719,14.6022616 14.85,15.3004624 C14.85,15.4312717 14.85,15.5578613 14.85,15.6844509 C14.85,15.7182081 14.85,15.756185 14.85,15.7899422 C14.85,15.8912139 14.8612821,15.9924855 14.8838462,16.0937572 L14.8838462,16.1739306 C14.9007692,16.2977071 14.9233333,16.4200771 14.9515385,16.5410405 L14.9515385,16.6127746 C14.9741026,16.7140462 14.9994872,16.8139114 15.0276923,16.9123699 L15.0530769,17.0009827 C15.1242155,17.2396615 15.2104131,17.4736156 15.3111538,17.7014451 L15.3407692,17.7689595 C15.3887179,17.8730443 15.4380769,17.974316 15.4888462,18.0727746 L15.4888462,18.1023121 C15.5508974,18.2148362 15.6157692,18.3259538 15.6834615,18.4356647 L15.6834615,18.4609827 C15.7455128,18.5622543 15.8117949,18.6607129 15.8823077,18.7563584 L15.9076923,18.7901156 C16.0596504,18.9988822 16.224996,19.1976212 16.4026923,19.3850867 C16.8636184,19.86935 17.4027759,20.2730122 17.9976923,20.5792486 C17.9773908,20.6698017 17.9618567,20.7613528 17.9511538,20.853526 C17.9460236,20.9491031 17.9460236,21.0448854 17.9511538,21.1404624 L17.9511538,23.3684393 C17.8242308,23.4359538 17.7001282,23.5076879 17.5788462,23.5836416 C12.2776923,21.182659 4.38307692,4.17323699 4.38307692,4.17323699 L4.19269231,4.17323699 C4.96269231,3.59936416 4.19269231,1.10132948 4.19269231,1.10132948 C3.74072842,0.832572301 3.23536098,0.66551917 2.71192308,0.611849711 L2.28884615,0.611849711 L2.21269231,0.611849711 L2.15769231,0.611849711 L2.08153846,0.611849711 L2.03076923,0.611849711 L1.94615385,0.63716763 L1.90384615,0.63716763 L1.77692308,0.683583815 L1.65846154,0.738439306 L1.61615385,0.759537572 L1.53576923,0.805953757 L1.48076923,1.0633526 L1.40461538,1.11398844 L1.35807692,1.15196532 L1.28615385,1.21104046 L1.23961538,1.25323699 L1.16769231,1.32075145 L1.12538462,1.36716763 L1.05346154,1.45156069 L1.01961538,1.49375723 L0.913846154,1.63722543 C-0.241153846,3.36306358 0.913846154,4.32514451 0.913846154,4.32514451 C0.839481218,4.99063156 0.80416463,5.65988369 0.808076923,6.32947977 C0.723461538,18.760578 14.0630769,28.3940462 14.7442308,28.8750867 C14.4438462,29.6515029 11.9646154,36.5295376 14.7738462,45.1165318 C14.7826261,45.1375483 14.7939956,45.1573926 14.8076923,45.1756069 C8.29950092,51.1573865 5.44806948,60.1257465 7.31076923,68.7550289 L7.36576923,69.0124277 L7.48846154,69.0124277 C7.47588635,69.0694548 7.46035264,69.1257926 7.44192308,69.1812139 C7.40925738,69.2828766 7.36822017,69.3816717 7.31923077,69.4765896 C7.2347132,69.638842 7.13102695,69.7904212 7.01038462,69.9280925 C6.87923077,70.08 6.72692308,70.2319075 6.56615385,70.3880347 L6.39692308,70.5483815 C5.72423077,71.1897688 5.04307692,71.8142775 5.55076923,72.0674566 L12.8319231,72.0674566 L12.8319231,68.8984971 L12.9588462,68.8984971 C12.9588462,68.8984971 12.9080769,68.8014451 12.8319231,68.6115607 L12.8319231,68.5778035 L12.8065385,68.5778035 C12.4257692,67.5988439 11.5373077,64.5691329 12.9588462,59.9021965 C14.6892308,54.1423699 21.4203846,51.2645665 21.4203846,51.2645665 L21.5430769,51.6865318 L21.5176923,51.6865318 L26.7976923,68.9871098 C26.7976923,69.0546243 26.7976923,69.1221387 26.7765385,69.1938728 C26.7526815,69.3572509 26.7144572,69.5182185 26.6623077,69.6749133 C26.6218166,69.7959397 26.573774,69.9143212 26.5184615,70.0293642 C26.1926923,70.700289 25.63,71.4893642 25.3846154,72.0801156 C25.349495,72.1610443 25.3198141,72.2442146 25.2957692,72.3290751 C25.2667309,72.4246757 25.2566712,72.5250083 25.2661538,72.6244509 C25.2809458,72.7535366 25.3678399,72.8630952 25.4903846,72.9071676 L25.5876923,72.9071676 L25.7907692,72.8734104 L25.7992308,72.8734104 Z M23.76,23.6173988 C23.6274359,23.5442582 23.4864103,23.4753372 23.3369231,23.4106358 L23.3369231,21.3176879 C23.3357845,21.1576769 23.3202088,20.9980929 23.2903846,20.8408671 C23.7463017,20.6240499 24.172786,20.3503992 24.5596154,20.026474 C24.3057692,21.3176879 24.0223077,22.5540462 23.7642308,23.6173988 L23.76,23.6173988 Z" id="Shape"></path>
                </g>
                <path d="M137.617729,138.732766 C137.617729,138.732766 136.227839,137.729312 137.617729,135.921501 C139.007619,134.11369 141.588181,135.523305 141.588181,135.523305 C141.588181,135.523305 142.514774,138.13149 141.588181,138.732766 C140.661588,139.334042 137.617729,138.732766 137.617729,138.732766 Z" id="Shape" fill="#CA7070" fill-rule="nonzero"></path>
                <path d="M151,210 L145.307851,210 C145.350486,210.573775 145.154463,211.138696 144.771011,211.547129 C144.004681,212.483207 142.463826,213.614301 143.189175,214 L151,214 L151,210 Z" id="cbb1ca8a-3a06-4d8d-9881-c3637d2b9b50" fill="#00695C" fill-rule="nonzero"></path>
                <path d="M145.402303,211.547129 C145.8247,211.138696 146.040631,210.573775 145.993667,210 L145.542244,210 C145.589208,210.573775 145.373277,211.138696 144.95088,211.547129 C144.10672,212.483207 142.40937,213.614301 143.208389,214 L143.659811,214 C142.860793,213.614301 144.558143,212.487541 145.402303,211.547129 Z" id="Shape" fill="#FFFFFF" fill-rule="nonzero" opacity="0.2"></path>
                <path d="M171.953575,209 L166.597855,209.889045 C166.745936,210.54129 166.659661,211.226252 166.354787,211.81882 C165.769778,213.082865 164.455567,214.658708 165.246565,215 L173,213.735955 L171.953575,209 Z" id="ec846da8-b8c9-4838-98ee-b96510078eab" fill="#00695C" fill-rule="nonzero"></path>
                <path d="M169.17298,136.014933 C169.17298,136.014933 175.349137,155.958806 164.990472,167 L162,164.657413 C162,164.657413 168.122162,142.889638 164.695579,137.779313 C170.742978,135.717326 169.17298,136.014933 169.17298,136.014933 Z" id="Shape" fill="#00695C" fill-rule="nonzero"></path>
                <path d="M164.617729,137.732766 C164.617729,137.732766 163.227839,136.729312 164.617729,134.921501 C166.007619,133.11369 168.588181,134.523305 168.588181,134.523305 C168.588181,134.523305 169.514774,137.13149 168.588181,137.732766 C167.661588,138.334042 164.617729,137.732766 164.617729,137.732766 Z" id="Shape" fill="#CA7070" fill-rule="nonzero"></path>
                <path d="M166.778562,211.83415 C167.08648,211.242464 167.173355,210.558218 167.023252,209.906928 L172,209.06718 L172,209 L166.608523,209.906928 C166.757593,210.556891 166.670741,211.239456 166.363833,211.829951 C165.774917,213.089573 164.451932,214.659902 165.248211,215 L165.575847,214.945416 C164.982785,214.525542 166.21453,213.018195 166.778562,211.83415 Z" id="Shape" fill="#FFFFFF" fill-rule="nonzero" opacity="0.2"></path>
                <rect id="Rectangle-path" fill="#CA7070" fill-rule="nonzero" x="157" y="155" width="6" height="9" rx="3"></rect>
                <path d="M162.575002,165.68337 C162.575002,165.68337 168.119395,144.383007 165.099681,139.147422 C164.833124,139.092665 164.661765,139.050545 164.661765,139.050545 L164.612262,139 L164.471367,139.050545 C167.612936,144.105011 162,165.679158 162,165.679158 L164.741733,168 L164.981634,167.71358 L162.575002,165.68337 Z" id="Shape" fill="#FFFFFF" fill-rule="nonzero" opacity="0.2"></path>
                <circle id="Oval" fill="#CA7070" fill-rule="nonzero" cx="159.5" cy="151.5" r="6.5"></circle>
                <path d="M157.277424,160.999426 L157.277424,158.118936 C157.277668,157.908144 157.300414,157.69798 157.345276,157.492006 C154.685999,156.127754 153.271086,153.153359 153.891852,150.232299 C154.512618,147.311239 157.015204,145.167499 160,145 L159.626812,145 C156.568493,144.99904 153.907077,147.089598 153.186912,150.058581 C152.466747,153.027564 153.875066,156.103075 156.594659,157.500478 C156.549797,157.706452 156.527051,157.916616 156.526807,158.127408 L156.526807,161.007898 C156.518999,161.868435 156.885851,162.689911 157.532103,163.259015 C158.178355,163.828119 159.04025,164.088706 159.893981,163.973108 C158.39767,163.779394 157.277695,162.506558 157.277424,160.999426 Z" id="Shape" fill="#FFFFFF" fill-rule="nonzero" opacity="0.2"></path>
                <path d="M167,183.369962 C167,183.369962 153.979673,184.787547 153.5,183.369962 C150.125,173.388493 153.5,165.512554 153.5,165.512554 C153.5,161.91577 156.522078,159 160.25,159 C163.977922,159 167,161.91577 167,165.512554 L167,183.369962 Z" id="Shape" fill="#00695C" fill-rule="nonzero"></path>
                <path d="M166.237136,184 L172,210 L166.237136,210 L160.262559,190.711154 C160.262559,190.711154 152.793278,193.856617 150.875146,200.147544 C148.957015,206.43847 150.875146,210 150.875146,210 L144.68462,210 L144.621105,209.717075 C142.548552,200.288999 145.743103,190.489903 153.004992,184" id="Shape" fill="#263238" fill-rule="nonzero"></path>
                <path d="M154.455315,183.356002 C150.956753,173.375127 154.455315,165.499659 154.455315,165.499659 C154.45468,162.066133 157.318501,159.222014 161,159 C160.852173,159 160.699867,159 160.552041,159 C156.687636,159 153.554916,161.915596 153.554916,165.512166 C153.554916,165.512166 150.056354,173.391804 153.554916,183.368509 C153.7341,183.877142 155.579693,184.018892 157.873244,183.998046 C156.009733,183.960524 154.598662,183.79376 154.455315,183.356002 Z" id="Shape" fill="#FFFFFF" fill-rule="nonzero" opacity="0.2"></path>
                <path d="M153.525265,166 C153.525265,166 136.409065,154.094688 138.12026,139 L141.971511,139 C141.971511,139 151.168656,158.790156 157.062301,160.688594 C162.955947,162.587031 153.525265,166 153.525265,166 Z" id="Shape" fill="#00695C" fill-rule="nonzero"></path>
                <g id="Group" opacity="0.2" transform="translate(144.000000, 184.000000)" fill="#FFFFFF" fill-rule="nonzero">
                    <path d="M16.2296364,7.56421875 L22.0214545,26.76375 L22.8578182,26.76375 L16.9572727,7.205625 C16.9572727,7.205625 16.6854545,7.32375 16.2296364,7.56421875 Z" id="Shape"></path>
                    <path d="M9.798,0.40078125 L8.96163636,0.40078125 C1.78973142,6.98128534 -1.3652352,16.9171797 0.681636364,26.476875 L0.744363636,26.76375 L1.58072727,26.76375 L1.518,26.476875 C-0.528871563,16.9171797 2.62609506,6.98128534 9.798,0.40078125 Z" id="Shape"></path>
                </g>
                <path d="M138.762248,139 L138.119,139 C136.41503,154.094687 153.574008,166 153.574008,166 L154,165.839687 C152.010615,164.384219 137.156257,153.090625 138.762248,139 Z" id="Shape" fill="#FFFFFF" fill-rule="nonzero" opacity="0.2"></path>
                <path d="M154.42788,148.713208 C154.792339,149.579368 155.04829,150.489709 155.189576,151.422325 C155.60809,153.308801 156.553932,155.190971 158.181953,156.160051 C159.083653,156.663409 160.086392,156.944982 161.111552,156.982692 C162.668425,157.081754 164.355037,156.771648 165.45573,155.634594 C166.141286,154.864295 166.60121,153.910192 166.78242,152.882406 C167.451552,149.79735 166.554962,146.573572 164.401074,144.320044 C162.180036,142.11265 158.925999,141.411076 156.03079,142.515401 C155.523933,142.770582 154.992246,142.969815 154.444621,143.10977 C153.593725,143.250035 152.729849,142.954226 152.130237,142.317278 C151.992555,142.775905 152.075995,143.274625 152.354795,143.659454 C152.633595,144.044282 153.074222,144.268936 153.54063,144.264052 C152.563662,144.746735 151.440034,144.808738 150.418514,144.436333 C151.013158,145.725495 152.473181,146.324634 153.766628,145.810274 C152.581958,146.352972 151.296583,146.623413 150,146.602766 C150.272034,146.602766 150.803547,147.119609 151.134173,147.222977 C151.549314,147.290838 151.969437,147.321103 152.389716,147.313425 C153.264302,147.368772 154.042602,147.903298 154.42788,148.713208 Z" id="Shape" fill="#263238" fill-rule="nonzero"></path>
                <g id="Group" opacity="0.2" transform="translate(150.000000, 142.000000)" fill="#FFFFFF" fill-rule="nonzero">
                    <path d="M4.00833333,2.3 C3.50674055,2.53356757 2.961572,2.66815959 2.405,2.69583333 C3.10909133,2.73056003 3.81095673,2.59443964 4.446,2.3 C4.01763036,2.30246527 3.60781393,2.13210248 3.31622935,1.83034855 C3.02464477,1.52859463 2.87801339,1.12310285 2.912,0.7125 C2.78141264,0.624925479 2.65955708,0.525889936 2.548,0.416666667 C2.40544286,0.860348592 2.49183745,1.34281549 2.78050906,1.7151037 C3.06918068,2.0873919 3.52540963,2.30472482 4.00833333,2.3 Z" id="Shape"></path>
                    <path d="M5.37766667,1.19583333 C5.94468273,1.06043946 6.49519593,0.867698392 7.02,0.620833333 C7.84882385,0.306206261 8.7291392,0.135504087 9.62,0.116666667 C8.58372629,0.0842596744 7.55149652,0.255825336 6.58666667,0.620833333 C6.0618626,0.867698392 5.5113494,1.06043946 4.94433333,1.19583333 C4.86633333,1.19583333 4.78833333,1.19583333 4.71033333,1.22083333 C4.93297055,1.24011877 5.15726483,1.23171614 5.37766667,1.19583333 Z" id="Shape"></path>
                    <path d="M1.91533333,5.175 C1.573,5.07916667 1.02266667,4.58333333 0.741,4.575 C2.08349361,4.59497408 3.41438274,4.3333463 4.641,3.80833333 C4.36577846,3.91746979 4.07196294,3.97679793 3.77433333,3.98333333 C2.66887821,4.39231143 1.49197465,4.59317718 0.307666667,4.575 C0.589333333,4.575 1.13966667,5.075 1.482,5.175 C1.7795617,5.24453962 2.08668001,5.26844535 2.392,5.24583333 C2.23062488,5.24180946 2.07044293,5.2180062 1.91533333,5.175 Z" id="Shape"></path>
                    <path d="M12.2763333,14.6166667 C11.2148736,14.5801848 10.1766284,14.307788 9.243,13.8208333 C7.55733333,12.875 6.59533333,11.0541667 6.14466667,9.2375 C5.99837805,8.33527596 5.73336355,7.45460118 5.356,6.61666667 C4.95023331,5.82888169 4.13283856,5.31394467 3.21966667,5.27083333 C3.0033013,5.25529537 2.78603203,5.25529537 2.56966667,5.27083333 L2.782,5.27083333 C3.6951719,5.31394467 4.51256665,5.82888169 4.91833333,6.61666667 C5.29569688,7.45460118 5.56071138,8.33527596 5.707,9.2375 C6.14033333,11.0625 7.11966667,12.8833333 8.80533333,13.8208333 C9.73896176,14.307788 10.7772069,14.5801848 11.8386667,14.6166667 C12.09,14.6166667 12.3413333,14.6166667 12.597,14.6166667 L12.2763333,14.6166667 Z" id="Shape"></path>
                    <path d="M3.50133333,3.96666667 C2.56992627,3.90194076 1.73544598,3.3894801 1.28266667,2.60416667 C1.11073475,2.56899126 0.941374585,2.52306024 0.775666667,2.46666667 C1.27201907,3.46248532 2.35695219,4.05955014 3.50133333,3.96666667 Z" id="Shape"></path>
                </g>
                <path d="M137.963745,138.737146 C137.963745,138.737146 136.724644,137.733524 137.963745,135.92541 C138.297604,135.400534 138.871872,135.061485 139.50849,135.013388 C138.727569,134.924872 137.964159,135.280503 137.550711,135.92541 C136.311611,137.733524 137.550711,138.737146 137.550711,138.737146 C138.35474,138.910724 139.176067,138.998868 140,139 C139.314843,138.967195 138.633724,138.879272 137.963745,138.737146 Z" id="Shape" fill="#FFFFFF" fill-rule="nonzero" opacity="0.2"></path>
                <g id="Group" opacity="0.2" transform="translate(15.000000, 139.000000)" fill="url(#linearGradient-15)" fill-rule="nonzero">
                    <path d="M0.485,0.425 L0.525,0.29 C0.525,0.29 0.015,0.19 0.485,0.425 Z" id="Shape"></path>
                </g>
                <g id="Group" opacity="0.2" transform="translate(6.000000, 136.000000)" fill="url(#linearGradient-16)" fill-rule="nonzero">
                    <path d="M49.6581197,9.95323529 C49.6169494,9.81890342 49.5655201,9.68784198 49.5042735,9.56117647 C49.5042735,9.51901961 49.4615385,9.48529412 49.4401709,9.44735294 C49.4014327,9.37207617 49.3586364,9.29889953 49.3119658,9.22813725 L49.2264957,9.11852941 C49.1823235,9.06141796 49.135255,9.00654412 49.0854701,8.95411765 L48.9871795,8.85715686 C48.9358974,8.81078431 48.8846154,8.76862745 48.8333333,8.73068627 L48.7264957,8.65480392 L48.5555556,8.55362745 L48.4487179,8.49882353 L48.2564103,8.41872549 L48.1581197,8.38078431 C48.0669516,8.34986928 47.974359,8.32457516 47.8803419,8.30490196 C47.2585385,8.18892228 46.6187256,8.20617485 46.0042735,8.3554902 C46.0042735,8.3554902 44.2136752,10.9607843 44.9017094,11.8966667 L44.6752137,11.8292157 C44.6752137,11.8292157 31.3717949,26.4745098 23.8675214,29.1936275 C23.6766382,29.0643464 23.4786325,28.9434967 23.2735043,28.8310784 L23.2735043,26.0908824 C23.2797528,25.975736 23.2797528,25.8603424 23.2735043,25.7451961 C23.2606368,25.6361258 23.2420939,25.5277802 23.2179487,25.4205882 L23.2735043,25.3910784 L23.4957265,25.2688235 L23.8162393,25.074902 L24.0213675,24.9442157 C24.1752137,24.8402288 24.3176638,24.7306209 24.4487179,24.6153922 L24.6153846,24.4720588 C24.7179487,24.3877451 24.8162393,24.2992157 24.9102564,24.2064706 L25.0811966,24.0420588 C25.2008547,23.9212092 25.3148148,23.797549 25.4230769,23.6710784 L25.542735,23.5277451 C25.6452991,23.4012745 25.7435897,23.2719935 25.8376068,23.139902 L25.957265,22.9628431 C26.042735,22.8335621 26.1239316,22.7014706 26.2008547,22.5665686 L26.2777778,22.4358824 C26.3717949,22.2630392 26.4615385,22.0817647 26.5384615,21.8962745 L26.6068376,21.7318627 C26.6666667,21.5829085 26.7222222,21.432549 26.7735043,21.2807843 C26.7735043,21.2259804 26.8119658,21.1753922 26.8247863,21.1205882 C26.8846154,20.922451 26.9401709,20.7243137 26.982906,20.5177451 C26.982906,20.4755882 26.982906,20.4376471 27.0042735,20.3954902 C27.0384615,20.2240523 27.0655271,20.0498039 27.0854701,19.8727451 C27.0854701,19.8137255 27.0854701,19.7547059 27.0854701,19.6956863 C27.0854701,19.4806863 27.1196581,19.2741176 27.1196581,19.0422549 C27.1198617,17.4019683 26.5496671,15.8112504 25.5042735,14.5356863 C26.0726496,13.6588235 26.4444444,13.1402941 26.4444444,13.1402941 C26.1025641,12.9084314 25.7649573,12.6976471 25.4316239,12.4910784 L25.1068376,12.3013725 C24.8846154,12.1706863 24.6794872,12.04 24.4401709,11.9219608 L24.0683761,11.7280392 C23.8675214,11.6226471 23.6709402,11.5214706 23.474359,11.4287255 L23.0940171,11.2558824 L22.525641,11.0113725 L22.1538462,10.8638235 C21.965812,10.7921569 21.7777778,10.7247059 21.5940171,10.6614706 L21.2435897,10.5434314 C21.0512821,10.4844118 20.8589744,10.4296078 20.6709402,10.3790196 L20.3589744,10.2947059 C20.1452991,10.2441176 19.9316239,10.2019608 19.7222222,10.1598039 L19.4957265,10.1134314 C19.2094017,10.0628431 18.9273504,10.024902 18.6410256,9.99960784 C16.8923506,9.8147604 15.1250138,10.0820857 13.5128205,10.7752941 C13.5982906,8.76019608 13.9401709,7.09921569 14.6581197,6.07058824 L14.482906,6.01156863 L14.4230769,6.07058824 C14.4230769,6.07058824 14.2136752,6.11696078 13.8846154,6.17598039 C13.7807723,6.33981366 13.687979,6.51021503 13.6068376,6.68607843 C13.7504767,5.97306205 14.0272606,5.29260841 14.4230769,4.67941176 L14.2478632,4.62039216 C14.5,4.36323529 15.4145299,3.2545098 14.1880342,1.43754902 C12.7777778,-0.645 10.1965812,0.973823529 10.1965812,0.973823529 C9.99194988,1.66151064 9.8573803,2.36762196 9.79487179,3.08166667 C9.5982906,3.00156863 9.45726496,2.94254902 9.36752137,2.89617647 C8.13095803,7.20069201 7.4574054,11.6435137 7.36324786,16.1165686 C2.70940171,22.6340196 0.786324786,32.2542157 0.41025641,34.3283333 L0.38034188,34.4927451 C0.354700855,34.6445098 0.341880342,34.7246078 0.341880342,34.7246078 L12.4401709,35.0028431 C12.4401709,35.045 12.4401709,35.0829412 12.4401709,35.125098 L12.4401709,54.0240196 L3.63247863,72.4001961 C3.63247863,72.4001961 6.98290598,72.5055882 12.025641,73.1421569 L10.6324786,82.9689216 L10.1666667,85.7259804 L18.5512821,85.7259804 C19.482906,83.8879412 14.8247863,82.9689216 14.8247863,82.9689216 L14.7222222,82.9689216 L16.5384615,73.7998039 C17.3418803,73.9318954 18.1680912,74.0724183 19.017094,74.2213725 C20.2618409,74.4588755 21.5235346,74.5998295 22.7905983,74.6429412 C23.8395721,74.6791071 24.8898055,74.6340013 25.9316239,74.5080392 C26.5470085,79.4783333 25.7393162,82.4461765 25.5854701,82.9394118 L25.5384615,82.9394118 L25.0726496,85.6964706 L33.457265,85.6964706 C34.2692308,84.0945098 30.8333333,83.1881373 29.9401709,82.9857843 L29.9786325,82.7159804 C30.4098944,79.6154638 30.5201491,76.4796986 30.3076923,73.3571569 C31.389633,72.9245908 32.3983789,72.3317966 33.2991453,71.5992157 L33.4145299,71.4980392 L33.4487179,71.4643137 L27.2051282,54.18 C28.3717949,49.2898039 24.3119658,44.155098 26.4786325,41.5877451 C28.6452991,39.0203922 27.3333333,35.7448039 27.0769231,35.1841176 C32.9401709,32.6547059 44.7905983,26.3311765 48.1153846,15.3703922 C48.3595801,14.5997601 48.5579238,13.8157117 48.7094017,13.0222549 C48.7094017,13.0222549 50.3846154,12.3519608 49.6581197,9.95323529 Z" id="Shape"></path>
                </g>
                <path d="M16.8270196,142.014933 C16.8270196,142.014933 10.6508633,161.958806 21.0095275,173 L24,170.657413 C24,170.657413 17.8778383,148.889638 21.3044214,143.779313 C15.2570215,141.717326 16.8270196,142.014933 16.8270196,142.014933 Z" id="Shape" fill="#FF5252" fill-rule="nonzero"></path>
                <path d="M21.3822712,143.732766 C21.3822712,143.732766 22.772161,142.729312 21.3822712,140.921501 C19.9923813,139.11369 17.4118192,140.523305 17.4118192,140.523305 C17.4118192,140.523305 16.485226,143.13149 17.4118192,143.732766 C18.3384124,144.334042 21.3822712,143.732766 21.3822712,143.732766 Z" id="Shape" fill="#F6B9AD" fill-rule="nonzero"></path>
                <rect id="Rectangle-path" fill="#F6B9AD" fill-rule="nonzero" transform="translate(27.000000, 165.500000) rotate(180.000000) translate(-27.000000, -165.500000) " x="24" y="161" width="6" height="9" rx="3"></rect>
                <path d="M23.4249977,171.68337 C23.4249977,171.68337 17.8806052,150.383007 20.900319,145.147422 C21.1668763,145.092665 21.3382346,145.050545 21.3382346,145.050545 L21.3877381,145 L21.5286327,145.050545 C18.3870641,150.105011 24,171.679158 24,171.679158 L21.2582674,174 L21.0183658,173.71358 L23.4249977,171.68337 Z" id="Shape" fill="#FFFFFF" fill-rule="nonzero" opacity="0.2"></path>
                <circle id="Oval" fill="#F6B9AD" fill-rule="nonzero" cx="26.5" cy="157.5" r="6.5"></circle>
                <path d="M28.7225763,166.999426 L28.7225763,164.118936 C28.7223318,163.908144 28.6995858,163.69798 28.6547239,163.492006 C31.3140013,162.127754 32.7289135,159.153359 32.1081479,156.232299 C31.4873823,153.311239 28.9847956,151.167499 26,151 L26.373188,151 C29.4315068,150.99904 32.0929227,153.089598 32.813088,156.058581 C33.5332532,159.027564 32.1249343,162.103075 29.4053407,163.500478 C29.4502026,163.706452 29.4729487,163.916616 29.4731931,164.127408 L29.4731931,167.007898 C29.4810011,167.868435 29.1141492,168.689911 28.4678972,169.259015 C27.8216452,169.828119 26.9597502,170.088706 26.1060193,169.973108 C27.6023295,169.779394 28.7223046,168.506558 28.7225763,166.999426 Z" id="Shape" fill="#FFFFFF" fill-rule="nonzero" opacity="0.2"></path>
                <path d="M20,189.369962 C20,189.369962 32.9303337,190.787547 33.4066919,189.369962 C34.9516372,184.783656 30.8317831,179.826276 32.8917101,177.403873 C35.0374675,174.902251 33.4066919,171.512554 33.4066919,171.512554 C33.4066919,167.91577 30.4055017,165 26.7033459,165 C23.0011902,165 20,167.91577 20,171.512554 L20,189.369962 Z" id="Shape" fill="#FF5252" fill-rule="nonzero"></path>
                <path d="M32.8523761,177.403133 C35.0742879,174.901661 33.3856349,171.512166 33.3856349,171.512166 C33.3856349,167.915596 30.2779303,165 26.4443824,165 C26.2932924,165 26.1466462,165 26,165.020846 C29.6514455,165.238546 32.4948603,168.079532 32.4968702,171.512166 C32.4968702,171.512166 34.1855232,174.901661 31.9636114,177.403133 C29.8128007,179.825392 34.0966467,184.778308 32.4968702,189.368509 C32.3457802,189.806267 30.963751,189.973032 29.1284519,189.998046 C31.3903581,190.018892 33.2123258,189.877142 33.3856349,189.368509 C35.0031868,184.774138 30.7015654,179.825392 32.8523761,177.403133 Z" id="Shape" fill="#FFFFFF" fill-rule="nonzero" opacity="0.2"></path>
                <path d="M30.2083472,190 C34.8712576,196.486478 36.9356552,206.289006 35.6003672,215.717075 L35.5622161,216 L31.5817863,216 C31.5817863,216 32.815338,212.434309 31.5817863,206.147544 C30.8256936,202.378456 28.6755513,199.017222 25.5454368,196.711154 L21.7048943,216 L18,216 L21.7048943,190 L30.2083472,190 Z" id="Shape" fill="#F6B9AD" fill-rule="nonzero"></path>
                <path d="M52.8812689,151 C52.8812689,151 54.5324308,150.421218 53.8228405,148.429753 C53.1132503,146.438288 50.2294028,147.108456 50.2294028,147.108456 C50.2294028,147.108456 48.4781705,149.267463 49.1559201,150.044249 C49.8336698,150.821035 52.8812689,151 52.8812689,151 Z" id="Shape" fill="#F6B9AD" fill-rule="nonzero"></path>
                <path d="M30.1684415,173 C30.1684415,173 50.1674171,166.729049 53,152.099587 L49.2958531,151 C49.2958531,151 34.5775299,166.898534 28.361228,167.010147 C22.1449261,167.121759 30.1684415,173 30.1684415,173 Z" id="Shape" fill="#FF5252" fill-rule="nonzero"></path>
                <path d="M52.38548,152 L53,152.189804 C50.1901603,167.456078 30.3517597,174 30.3517597,174 L30,173.719608 C32.3436521,172.891373 49.7663534,166.239608 52.38548,152 Z" id="Shape" fill="#FFFFFF" fill-rule="nonzero" opacity="0.2"></path>
                <g id="Group" opacity="0.2" transform="translate(21.000000, 189.000000)" fill="#FFFFFF" fill-rule="nonzero">
                    <path d="M4.07351351,7.10015625 L0.155675676,26.6582812 L1.02054054,26.6582812 L4.82594595,7.67390625 C4.585313,7.47028149 4.33417494,7.27878195 4.07351351,7.10015625 Z" id="Shape"></path>
                    <path d="M9.69945946,0.2953125 L8.83459459,0.2953125 C13.5913514,6.87234375 15.6972973,16.8117187 14.3351351,26.3714063 L14.2962162,26.6582812 L15.1610811,26.6582812 L15.2,26.3714063 C16.5621622,16.8117188 14.4648649,6.87234375 9.69945946,0.2953125 Z" id="Shape"></path>
                </g>
                <path d="M52.3559174,150.887706 C52.3559174,150.887706 54.1012195,150.299129 53.3511724,148.273959 C53.1663735,147.694048 52.6480203,147.22044 51.9568539,147 C52.8573455,147.132466 53.5810432,147.673032 53.8127399,148.386254 C54.562787,150.407551 52.8174849,151 52.8174849,151 C51.861841,150.941227 50.9170543,150.798395 50,150.574056 C50.773115,150.731166 51.5611514,150.83608 52.3559174,150.887706 Z" id="Shape" fill="#FFFFFF" fill-rule="nonzero" opacity="0.2"></path>
                <path d="M20.015625,189 L12,205.909765 C16.6746407,206.143413 21.3269016,206.708485 25.921875,207.600742 C34.78125,209.291718 39,205.064277 39,205.064277 L33.2835937,189 L20.015625,189 Z" id="Shape" fill="#263238" fill-rule="nonzero"></path>
                <path d="M22.3800905,216 C22.3800905,216 26.760181,217 25.8841629,219 L18,219 L18.438009,216 L22.3800905,216 Z" id="Shape" fill="#FF5252" fill-rule="nonzero"></path>
                <path d="M35.3800905,216 C35.3800905,216 39.760181,217 38.8841629,219 L31,219 L31.438009,216 L35.3800905,216 Z" id="Shape" fill="#FF5252" fill-rule="nonzero"></path>
                <path d="M33,151.904696 C33,151.904696 22.7142857,166.13887 27.4285714,172 L9,171.581348 C9,171.581348 14.1428571,139.345131 33,151.904696 Z" id="Shape" fill="#FCCC63" fill-rule="nonzero"></path>
                <path d="M33,151.861364 C30.3428571,150.086647 27.96,149.205582 25.8214286,149 C27.6193665,149.552938 29.3183166,150.376756 30.8571429,151.44181 C30.8571429,151.44181 20.5714286,165.706676 25.2857143,171.580445 L9.06428571,171.211237 C9.02142857,171.450383 9,171.580445 9,171.580445 L27.4285714,172 C22.7142857,166.126231 33,151.861364 33,151.861364 Z" id="Shape" fill="#FFFFFF" fill-rule="nonzero" opacity="0.2"></path>
                <path d="M33.0829694,189 L31.7729258,189 L37.6899563,205.067935 C37.6899563,205.067935 34.8689956,207.795256 29,207.989762 C35.7554585,208.201183 39,205.067935 39,205.067935 L33.0829694,189 Z" id="Shape" fill="#FFFFFF" fill-rule="nonzero" opacity="0.2"></path>
                <path d="M21.7793881,216 L21,216 C21,216 24.8969404,217 24.1175523,219 L24.8969404,219 C25.6763285,217 21.7793881,216 21.7793881,216 Z" id="Shape" fill="#FFFFFF" fill-rule="nonzero" opacity="0.2"></path>
                <path d="M35.7793881,216 L35,216 C35,216 38.8969404,217 38.1175523,219 L38.8969404,219 C39.6763285,217 35.7793881,216 35.7793881,216 Z" id="Shape" fill="#FFFFFF" fill-rule="nonzero" opacity="0.2"></path>
                <rect id="Rectangle-path" fill="#F5F5F5" fill-rule="nonzero" x="212" y="71" width="162" height="6"></rect>
                <rect id="Rectangle-path" fill="url(#linearGradient-17)" fill-rule="nonzero" x="209" y="69" width="168" height="210"></rect>
                <rect id="Rectangle-path" fill="#FFFFFF" fill-rule="nonzero" x="212" y="77" width="162" height="194"></rect>
                <circle id="Oval" fill="#FF5252" fill-rule="nonzero" cx="215.5" cy="74.5" r="1.5"></circle>
                <circle id="Oval" fill="#FFFF00" fill-rule="nonzero" cx="219.5" cy="74.5" r="1.5"></circle>
                <circle id="Oval" fill="#69F0AE" fill-rule="nonzero" cx="223.5" cy="74.5" r="1.5"></circle>
                <g id="Group" opacity="0.2" transform="translate(222.000000, 85.000000)" fill="#6C63FF" fill-rule="nonzero">
                    <rect id="Rectangle-path" x="0.263086053" y="0.272" width="142.575668" height="3.6"></rect>
                </g>
                <rect id="Rectangle-path" fill="url(#linearGradient-18)" fill-rule="nonzero" x="221" y="102" width="61" height="65"></rect>
                <rect id="Rectangle-path" fill="#FFFFFF" fill-rule="nonzero" x="222" y="104" width="59" height="61"></rect>
                <rect id="Rectangle-path" fill="url(#linearGradient-19)" fill-rule="nonzero" x="303" y="135" width="61" height="65"></rect>
                <rect id="Rectangle-path" fill="#FFFFFF" fill-rule="nonzero" x="304" y="137" width="59" height="61"></rect>
                <rect id="Rectangle-path" fill="url(#linearGradient-20)" fill-rule="nonzero" x="222" y="215" width="144" height="45"></rect>
                <rect id="Rectangle-path" fill="#6C63FF" fill-rule="nonzero" opacity="0.5" x="225" y="218" width="139" height="40"></rect>
                <polygon id="Shape" fill="#FFFFFF" fill-rule="nonzero" opacity="0.5" points="228.390244 221.789474 364 221.789474 364 218 225 218 225 258 228.390244 258"></polygon>
                <path d="M270.710055,118.043877 C262.501708,108.502934 248.637789,106.21181 237.796224,112.604602 C226.954659,118.997395 222.249268,132.238021 226.625325,144.038697 C231.001381,155.839373 243.202033,162.81081 255.590452,160.589336 C267.978871,158.367861 276.996964,147.591507 276.999981,135.005582 C277.007453,128.779945 274.774853,122.759414 270.710055,118.043877 Z M260.226844,150.529001 C253.18975,154.698713 244.227409,153.609142 238.394392,147.874783 C232.561374,142.140424 231.319154,133.198031 235.368315,126.090923 C239.417477,118.983815 247.743497,115.492691 255.650676,117.58647 C263.557856,119.68025 269.065037,126.834333 269.066288,135.013969 C269.086019,141.385657 265.72671,147.290335 260.239424,150.529001 L260.226844,150.529001 Z" id="Shape" fill="url(#linearGradient-21)" fill-rule="nonzero"></path>
                <path d="M265.197987,124 L271,118.90081 C266.242709,113.244685 259.302208,109.993316 252,110 L252,117.811536 C257.072849,117.810115 261.893381,120.070436 265.197987,124 Z" id="Shape" fill="#FF5252" fill-rule="nonzero"></path>
                <path d="M251.278033,152.420238 C248.81392,152.421528 246.378308,151.894719 244.136172,150.875495 L241,157.782644 C248.412909,161.135211 257.000973,160.663714 264,156.519911 L260.116719,150 C257.444331,151.5893 254.389582,152.425761 251.278033,152.420238 Z" id="Shape" fill="#69F0AE" fill-rule="nonzero"></path>
                <path d="M275.99998,134.389736 C276.007496,128.371933 273.873199,122.553043 269.988427,118 L264.250126,123.003362 C267.585744,126.909476 269.039279,132.112908 268.218688,137.210208 C267.398098,142.307509 264.387903,146.773663 260,149.404079 L263.867573,156 C271.393419,151.470113 276.00434,143.257133 275.99998,134.389736 Z" id="Shape" fill="#FF9800" fill-rule="nonzero"></path>
                <path d="M234.628303,135.119745 C234.628303,125.47901 242.405877,117.663651 252,117.663651 L252,110 C240.227864,110.00037 230.051203,118.253866 227.565921,129.816574 C225.080639,141.379281 230.960287,153.117526 241.682907,158 L244.830997,151.013305 C238.621107,148.18617 234.630941,141.970368 234.628303,135.119745 Z" id="Shape" fill="#6C63FF" fill-rule="nonzero"></path>
                <rect id="Rectangle-path" fill="url(#linearGradient-22)" fill-rule="nonzero" x="312" y="146" width="45" height="8"></rect>
                <rect id="Rectangle-path" fill="#6C63FF" fill-rule="nonzero" x="313" y="146" width="44" height="7"></rect>
                <rect id="Rectangle-path" fill="#FF5252" fill-rule="nonzero" x="313" y="158" width="32" height="7"></rect>
                <rect id="Rectangle-path" fill="#69F0AE" fill-rule="nonzero" x="313" y="169" width="22" height="7"></rect>
                <rect id="Rectangle-path" fill="#FF9800" fill-rule="nonzero" x="313" y="180" width="40" height="7"></rect>
                <rect id="Rectangle-path" fill="#F5F5F5" fill-rule="nonzero" x="222" y="177" width="63" height="4"></rect>
                <rect id="Rectangle-path" fill="#F5F5F5" fill-rule="nonzero" x="222" y="184" width="36" height="4"></rect>
                <rect id="Rectangle-path" fill="#F5F5F5" fill-rule="nonzero" x="264" y="184" width="12" height="4"></rect>
                <rect id="Rectangle-path" fill="#F5F5F5" fill-rule="nonzero" x="264" y="198" width="12" height="4"></rect>
                <rect id="Rectangle-path" fill="#F5F5F5" fill-rule="nonzero" x="222" y="196" width="36" height="4"></rect>
                <rect id="Rectangle-path" fill="#F5F5F5" fill-rule="nonzero" x="222" y="190" width="63" height="4"></rect>
                <rect id="Rectangle-path" fill="#F5F5F5" fill-rule="nonzero" x="302" y="103" width="63" height="4"></rect>
                <rect id="Rectangle-path" fill="#F5F5F5" fill-rule="nonzero" x="302" y="109" width="36" height="4"></rect>
                <rect id="Rectangle-path" fill="#F5F5F5" fill-rule="nonzero" x="344" y="109" width="12" height="4"></rect>
                <rect id="Rectangle-path" fill="#F5F5F5" fill-rule="nonzero" x="344" y="123" width="12" height="4"></rect>
                <rect id="Rectangle-path" fill="#F5F5F5" fill-rule="nonzero" x="302" y="122" width="36" height="4"></rect>
                <rect id="Rectangle-path" fill="#F5F5F5" fill-rule="nonzero" x="302" y="115" width="63" height="4"></rect>
                <circle id="Oval" fill="url(#linearGradient-23)" fill-rule="nonzero" cx="321.5" cy="290.5" r="4.5"></circle>
                <circle id="Oval" fill="#FF5252" fill-rule="nonzero" cx="321.5" cy="291.5" r="3.5"></circle>
                <rect id="Rectangle-path" fill="url(#linearGradient-24)" fill-rule="nonzero" x="184" y="240" width="146" height="51"></rect>
                <rect id="Rectangle-path" fill="#FFFFFF" fill-rule="nonzero" x="189" y="242" width="139" height="40"></rect>
                <rect id="Rectangle-path" fill="url(#linearGradient-26)" fill-rule="nonzero" x="194" y="250" width="19" height="23"></rect>
                <rect id="Rectangle-path" fill="#6C63FF" fill-rule="nonzero" x="196" y="251" width="17" height="22"></rect>
                <rect id="Rectangle-path" fill="#69F0AE" fill-rule="nonzero" x="302" y="266" width="17" height="7"></rect>
                <rect id="Rectangle-path" fill="#FF9800" fill-rule="nonzero" x="270" y="257" width="17" height="15"></rect>
                <rect id="Rectangle-path" fill="#FF5252" fill-rule="nonzero" x="233" y="260" width="17" height="13"></rect>
                <rect id="Rectangle-path" fill="#FF5252" fill-rule="nonzero" x="189" y="282" width="139" height="6"></rect>
                <circle id="Oval" fill="url(#linearGradient-27)" fill-rule="nonzero" cx="194.5" cy="290.5" r="4.5"></circle>
                <circle id="Oval" fill="#FF5252" fill-rule="nonzero" cx="194.5" cy="291.5" r="3.5"></circle>
                <rect id="Rectangle-path" fill="#FF5252" fill-rule="nonzero" x="185" y="243" width="3" height="44"></rect>
                <rect id="Rectangle-path" fill="#000000" fill-rule="nonzero" opacity="0.2" x="185" y="243" width="3" height="44"></rect>
                <path d="M188,248.341126 C188,248.294482 188,248.252078 188,248.205434 C188,248.15879 188,248.065502 188,247.997657 C188,247.929811 188,247.908609 187.974808,247.866205 C187.949615,247.823802 187.945416,247.738995 187.924423,247.67963 C187.903429,247.620264 187.89923,247.599063 187.882435,247.556659 C187.86564,247.514255 187.83205,247.437929 187.806858,247.378564 L187.756473,247.272555 C187.722883,247.21319 187.685094,247.153825 187.647306,247.0987 L187.592722,247.018133 C187.537654,246.941681 187.478797,246.868088 187.416375,246.797634 C187.081516,246.437196 186.684584,246.141216 186.244927,245.92412 C186.588886,245.550924 186.845698,245.104654 186.996501,244.618088 C187.039997,244.487981 187.073684,244.354736 187.097271,244.219495 C187.097271,244.177091 187.097271,244.134687 187.097271,244.096524 C187.108594,244.014979 187.115602,243.932882 187.118265,243.850583 C187.118265,243.803939 187.118265,243.761535 187.118265,243.714891 C187.118265,243.668248 187.118265,243.57496 187.118265,243.507114 C187.118265,243.439268 187.118265,243.418066 187.093072,243.375663 C187.06788,243.333259 187.063681,243.248452 187.042687,243.189087 C187.021693,243.129722 187.017495,243.10852 187.0007,243.066116 C186.983905,243.023713 186.950315,242.947386 186.925122,242.888021 L186.874738,242.782012 C186.841148,242.722647 186.803359,242.663282 186.76557,242.608157 L186.710987,242.52759 C186.655918,242.451139 186.597061,242.377545 186.53464,242.307091 C186.115839,241.863793 185.60748,241.516707 185.044087,241.289405 C185.044087,241.289405 182.377887,242.28589 182.20154,243.379903 C180.244927,243.803939 168.841148,246.199743 161.010497,246.008927 L160.951714,245.852034 C160.952767,243.244871 159.525975,240.850928 157.244227,239.631423 L157.244227,236.968476 C157.250219,236.855481 157.250219,236.742243 157.244227,236.629247 C157.232969,236.521016 157.216152,236.413449 157.193842,236.30698 L157.244227,236.277297 L157.458362,236.158567 L157.769069,235.967751 L157.96641,235.8363 C158.111966,235.734531 158.251924,235.627109 158.386284,235.514032 L158.545836,235.3741 C158.642407,235.289293 158.73478,235.204486 158.827152,235.115438 L158.990903,234.954305 C159.105668,234.835574 159.214836,234.714017 159.318404,234.589633 L159.43177,234.445461 C159.529741,234.321077 159.623513,234.193866 159.713086,234.063829 L159.826452,233.889974 C159.907628,233.762763 159.986004,233.632725 160.061582,233.499861 L160.13296,233.37265 C160.225332,233.203035 160.309307,233.02494 160.384885,232.846845 L160.447866,232.685711 C160.506648,232.541539 160.559832,232.400193 160.607418,232.261675 L160.657803,232.104782 C160.716585,231.909725 160.76697,231.714668 160.808957,231.515371 C160.808957,231.477208 160.808957,231.434804 160.829951,231.396641 C160.860742,231.227027 160.885934,231.055999 160.905528,230.883557 C160.905528,230.824192 160.905528,230.769068 160.905528,230.709703 C160.905528,230.497685 160.939118,230.285666 160.939118,230.069408 C160.939013,228.864472 160.630968,227.679959 160.044787,226.630475 C160.494052,226.520225 160.76697,226.431178 160.73338,226.388774 C160.561232,226.155554 160.389083,225.935056 160.208537,225.723037 L160.036389,225.52374 C159.910427,225.379568 159.788663,225.243877 159.662701,225.099704 L159.461162,224.891927 C159.335199,224.764716 159.209237,224.645986 159.083275,224.531496 L158.885934,224.353401 C158.726382,224.217709 158.56683,224.086258 158.407278,223.959047 L158.302309,223.87424 C158.109167,223.730068 157.916025,223.594376 157.718684,223.450204 L157.50035,223.314512 C157.374388,223.233945 157.244227,223.157619 157.114066,223.089773 L156.853744,222.954081 L156.492652,222.780227 L156.228132,222.661496 C156.102169,222.606372 155.972008,222.559728 155.841847,222.513084 L155.602519,222.424036 C155.409377,222.360431 155.216235,222.301066 155.023093,222.250181 L154.724983,222.182336 L154.401679,222.11449 L154.078376,222.063605 L153.780266,222.029683 L153.448565,222 L153.163051,222 L152.831351,222 C152.649405,222 152.46746,222.008481 152.285514,222.025442 C147.990203,222.381633 144.228132,226.168275 144.228132,232.20231 L144.228132,237.180494 L150.946116,237.180494 L150.946116,239.444847 C148.480649,240.593598 146.90083,243.084465 146.89853,245.826592 L146.89853,265.124477 L141.196641,291.580093 L141.121064,291.580093 L140,296.630363 L148.044787,297.944875 L148.393282,298 C149.23303,297.635329 147.826452,295.926463 147.192442,294.607711 C147.127681,294.470075 147.071586,294.328448 147.024493,294.183675 C146.935932,293.917687 146.882291,293.641119 146.864941,293.361044 L153.045486,272.884339 L153.016095,272.884339 L153.163051,272.405178 C153.163051,272.405178 161.031491,275.797467 163.055283,282.620209 C164.696991,288.132679 163.676697,291.720025 163.231631,292.881884 L163.202239,292.881884 L163.202239,292.949729 C163.114066,293.170228 163.051085,293.293199 163.051085,293.293199 L163.202239,293.293199 L163.202239,297.037438 L171.708887,297.037438 C172.498251,296.634604 170.822953,295.460023 169.987404,294.493221 C169.713854,294.186786 169.522989,293.814415 169.43317,293.411929 L169.575927,293.411929 L169.643107,293.106623 C171.819047,282.899913 168.487649,272.292146 160.884535,265.217765 C160.900065,265.195426 160.91276,265.171208 160.922323,265.145679 C161.7252,262.664335 162.220232,260.092002 162.396081,257.487586 C168.89993,258.115159 177.553534,257.665681 184.023793,252.602689 C184.641395,252.131377 185.231596,251.62452 185.791463,251.08464 C186.349895,251.042236 187.328202,250.728449 187.869839,249.134074 C187.913335,249.003966 187.947022,248.870721 187.970609,248.73548 C187.970609,248.693076 187.970609,248.650672 187.970609,248.612509 C187.985683,248.522711 187.995497,248.432092 188,248.341126 Z" id="Shape" fill="url(#linearGradient-28)" fill-rule="nonzero"></path>
                <path d="M154.877957,255.158799 C154.877957,255.158799 174.905726,261.360872 186,250.999125 L183.647057,248 C183.647057,248 162.124679,252.671314 156.996033,249.247902 C151.867386,245.824491 154.877957,255.158799 154.877957,255.158799 Z" id="Shape" fill="#6C63FF" fill-rule="nonzero"></path>
                <path d="M184.610276,251 L185,251.537415 C173.986062,262.697743 154.127084,256.015878 154.127084,256.015878 C154.127084,256.015878 154.07625,255.845696 154,255.568031 C156.367997,256.315934 174.341897,261.42586 184.610276,251 Z" id="Shape" fill="#FFFFFF" fill-rule="nonzero" opacity="0.2"></path>
                <path d="M185.336224,250.9764 C185.336224,250.9764 187.061419,251.34644 187.856627,249.155973 C188.651834,246.965507 185.87984,246 185.87984,246 C185.87984,246 182.991036,247.00804 183.000021,248.07988 C183.009006,249.15172 185.336224,250.9764 185.336224,250.9764 Z" id="Shape" fill="#985454" fill-rule="nonzero"></path>
                <path d="M184.396635,250.639073 C184.396635,250.639073 185.924578,251.005507 186.628864,248.836384 C186.850113,248.229178 186.783556,247.546572 186.449809,247 C186.977607,247.57604 187.142111,248.423701 186.871585,249.173335 C186.167298,251.346671 184.639355,250.976024 184.639355,250.976024 C184.031973,250.436037 183.482249,249.827304 183,249.1607 C183.425935,249.693708 183.893097,250.188211 184.396635,250.639073 Z" id="Shape" fill="#FFFFFF" fill-rule="nonzero" opacity="0.2"></path>
                <path d="M164,291 L169.692149,291 C169.649514,291.573775 169.845537,292.138696 170.228989,292.547129 C170.995319,293.483207 172.536174,294.614301 171.810825,295 L164,295 L164,291 Z" id="4635430b-7803-4f1f-9770-b56b2b482545" fill="#6C63FF" fill-rule="nonzero"></path>
                <path d="M169.597697,292.547129 C169.1753,292.138696 168.959369,291.573775 169.006333,291 L169.457756,291 C169.410792,291.573775 169.626723,292.138696 170.04912,292.547129 C170.89328,293.483207 172.59063,294.614301 171.791611,295 L171.340189,295 C172.139207,294.614301 170.441857,293.487541 169.597697,292.547129 Z" id="Shape" fill="#FFFFFF" fill-rule="nonzero" opacity="0.2"></path>
                <path d="M143.046425,289 L148.402145,289.896213 C148.254064,290.547544 148.340339,291.231545 148.645213,291.823282 C149.230222,293.085554 150.544433,294.659187 149.753435,295 L142,293.737728 L143.046425,289 Z" id="a892faa3-7b18-4010-9d55-72c2aac7ddb8" fill="#6C63FF" fill-rule="nonzero"></path>
                <path d="M148.242175,291.835905 C147.935266,291.244167 147.848415,290.560167 147.997485,289.908836 L143,289.067321 L143,289 L148.391477,289.896213 C148.242407,290.547544 148.329259,291.231545 148.636167,291.823282 C149.225083,293.085554 150.548068,294.659187 149.751789,295 L149.424153,294.945302 C150.037952,294.532959 148.806206,293.02244 148.242175,291.835905 Z" id="Shape" fill="#FFFFFF" fill-rule="nonzero" opacity="0.2"></path>
                <rect id="Rectangle-path" fill="#985454" fill-rule="nonzero" transform="translate(155.000000, 239.500000) rotate(180.000000) translate(-155.000000, -239.500000) " x="152" y="235" width="6" height="9" rx="3"></rect>
                <circle id="Oval" fill="#985454" fill-rule="nonzero" cx="154.5" cy="231.5" r="6.5"></circle>
                <path d="M157.722576,240.999426 L157.722576,238.118936 C157.722332,237.908144 157.699586,237.69798 157.654724,237.492006 C160.314001,236.127754 161.728914,233.153359 161.108148,230.232299 C160.487382,227.311239 157.984796,225.167499 155,225 L155.373188,225 C158.431507,224.99904 161.092923,227.089598 161.813088,230.058581 C162.533253,233.027564 161.124934,236.103075 158.405341,237.500478 C158.450203,237.706452 158.472949,237.916616 158.473193,238.127408 L158.473193,241.007898 C158.481001,241.868435 158.114149,242.689911 157.467897,243.259015 C156.821645,243.828119 155.95975,244.088706 155.106019,243.973108 C156.60233,243.779394 157.722305,242.506558 157.722576,240.999426 Z" id="Shape" fill="#FFFFFF" fill-rule="nonzero" opacity="0.2"></path>
                <path d="M148,264.369962 C148,264.369962 161.020327,265.787547 161.5,264.369962 C164.875,254.388493 161.5,246.512554 161.5,246.512554 C161.5,242.91577 158.477922,240 154.75,240 C151.022078,240 148,242.91577 148,246.512554 L148,264.369962 Z" id="Shape" fill="#6C63FF" fill-rule="nonzero"></path>
                <path d="M148.761121,265 L143,291 L148.761121,291 L154.733892,271.711154 C154.733892,271.711154 162.200915,274.856617 164.118467,281.147544 C166.036018,287.43847 164.118467,291 164.118467,291 L170.315587,291 L170.379082,290.717075 C172.451009,281.288999 169.257424,271.489903 161.997731,265" id="Shape" fill="#263238" fill-rule="nonzero"></path>
                <path d="M161.544685,264.356002 C165.043247,254.375127 161.544685,246.499659 161.544685,246.499659 C161.54532,243.066133 158.681499,240.222014 155,240 C155.147827,240 155.300133,240 155.447959,240 C159.312364,240 162.445084,242.915596 162.445084,246.512166 C162.445084,246.512166 165.943646,254.391804 162.445084,264.368509 C162.2659,264.877142 160.420307,265.018892 158.126756,264.998046 C159.990267,264.960524 161.392379,264.79376 161.544685,264.356002 Z" id="Shape" fill="#FFFFFF" fill-rule="nonzero" opacity="0.2"></path>
                <g id="Group" opacity="0.2" transform="translate(147.000000, 264.000000)" fill="#FFFFFF" fill-rule="nonzero">
                    <path d="M7.04142857,7.56421875 L1.10571429,26.76375 L0.248571429,26.76375 L6.29571429,7.205625 C6.29571429,7.205625 6.57428571,7.32375 7.04142857,7.56421875 Z" id="Shape"></path>
                    <path d="M13.6328571,0.40078125 L14.49,0.40078125 C21.8400889,6.98128534 25.0734398,16.9171797 22.9757143,26.476875 L22.9114286,26.76375 L22.0542857,26.76375 L22.1185714,26.476875 C24.2162969,16.9171797 20.9829461,6.98128534 13.6328571,0.40078125 Z" id="Shape"></path>
                </g>
                <path d="M153.877957,251.158799 C153.877957,251.158799 173.905726,257.360872 185,246.999125 L182.647057,244 C182.647057,244 161.124679,248.671314 155.996033,245.247902 C150.867386,241.824491 153.877957,251.158799 153.877957,251.158799 Z" id="Shape" fill="#6C63FF" fill-rule="nonzero"></path>
                <path d="M183.610276,247 L184,247.537415 C172.986062,258.697743 153.127084,252.015878 153.127084,252.015878 C153.127084,252.015878 153.07625,251.845696 153,251.568031 C155.367997,252.315934 173.341897,257.42586 183.610276,247 Z" id="Shape" fill="#FFFFFF" fill-rule="nonzero" opacity="0.2"></path>
                <path d="M184.336224,246.9764 C184.336224,246.9764 186.061419,247.34644 186.856627,245.155973 C187.651834,242.965507 184.87984,242 184.87984,242 C184.87984,242 181.991036,243.00804 182.000021,244.07988 C182.009006,245.15172 184.336224,246.9764 184.336224,246.9764 Z" id="Shape" fill="#985454" fill-rule="nonzero"></path>
                <path d="M183.396635,246.639073 C183.396635,246.639073 184.924578,247.005507 185.628864,244.836384 C185.850113,244.229178 185.783556,243.546572 185.449809,243 C185.977607,243.57604 186.142111,244.423701 185.871585,245.173335 C185.167298,247.346671 183.639355,246.976024 183.639355,246.976024 C183.031973,246.436037 182.482249,245.827304 182,245.1607 C182.425935,245.693708 182.893097,246.188211 183.396635,246.639073 Z" id="Shape" fill="#FFFFFF" fill-rule="nonzero" opacity="0.2"></path>
                <path d="M155.944437,229.29614 L155.51207,238 L146,238 L146,233.378665 C146,224.098693 156.234123,220.575702 161.997573,228.032008 C162.140254,228.235099 155.944437,229.29614 155.944437,229.29614 Z" id="Shape" fill="#263238" fill-rule="nonzero"></path>
                <path d="M153,224.021903 C155.368886,224.212872 157.805334,225.48323 159.730846,228.036402 C159.870192,228.219068 153.819187,229.281852 153.819187,229.281852 L153.396926,238 L154.66371,238 L155.085971,229.281852 C155.085971,229.281852 161.136976,228.219068 160.99763,228.036402 C158.730086,225.022414 155.748921,223.818479 153,224.021903 Z" id="Shape" fill="#FFFFFF" fill-rule="nonzero" opacity="0.2"></path>
            </g>
        </g>
    </g>
</svg>