<svg xmlns="http://www.w3.org/2000/svg" width="400" height="337" viewBox="0 0 400 337">
    <defs>
        <linearGradient id="a" x1="50%" x2="50%" y1="100%" y2="0%">
            <stop offset="0%" stop-color="gray" stop-opacity=".25"/>
            <stop offset="54%" stop-color="gray" stop-opacity=".12"/>
            <stop offset="100%" stop-color="gray" stop-opacity=".1"/>
        </linearGradient>
        <linearGradient id="b" x1="50%" x2="50%" y1="100%" y2="0%">
            <stop offset="0%" stop-opacity=".12"/>
            <stop offset="55%" stop-opacity=".09"/>
            <stop offset="100%" stop-opacity=".02"/>
        </linearGradient>
        <linearGradient id="c" x1="50%" x2="50%" y1="-512.903%" y2="-512.903%">
            <stop offset="0%" stop-opacity=".12"/>
            <stop offset="55%" stop-opacity=".09"/>
            <stop offset="100%" stop-opacity=".02"/>
        </linearGradient>
        <linearGradient id="d" x1="0%" y1="50%" y2="50%">
            <stop offset="0%" stop-opacity=".12"/>
            <stop offset="55%" stop-opacity=".09"/>
            <stop offset="100%" stop-opacity=".02"/>
        </linearGradient>
        <linearGradient id="e" x1="0%" y1="50%" y2="50%">
            <stop offset="0%" stop-color="gray" stop-opacity=".25"/>
            <stop offset="54%" stop-color="gray" stop-opacity=".12"/>
            <stop offset="100%" stop-color="gray" stop-opacity=".1"/>
        </linearGradient>
        <linearGradient id="f" x1="50%" x2="50%" y1="100%" y2="0%">
            <stop offset="0%" stop-color="gray" stop-opacity=".25"/>
            <stop offset="54%" stop-color="gray" stop-opacity=".12"/>
            <stop offset="100%" stop-color="gray" stop-opacity=".1"/>
        </linearGradient>
        <linearGradient id="g" x1="50%" x2="50%" y1="100%" y2=".008%">
            <stop offset="0%" stop-color="gray" stop-opacity=".25"/>
            <stop offset="54%" stop-color="gray" stop-opacity=".12"/>
            <stop offset="100%" stop-color="gray" stop-opacity=".1"/>
        </linearGradient>
    </defs>
    <g fill="none" fill-rule="nonzero">
        <path fill="#4A90E2" d="M31.797 0h336.866v336.866H31.797z" opacity=".2"/>
        <path fill="#4A90E2" d="M82.488 31.452h235.023v274.424H82.488z" opacity=".5"/>
        <path fill="url(#a)" d="M274.194 48.387H400v241.935H274.194zM0 49.309h125.806v241.935H0z"/>
        <path fill="#4A90E2" d="M278.341 52.074h117.512v233.18H278.341zM121.66 285.253H4.146V52.073H121.66z"/>
        <path fill="url(#b)" d="M23.502 73.272h78.802v14.286H23.502zM298.157 94.931h78.802v14.286h-78.802zM297.696 117.051h78.802v14.286h-78.802zM297.696 139.171h78.802v14.286h-78.802zM297.696 161.29h78.802v14.286h-78.802zM297.696 183.41h78.802v14.286h-78.802zM297.696 205.53h78.802v14.286h-78.802zM297.696 227.65h78.802v14.286h-78.802zM297.696 249.77h78.802v14.286h-78.802z"/>
        <path fill="url(#c)" d="M297.696 73.272h78.802v14.286h-78.802z"/>
        <path fill="url(#d)" d="M23.502 95.853h78.802v14.286H23.502zM23.502 117.512h78.802v14.286H23.502zM23.502 139.171h78.802v14.286H23.502zM23.502 161.29h78.802v14.286H23.502zM23.502 183.41h78.802v14.286H23.502z"/>
        <path fill="#FFF" d="M25.346 75.115h75.576v11.06H25.346zM25.115 96.774h75.576v11.06H25.115zM25.115 118.894h75.576v11.06H25.115zM25.115 141.014h75.576v11.06H25.115zM25.115 163.134h75.576v11.06H25.115zM25.115 185.253h75.576v11.06H25.115z"/>
        <path fill="url(#d)" d="M23.502 205.53h78.802v14.286H23.502z"/>
        <path fill="#FFF" d="M25.115 207.373h75.576v11.06H25.115z"/>
        <path fill="#FFF" d="M25.115 207.373h75.576v11.06H25.115zM25.115 229.493h75.576v11.06H25.115zM25.115 251.613h75.576v11.06H25.115zM299.539 74.654h75.576v11.06h-75.576zM299.539 96.774h75.576v11.06h-75.576zM299.539 118.894h75.576v11.06h-75.576zM299.539 141.014h75.576v11.06h-75.576zM299.539 163.134h75.576v11.06h-75.576zM299.539 185.253h75.576v11.06h-75.576zM299.539 207.373h75.576v11.06h-75.576zM299.539 229.493h75.576v11.06h-75.576zM299.539 251.613h75.576v11.06h-75.576z"/>
        <path fill="url(#e)" d="M60.829 297.235h277.88v17.512H60.829z"/>
        <path fill="#4A90E2" d="M63.134 299.078h273.733v13.825H63.134z"/>
        <path fill="url(#f)" d="M61.751 23.041H339.17v17.972H61.751z"/>
        <path fill="#4A90E2" d="M63.134 24.424h273.733v13.825H63.134z"/>
        <path fill="#263238" d="M133.18 52.074h134.562v233.18H133.18z" opacity=".5"/>
        <path fill="url(#g)" d="M303.99 153.48c3.227 4.322-1.603 9.428-1.603 9.428l.811.28c-1.193 1.324-5.908 7.291-24.083 34.287-23.272 34.562-54.631 43.184-54.631 43.184a38.71 38.71 0 0 0-12.779-6.594v-3.263a38.249 38.249 0 0 0 25.484-24.645 39.207 39.207 0 0 0 4.212-17.715c0-22.12-18.327-40.064-40.931-40.064-22.604 0-40.93 17.94-40.93 40.064a39.207 39.207 0 0 0 4.211 17.715 38.249 38.249 0 0 0 25.484 24.645v3.263a38.71 38.71 0 0 0-12.779 6.594s-31.373-8.631-54.645-43.194c-18.175-26.995-22.89-32.967-24.083-34.285l.811-.281s-4.815-5.106-1.604-9.429c3.212-4.323-21.267-9.429-18.46 0 2.806 9.429 6.419 14.143 6.419 14.143s51.244 80.82 77.995 94.175a37.065 37.065 0 0 0-.949 8.35v15.715h77.042v-15.715a37.065 37.065 0 0 0-.95-8.35c26.728-13.364 77.996-94.17 77.996-94.17s3.613-4.715 6.419-14.143c2.806-9.429-21.668-4.318-18.456.004z"/>
        <circle cx="200.461" cy="190.539" r="39.198" fill="#263238"/>
        <circle cx="200.461" cy="196.691" r="36.894" fill="#F8C198"/>
        <circle cx="185.857" cy="188.618" r="4.613" fill="#263238"/>
        <circle cx="215.834" cy="188.618" r="4.613" fill="#263238"/>
        <path fill="#FFF" d="M211.221 213.594c0 2.765-4.815 7.305-10.76 7.305-5.945 0-10.76-4.54-10.76-7.305 0-2.765 4.815-2.69 10.76-2.69 5.945 0 10.76-.075 10.76 2.69z"/>
        <circle cx="187.009" cy="188.618" r="1.539" fill="#FFF"/>
        <circle cx="217.369" cy="188.618" r="1.539" fill="#FFF"/>
        <path fill="#263238" d="M204.147 176.212c-2.248 0-4.267-1.954-4.506-4.189a5.53 5.53 0 0 1 3.225-5.415c.21-.108.442-.168.678-.175.774 0 1.156.922 1.405 1.655.775 2.267 2.148 4.479 4.304 5.53 2.157 1.05 5.171.511 6.31-1.6-3.051-1.359-4.356-5.626-2.581-8.456.686-1.092 1.755-2.018 1.972-3.29.396-2.304-2.13-3.982-4.364-4.673-6.452-1.995-28.94-2.217-30.18 7.41-1.3 10.157 16.655 14.549 23.737 13.203z"/>
        <ellipse cx="165.098" cy="197.085" fill="#F8C198" rx="2.304" ry="6.535" transform="rotate(-21.53 165.098 197.085)"/>
        <ellipse cx="235.813" cy="197.061" fill="#F8C198" rx="6.535" ry="2.304" transform="rotate(-68.47 235.813 197.06)"/>
        <path fill="#FF9800" d="M223.46 241.631s30.033-8.433 52.323-42.253 23.443-33.913 23.443-33.913l11.912 4.706s-55.336 89.16-79.161 93.774c-23.825 4.613-8.516-22.314-8.516-22.314z"/>
        <path fill="#F8C198" d="M298.078 165.562s4.609-4.995 1.54-9.216c-3.07-4.222 20.368-9.217 17.677 0-2.691 9.216-6.148 13.825-6.148 13.825l-13.069-4.609z"/>
        <path fill="#FF9800" d="M177.46 241.631s-30.031-8.433-52.322-42.253c-22.29-33.82-23.442-33.913-23.442-33.913l-11.913 4.706s55.341 89.16 79.17 93.774c23.83 4.613 8.508-22.314 8.508-22.314z"/>
        <path fill="#F8C198" d="M102.843 165.562s-4.608-4.995-1.539-9.216c3.07-4.222-20.369-9.217-17.677 0 2.691 9.216 6.147 13.825 6.147 13.825l13.07-4.609z"/>
        <g fill="#FFF" opacity=".2">
            <path d="M213.037 157.959c-.221 1.271-1.29 2.193-1.972 3.29-1.553 2.48-.747 6.064 1.53 7.834a5.894 5.894 0 0 1 .391-5.134c.687-1.092 1.756-2.018 1.973-3.29.248-1.442-.65-2.64-1.904-3.502.033.266.027.537-.018.802zM203.438 166.825a15.292 15.292 0 0 1-.406-1.046c-.249-.733-.631-1.632-1.405-1.655a1.576 1.576 0 0 0-.678.176 5.53 5.53 0 0 0-3.225 5.414 4.853 4.853 0 0 0 2.06 3.387 4.332 4.332 0 0 1-.139-.695 5.53 5.53 0 0 1 3.226-5.415c.178-.087.37-.143.567-.166zM200.189 174.124c-5.604.235-14.645-1.903-19.101-6.451 3.327 7.078 17.073 10.041 23.041 8.903a4.645 4.645 0 0 1-3.94-2.452zM213.217 170.327c-1.346 1.58-3.954 1.913-5.876.977a6.7 6.7 0 0 1-1.705-1.203 8.221 8.221 0 0 0 3.627 3.89c2.156 1.046 5.17.511 6.308-1.6a5.475 5.475 0 0 1-2.354-2.064z"/>
        </g>
        <path fill="#FFF" d="M309.608 170.17s-55.34 89.162-79.193 93.775a27.802 27.802 0 0 1-4.18.511c1.92.055 3.84-.117 5.719-.511 23.83-4.609 79.17-93.774 79.17-93.774l-1.235-.438c-.17.29-.28.438-.28.438zM91.313 170.17s55.341 89.162 79.194 93.775c1.378.276 2.775.447 4.18.511-1.92.055-3.84-.117-5.72-.511-23.829-4.609-79.17-93.774-79.17-93.774l1.235-.438c.17.29.281.438.281.438z" opacity=".2"/>
        <path fill="#FF9800" d="M200.46 233.585a36.894 36.894 0 0 1 36.895 36.894v15.374h-73.788v-15.374a36.894 36.894 0 0 1 36.894-36.894z"/>
        <path fill="#FFF" d="M200.843 233.779c-1.342 0-2.684.072-4.018.216.46 0 .88-.027 1.327-.027 20.376 0 36.894 16.518 36.894 36.894v15.18h2.691v-15.37a36.894 36.894 0 0 0-36.894-36.893z" opacity=".2"/>
        <path fill="#FFF" d="M200.078 233.779c1.343 0 2.684.072 4.019.216-.461 0-.88-.027-1.327-.027-20.376 0-36.894 16.518-36.894 36.894v15.18h-2.692v-15.37c0-20.375 16.518-36.893 36.894-36.893z" opacity=".2"/>
        <rect width="21.521" height="25.94" x="189.7" y="223.401" fill="#F8C198" rx="10.76"/>
    </g>
</svg>
