<svg xmlns="http://www.w3.org/2000/svg" width="24" height="24" viewBox="0 0 24 24">
    <g fill="none" fill-rule="nonzero" stroke-width=".4">
        <path fill="#EC4C6F" stroke="#EC4C6F" d="M12 1C5.935 1 1 5.935 1 12s4.935 11 11 11 11-4.935 11-11S18.065 1 12 1z"/>
        <path fill="#FFF" stroke="#FFF" d="M11.689 10.551a.439.439 0 0 0 .622 0l1.76-1.76a.44.44 0 1 0-.622-.622L12.44 9.178V4.96a.44.44 0 0 0-.88 0v4.218l-1.009-1.01a.44.44 0 1 0-.622.623l1.76 1.76zM12.311 13.449a.44.44 0 0 0-.622 0l-1.76 1.76a.44.44 0 1 0 .622.622l1.009-1.009v4.218a.44.44 0 1 0 .88 0v-4.218l1.009 1.01a.439.439 0 0 0 .622 0 .44.44 0 0 0 0-.623l-1.76-1.76zM19.04 11.56h-4.218l1.01-1.009a.44.44 0 1 0-.623-.622l-1.76 1.76a.44.44 0 0 0 0 .622l1.76 1.76a.439.439 0 0 0 .622 0 .44.44 0 0 0 0-.622l-1.009-1.009h4.218a.44.44 0 1 0 0-.88zM10.551 11.689l-1.76-1.76a.44.44 0 1 0-.622.622l1.009 1.009H4.96a.44.44 0 0 0 0 .88h4.218l-1.01 1.009a.44.44 0 1 0 .623.622l1.76-1.76a.44.44 0 0 0 0-.622z"/>
    </g>
</svg>
