<svg xmlns="http://www.w3.org/2000/svg" width="23" height="23" viewBox="0 0 23 23">
    <g fill="#606085" fill-rule="nonzero" stroke="#606085">
        <path d="M11.5 1C5.71 1 1 5.71 1 11.5S5.71 22 11.5 22 22 17.29 22 11.5 17.29 1 11.5 1zm0 20C6.262 21 2 16.738 2 11.5S6.262 2 11.5 2 21 6.262 21 11.5 16.738 21 11.5 21z"/>
        <path d="M16.593 10.889h-4.686V6.407a.407.407 0 1 0-.814 0v4.482H6.407a.407.407 0 1 0 0 .815h4.686v4.889a.407.407 0 1 0 .814 0v-4.89h4.686a.407.407 0 1 0 0-.814z"/>
    </g>
</svg>
