<svg xmlns="http://www.w3.org/2000/svg" width="58" height="58" viewBox="0 0 58 58">
    <g fill="none" fill-rule="evenodd">
        <circle cx="29" cy="29" r="29" fill="#EC4C6F"/>
        <path fill="#FFF" fill-rule="nonzero" stroke="#FFF" stroke-width=".5" d="M37 20.668C37 19.194 35.819 18 34.361 18H20.64C19.18 18 18 19.194 18 20.668v16.664C18 38.806 19.181 40 20.639 40H34.36C35.82 40 37 38.806 37 37.332V20.668z"/>
        <path fill="#EC4C6F" fill-rule="nonzero" stroke="#EC4C6F" stroke-width=".5" d="M22.497 29c.278 0 .503.224.503.5s-.225.5-.503.5h-.994a.502.502 0 0 1-.503-.5c0-.276.225-.5.503-.5h.994zm10.952 0c.304 0 .551.224.551.5s-.247.5-.55.5h-8.9c-.303 0-.55-.224-.55-.5s.247-.5.55-.5h8.9zm-10.952-5c.278 0 .503.224.503.5s-.225.5-.503.5h-.994a.502.502 0 0 1-.503-.5c0-.276.225-.5.503-.5h.994zm10.952 0c.304 0 .551.224.551.5s-.247.5-.55.5h-8.9c-.303 0-.55-.224-.55-.5s.247-.5.55-.5h8.9zM22.497 34c.278 0 .503.224.503.5s-.225.5-.503.5h-.994a.502.502 0 0 1-.503-.5c0-.276.225-.5.503-.5h.994zm10.952 0c.304 0 .551.224.551.5s-.247.5-.55.5h-8.9c-.303 0-.55-.224-.55-.5s.247-.5.55-.5h8.9z"/>
    </g>
</svg>
