<svg xmlns="http://www.w3.org/2000/svg" width="58" height="58" viewBox="0 0 58 58">
    <g fill="none" fill-rule="evenodd">
        <circle cx="29" cy="29" r="29" fill="#EC4C6F"/>
        <path fill="#FFF" stroke="#EC4C6F" stroke-width=".2" d="M19.656 28.176v6.641a1.227 1.227 0 0 0-.812 1.148v.61h.812v-.61a.4.4 0 0 1 .407-.406h2.03a.4.4 0 0 1 .407.406v.61h.813v-.61c0-.526-.342-.979-.813-1.148v-6.64c.471-.17.813-.623.813-1.15v-.608H22.5v.609a.4.4 0 0 1-.406.406h-2.032a.4.4 0 0 1-.406-.406v-.61h-.812v.61c0 .526.341.98.812 1.148zm-2.38 10.43h-.863a.406.406 0 1 0 0 .813h24.362a.406.406 0 1 0 0-.813h-.864a.408.408 0 0 0 .008-.014c.074-.126.074-1.283 0-1.41a.406.406 0 0 0-.356-.2H17.625a.406.406 0 0 0-.357.2c-.073.127-.073 1.284 0 1.41l.009.014zm9.896-10.43v6.641a1.227 1.227 0 0 0-.813 1.148v.61h.813v-.61a.4.4 0 0 1 .406-.406h2.031a.4.4 0 0 1 .407.406v.61h.812v-.61c0-.526-.341-.979-.812-1.148v-6.64c.47-.17.812-.623.812-1.15v-.608h-.812v.609a.4.4 0 0 1-.407.406h-2.03a.4.4 0 0 1-.407-.406v-.61h-.813v.61c0 .526.342.98.813 1.148zm7.922 6.57h2.031c.668 0 1.219.551 1.219 1.22v.609h-.813v-.61a.4.4 0 0 0-.406-.406h-2.031a.4.4 0 0 0-.407.406v.61h-.812v-.61c0-.668.55-1.218 1.219-1.218zm-1.219-8.327h.813v.609a.4.4 0 0 0 .406.406h2.031a.4.4 0 0 0 .406-.406v-.61h.813v.61c0 .668-.55 1.219-1.219 1.219h-2.031c-.669 0-1.219-.55-1.219-1.22v-.608z"/>
        <path fill="#FFF" d="M35.11 27.84h-.422v7.313h2.843V27.84H35.11z"/>
        <path fill="#FFF" fill-rule="nonzero" d="M28.567 18.701a.406.406 0 0 0-.145.037l-11.375 5.281a.406.406 0 0 0-.235.368v1.22c0 .223.182.405.407.405h22.75a.406.406 0 0 0 .406-.406v-1.219a.406.406 0 0 0-.235-.368l-11.375-5.281a.406.406 0 0 0-.198-.037z"/>
        <path fill="#EC4C6F" fill-rule="nonzero" d="M28.594 21.137c-.893 0-1.625.733-1.625 1.625 0 .893.732 1.625 1.625 1.625.892 0 1.625-.732 1.625-1.625 0-.892-.733-1.625-1.625-1.625z"/>
    </g>
</svg>
