<svg xmlns="http://www.w3.org/2000/svg" width="58" height="58" viewBox="0 0 58 58">
    <g fill="none" fill-rule="evenodd">
        <circle cx="29" cy="29" r="29" fill="#777797"/>
        <g fill="#FFF" stroke="#FFF" stroke-width=".2">
            <path d="M34.688 27.84v7.313h.812V27.84zM36.719 27.84v7.313h.812V27.84z"/>
            <path d="M35.094 34.747c-.669 0-1.219.55-1.219 1.218v.61h.813v-.61a.4.4 0 0 1 .406-.406h2.031a.4.4 0 0 1 .406.406v.61h.813v-.61c0-.668-.55-1.218-1.219-1.218h-2.031zM33.875 26.419v.609c0 .668.55 1.219 1.219 1.219h2.031c.668 0 1.219-.55 1.219-1.22v-.608h-.813v.609a.4.4 0 0 1-.406.406h-2.031a.4.4 0 0 1-.407-.406v-.61h-.812zM27.172 27.84v7.313h.812V27.84zM29.203 27.84v7.313h.813V27.84z"/>
            <path d="M27.578 34.747c-.668 0-1.219.55-1.219 1.218v.61h.813v-.61a.4.4 0 0 1 .406-.406h2.031a.4.4 0 0 1 .407.406v.61h.812v-.61c0-.668-.55-1.218-1.219-1.218h-2.03zM26.36 26.419v.609c0 .668.55 1.219 1.218 1.219h2.031c.669 0 1.22-.55 1.22-1.22v-.608h-.813v.609a.4.4 0 0 1-.407.406h-2.03a.4.4 0 0 1-.407-.406v-.61h-.813z"/>
            <path fill-rule="nonzero" d="M16.413 38.606a.406.406 0 1 0 0 .813h24.362a.406.406 0 1 0 0-.813H16.413zM17.625 36.981a.406.406 0 1 0 0 .813h21.938a.406.406 0 1 0 0-.813H17.625z"/>
            <path d="M19.656 27.84v7.313h.813V27.84zM21.688 27.84v7.313h.812V27.84z"/>
            <path d="M20.063 34.747c-.669 0-1.22.55-1.22 1.218v.61h.813v-.61a.4.4 0 0 1 .407-.406h2.03a.4.4 0 0 1 .407.406v.61h.813v-.61c0-.668-.551-1.218-1.22-1.218h-2.03zM18.844 26.419v.609c0 .668.55 1.219 1.218 1.219h2.032c.668 0 1.219-.55 1.218-1.22v-.608H22.5v.609a.4.4 0 0 1-.406.406h-2.032a.4.4 0 0 1-.406-.406v-.61h-.812z"/>
            <path fill-rule="nonzero" d="M28.567 18.701a.406.406 0 0 0-.145.037l-11.375 5.281a.406.406 0 0 0-.235.368v1.22c0 .223.182.405.407.405h22.75a.406.406 0 0 0 .406-.406v-1.219a.406.406 0 0 0-.235-.368l-11.375-5.281a.406.406 0 0 0-.198-.037zm.027.854l10.968 5.093v.552H17.625v-.552l10.969-5.093z"/>
            <path fill-rule="nonzero" d="M28.594 21.137c-.893 0-1.625.733-1.625 1.625 0 .893.732 1.625 1.625 1.625.892 0 1.625-.732 1.625-1.625 0-.892-.733-1.625-1.625-1.625zm0 .813c.453 0 .812.359.812.812a.806.806 0 0 1-.812.813.806.806 0 0 1-.813-.813c0-.453.36-.812.813-.812z"/>
        </g>
    </g>
</svg>
