<svg xmlns="http://www.w3.org/2000/svg" width="25" height="26" viewBox="0 0 25 26">
    <g fill="#EC4C6F" fill-rule="evenodd" stroke="#EC4C6F">
        <path fill-rule="nonzero" stroke-width=".4" d="M23.515 25.005V14.251a.25.25 0 0 0-.25-.25h-3.001a.25.25 0 0 0-.25.25v2.251h-2.751a.25.25 0 0 0-.25.25v8.253h-1V10.25a.25.25 0 0 0-.25-.25H12.76a.25.25 0 0 0-.25.25v8.753h-2.75a.25.25 0 0 0-.25.25v5.752H8.51v-9.253a.25.25 0 0 0-.25-.25H5.259a.25.25 0 0 0-.25.25v1.75H2.258a.25.25 0 0 0-.25.25v7.253h-.754a.25.25 0 1 0 0 .5H23.76a.25.25 0 1 0 0-.5h-.746.5zM13.012 10.5h2.5v14.505h-2.5V10.5zm7.502 4.002h2.5v10.503h-2.5V14.502zm-15.005 1.5h2.5v9.003h-2.5v-9.003zm12.895 1h.707l-1.598 1.599v-.708l.891-.89zm1.415 0h.195v.512l-2.5 2.502v-.707l2.305-2.307zm-16.42 1h.707l-1.598 1.599v-.707l.89-.891zm1.414 0h.196v.513l-2.501 2.501v-.707l2.305-2.306zm15.2.22v.707l-2.5 2.502v-.708l2.5-2.501zm-15.004 1v.707l-2.501 2.502v-.707l2.5-2.502zm5.002.281h.183l-.183.184v-.184zm.89 0h.708l-1.598 1.598v-.707l.89-.89zm1.415 0h.195v.512l-2.5 2.502v-.707l2.305-2.307zm7.698.133v.708l-1.88 1.88-.62.621v-.707l.267-.268 2.233-2.234zm-15.005 1v.709l-1.88 1.88-.621.62v-.707l.268-.267 2.233-2.235zm7.502.086v.708l-2.5 2.501v-.707l2.5-2.502zm7.503.33v.707l-1.172 1.172-1.329 1.329v-.708l.268-.267.707-.707 1.526-1.526zm-15.005 1v.707l-1.172 1.172-1.074 1.074h-.255v-.452l.268-.268.707-.707 1.526-1.526zm7.502.085v.708l-1.88 1.88-.28.28h-.34v-.366l.267-.268 2.233-2.234zm7.503.33v.706l-.465.465-1.367 1.367h-.669v-.038l1.682-1.682.819-.819zm-15.005 1v.707l-.465.465-.367.366H3.47l.72-.72.819-.819zm7.502.085v.708l-.745.745h-.707l1.452-1.453zm7.503.329v.707l-.417.417h-.707l1.013-1.013.11-.111zm-15.005 1v.124h-.124l.012-.013.112-.111zm7.502.086v.038h-.038l.038-.038z"/>
        <path stroke-width=".3" d="M13.914 1c-.41 0-.728.38-.713.713a.705.705 0 0 0 .713.643h1.913L9.82 8.004l-2.161-1.8a.69.69 0 0 0-.565-.24.684.684 0 0 0-.41.176l-4.518 4.067c-.278.233-.313.705-.071.975s.712.285.974.035l4.089-3.679L9.33 9.353c.24.277.716.301.982.05l6.538-6.144v2.034a.703.703 0 0 0 .678.685.702.702 0 0 0 .678-.685V1.678A.704.704 0 0 0 17.529 1h-3.615z"/>
    </g>
</svg>
