<svg xmlns="http://www.w3.org/2000/svg" width="29" height="29" viewBox="0 0 29 29">
    <g fill="none" fill-rule="evenodd" stroke="#606085">
        <path stroke-linecap="round" stroke-linejoin="round" stroke-width="1.5" d="M14.875 28.08h-1.964c-.417 0-.774-1.298-.834-1.774l-.357-3.036c-.06-.476-.357-.893-.774-1.071a7.194 7.194 0 0 1-1.785-1.19c-1.786-1.548-2.977-3.87-2.977-6.43 0-4.82 4.048-8.69 8.93-8.452.832.06 1.666.238 2.44.477l2.033.964M15.482 28.08c.417 0 1.833 0 1.833-1.774 0-1.183.12-2.194.358-3.036.06-.476.357-.893.773-1.071A8.527 8.527 0 0 0 23.15 14.4c-.06-2.857-1.548-5.357-3.81-6.845m-4.821-4.155v-2.38m8.69 6.19l1.667-1.667m.762 10.048l2.38.178m-27 .06L3.4 15.65m1.428-7.44L3.161 6.544"/>
        <path stroke-linecap="square" stroke-width="1.3" d="M8.4 18.468c.576-1.951 1.089-3.103 1.538-3.456.702-.552 1.313 1.716 2.416 2.814.61.608 1.532-4.142 2.286-5.148.78-1.042 1.095 3.772 2.544 3.775.383 0 1.363-4.367 2.054-5.953"/>
        <path stroke-linecap="round" stroke-width="1.3" d="M12.465 25.054l5.07-.108"/>
    </g>
</svg>
