<svg xmlns="http://www.w3.org/2000/svg" width="20" height="24" viewBox="0 0 20 24">
    <g fill="none" fill-rule="evenodd">
        <path fill="#EC4C6F" fill-rule="nonzero" d="M9.943.004a.503.503 0 0 0-.177.04L.354 4.034A.58.58 0 0 0 0 4.56c0 6.156.386 9.7 1.834 12.403 1.46 2.693 3.93 4.415 7.848 6.946a.6.6 0 0 0 .636 0c3.929-2.531 6.389-4.253 7.848-6.946C19.614 14.26 20 10.716 20 4.56a.57.57 0 0 0-.344-.527L10.234.044c-.083-.04-.187-.05-.291-.04z"/>
        <path fill="#FFF" d="M9.505 6C8.678 6 8 6.661 8 7.48l.307 5.334c0 .65.53 1.186 1.198 1.186.658 0 1.188-.535 1.188-1.186L11 7.48C11 6.661 10.322 6 9.505 6zM9.505 15C8.678 15 8 15.67 8 16.5S8.678 18 9.505 18c.817 0 1.495-.67 1.495-1.5S10.322 15 9.505 15z"/>
    </g>
</svg>
