<svg xmlns="http://www.w3.org/2000/svg" width="20" height="25" viewBox="0 0 20 25">
    <path fill="#606085" fill-rule="nonzero" d="M9.798.004a.484.484 0 0 0-.175.04L.35 4.092A.589.589 0 0 0 0 4.625c0 6.245.38 9.84 1.808 12.582 1.437 2.732 3.872 4.478 7.733 7.045a.577.577 0 0 0 .627 0c3.872-2.567 6.296-4.313 7.733-7.045 1.428-2.742 1.808-6.337 1.808-12.582 0-.226-.134-.451-.339-.534L10.086.045C10.003.004 9.9-.007 9.798.004zm.061 1.54l8.41 3.672c-.01 5.753-.398 8.997-1.612 11.316-1.194 2.289-3.284 3.842-6.798 6.19-3.523-2.348-5.603-3.901-6.807-6.19C1.848 14.213 1.46 10.969 1.44 5.216l8.42-3.672zm0 4.55c-.8 0-1.458.647-1.458 1.448L8.7 12.76c0 .636.514 1.16 1.16 1.16.637 0 1.15-.524 1.15-1.16l.299-5.218c0-.8-.658-1.448-1.448-1.448zm0 8.689c-.8 0-1.458.647-1.458 1.448a1.453 1.453 0 1 0 2.907 0c0-.801-.658-1.448-1.448-1.448z"/>
</svg>
