<svg xmlns="http://www.w3.org/2000/svg" width="24" height="25" viewBox="0 0 24 25">
    <g fill="none" fill-rule="nonzero">
        <path stroke="#606085" stroke-width="1.5" d="M22.712 8.603l-2.634-1.925-1.042-3.135c-.11-.275-.33-.495-.658-.495h-3.292l-2.633-1.924c-.22-.165-.549-.165-.823 0L8.997 3.048H5.705a.69.69 0 0 0-.658.495L4.004 6.678 1.371 8.603c-.22.164-.329.494-.274.77l.987 3.134-1.042 3.134c-.11.275 0 .605.274.77l2.634 1.925 1.042 3.134c.11.275.33.495.658.495h3.292l2.633 1.925c.11.11.274.11.384.11.11 0 .274-.055.384-.11l2.633-1.925h3.292a.69.69 0 0 0 .658-.495l1.043-3.134 2.633-1.925c.22-.165.33-.495.274-.77l-.932-3.134 1.042-3.135c.055-.275-.055-.605-.274-.77z"/>
        <path fill="#606085" d="M15.529 13C14.092 13 13 14.087 13 15.5s1.092 2.5 2.529 2.5C16.966 18 18 16.913 18 15.5S16.908 13 15.529 13zm0 3.641c-.632 0-1.092-.489-1.092-1.141 0-.707.402-1.141 1.092-1.141.632 0 1.034.489 1.034 1.141s-.46 1.141-1.034 1.141zM11 9.5C11 8.087 9.908 7 8.529 7 7.092 7 6 8.087 6 9.5S7.092 12 8.529 12C9.908 11.946 11 10.913 11 9.5zm-3.563 0c0-.707.402-1.141 1.092-1.141.632 0 1.034.489 1.034 1.141s-.402 1.141-1.034 1.141c-.632-.054-1.092-.489-1.092-1.141zM15.726 6.138c-.304-.23-.659-.172-.862.171L8.122 16.911c-.203.344-.152.745.152.974.101.115.253.115.355.115a.604.604 0 0 0 .507-.287l6.742-10.601a.731.731 0 0 0-.152-.974z"/>
    </g>
</svg>
