<svg xmlns="http://www.w3.org/2000/svg" width="22" height="23" viewBox="0 0 22 23">
    <g fill="none" fill-rule="nonzero">
        <path fill="#EC4C6F" d="M21.712 7.603l-2.634-1.925-1.042-3.135c-.11-.275-.33-.495-.658-.495h-3.292L11.453.124c-.22-.165-.549-.165-.823 0L7.997 2.048H4.705a.69.69 0 0 0-.658.495L3.004 5.678.371 7.603c-.22.164-.329.494-.274.77l.987 3.134L.042 14.64c-.11.275 0 .605.274.77l2.634 1.925 1.042 3.134c.11.275.33.495.658.495h3.292l2.633 1.925c.11.11.274.11.384.11.11 0 .274-.055.384-.11l2.633-1.925h3.292a.69.69 0 0 0 .658-.495l1.043-3.134 2.633-1.925c.22-.165.33-.495.274-.77l-.932-3.134 1.042-3.135c.055-.275-.055-.605-.274-.77z"/>
        <path fill="#FFF" d="M14.529 12C13.092 12 12 13.087 12 14.5s1.092 2.5 2.529 2.5C15.966 17 17 15.913 17 14.5S15.908 12 14.529 12zm0 3.641c-.632 0-1.092-.489-1.092-1.141 0-.707.402-1.141 1.092-1.141.632 0 1.034.489 1.034 1.141s-.46 1.141-1.034 1.141zM10 8.5C10 7.087 8.908 6 7.529 6 6.092 6 5 7.087 5 8.5S6.092 11 7.529 11C8.908 10.946 10 9.913 10 8.5zm-3.563 0c0-.707.402-1.141 1.092-1.141.632 0 1.034.489 1.034 1.141S8.161 9.641 7.53 9.641c-.632-.054-1.092-.489-1.092-1.141zM14.726 5.138c-.304-.23-.659-.172-.862.171L7.122 15.911c-.203.344-.152.745.152.974.101.115.253.115.355.115a.604.604 0 0 0 .507-.287l6.742-10.601a.731.731 0 0 0-.152-.974z"/>
    </g>
</svg>
