<svg xmlns="http://www.w3.org/2000/svg" width="16" height="18" viewBox="0 0 16 18">
    <g fill="none" fill-rule="nonzero" stroke-width=".5">
        <path fill="#EC4C6F" stroke="#EC4C6F" d="M14.818 2.94A1.93 1.93 0 0 0 12.9 1h-9.98A1.93 1.93 0 0 0 1 2.94v12.12C1 16.13 1.86 17 2.92 17h9.979a1.93 1.93 0 0 0 1.92-1.94V2.94z"/>
        <path fill="#FFF" stroke="#FFF" d="M4.27 9c.203 0 .366.163.366.364 0 .2-.163.363-.366.363h-.722a.365.365 0 0 1-.366-.363c0-.201.164-.364.366-.364h.722zm7.966 0c.221 0 .4.163.4.364 0 .2-.179.363-.4.363H5.764c-.221 0-.4-.163-.4-.363 0-.201.179-.364.4-.364h6.472zM4.27 5.364c.203 0 .366.162.366.363 0 .201-.163.364-.366.364h-.722a.365.365 0 0 1-.366-.364c0-.2.164-.363.366-.363h.722zm7.966 0c.221 0 .4.162.4.363 0 .201-.179.364-.4.364H5.764c-.221 0-.4-.163-.4-.364 0-.2.179-.363.4-.363h6.472zM4.27 12.636c.203 0 .366.163.366.364 0 .2-.163.364-.366.364h-.722A.365.365 0 0 1 3.182 13c0-.2.164-.364.366-.364h.722zm7.966 0c.221 0 .4.163.4.364 0 .2-.179.364-.4.364H5.764c-.221 0-.4-.163-.4-.364 0-.2.179-.364.4-.364h6.472z"/>
    </g>
</svg>
