<svg xmlns="http://www.w3.org/2000/svg" width="15" height="17" viewBox="0 0 15 17">
    <g fill="none" fill-rule="nonzero" stroke="#606085">
        <path fill="#FFF" stroke-width="1.4" d="M14 2.825A1.816 1.816 0 0 0 12.194 1H2.806C1.808 1 1 1.817 1 2.825v11.402c0 1.008.808 1.826 1.806 1.826h9.388c.998 0 1.806-.818 1.806-1.826V2.825z"/>
        <path fill="#606085" stroke-width=".5" d="M4.077 8.526c.19 0 .344.153.344.342a.343.343 0 0 1-.344.343h-.68a.343.343 0 0 1-.344-.343c0-.189.154-.342.344-.342h.68zm7.493 0c.209 0 .377.153.377.342 0 .19-.168.343-.377.343H5.482c-.208 0-.377-.154-.377-.343 0-.189.169-.342.377-.342h6.088zm-7.493-3.42c.19 0 .344.152.344.341a.343.343 0 0 1-.344.342h-.68a.343.343 0 0 1-.344-.342c0-.189.154-.342.344-.342h.68zm7.493 0c.209 0 .377.152.377.341 0 .19-.168.342-.377.342H5.482c-.208 0-.377-.153-.377-.342 0-.189.169-.342.377-.342h6.088zm-7.493 6.841c.19 0 .344.154.344.342a.343.343 0 0 1-.344.343h-.68a.343.343 0 0 1-.344-.343c0-.188.154-.342.344-.342h.68zm7.493 0c.209 0 .377.154.377.342 0 .19-.168.343-.377.343H5.482c-.208 0-.377-.154-.377-.343 0-.188.169-.342.377-.342h6.088z"/>
    </g>
</svg>
