<svg xmlns="http://www.w3.org/2000/svg" width="15" height="16" viewBox="0 0 15 16">
    <g fill="#606085" fill-rule="nonzero">
        <path d="M15 5.741V3.314c0-1.254-1.106-2.275-2.481-2.31v1.432c0 .813-.662 1.475-1.476 1.475a1.477 1.477 0 0 1-1.475-1.475V1H5.384V2.436c0 .813-.662 1.475-1.475 1.475a1.477 1.477 0 0 1-1.476-1.475V1.006C1.081 1.063 0 2.075 0 3.314v10.133A2.557 2.557 0 0 0 2.553 16h9.894A2.557 2.557 0 0 0 15 13.447V5.74zm-1.111 7.706c0 .795-.647 1.442-1.442 1.442H2.554a1.444 1.444 0 0 1-1.443-1.442V5.74H13.89v7.706z"/>
        <path d="M3 .614V2.386c0 .34.224.614.5.614s.5-.275.5-.614V.614C4 .274 3.776 0 3.5 0S3 .275 3 .614zM10.5 0c-.276 0-.5.275-.5.614V2.386c0 .34.224.614.5.614s.5-.275.5-.614V.614c0-.34-.224-.614-.5-.614zM5.977 14c.668 0 1.172-.218 1.512-.654.34-.436.511-.942.511-1.517 0-.547-.146-.978-.437-1.294a1.958 1.958 0 0 0-.215-.203c-.117-.092-.126-.158-.015-.258.061-.056.122-.125.182-.205.203-.275.305-.612.305-1.013 0-.565-.17-1.016-.51-1.352C6.968 7.168 6.52 7 5.964 7a2 2 0 0 0-.757.127 1.504 1.504 0 0 0-.532.365c-.2.225-.347.47-.441.737a3.753 3.753 0 0 0-.128.662c-.017.165.095.299.236.299h.554c.142 0 .25-.135.271-.3.025-.198.08-.366.167-.502.127-.2.325-.3.594-.3.235 0 .417.081.546.244.13.162.194.373.194.633 0 .4-.127.666-.38.797-.11.058-.283.096-.519.115-.14.01-.256.145-.256.31v.358c0 .165.115.298.257.307.25.016.442.055.575.119.31.15.464.449.464.895 0 .338-.084.597-.25.777a.775.775 0 0 1-.586.27c-.366 0-.618-.165-.756-.493a1.442 1.442 0 0 1-.095-.376c-.02-.164-.132-.3-.274-.3h-.61c-.142 0-.253.135-.238.299.039.406.126.744.262 1.014.32.629.892.943 1.714.943zM9.303 8.862h1.01c.168 0 .303.118.303.264v3.61c0 .146.136.264.303.264h.779c.166 0 .302-.118.302-.264V7.264c0-.146-.136-.264-.302-.264h-.524c-.166 0-.304.055-.32.12-.009.036-.02.075-.034.12-.06.18-.149.323-.265.43-.17.157-.39.262-.662.315a4.891 4.891 0 0 1-.591.06c-.167.01-.302.133-.302.278v.274c0 .147.136.265.303.265z"/>
    </g>
</svg>
