<svg xmlns="http://www.w3.org/2000/svg" width="24" height="24" viewBox="0 0 24 24">
    <g fill="#606085" fill-rule="nonzero" stroke="#606085" stroke-width=".4">
        <path d="M11.689 10.551a.439.439 0 0 0 .622 0l1.76-1.76a.44.44 0 1 0-.622-.622L12.44 9.178V4.96a.44.44 0 0 0-.88 0v4.218l-1.009-1.01a.44.44 0 1 0-.622.623l1.76 1.76zM12.311 13.449a.44.44 0 0 0-.622 0l-1.76 1.76a.44.44 0 1 0 .622.622l1.009-1.009v4.218a.44.44 0 1 0 .88 0v-4.218l1.009 1.01a.439.439 0 0 0 .622 0 .44.44 0 0 0 0-.623l-1.76-1.76zM19.04 11.56h-4.218l1.01-1.009a.44.44 0 1 0-.623-.622l-1.76 1.76a.44.44 0 0 0 0 .622l1.76 1.76a.439.439 0 0 0 .622 0 .44.44 0 0 0 0-.622l-1.009-1.009h4.218a.44.44 0 1 0 0-.88zM10.551 11.689l-1.76-1.76a.44.44 0 1 0-.622.622l1.009 1.009H4.96a.44.44 0 0 0 0 .88h4.218l-1.01 1.009a.44.44 0 1 0 .623.622l1.76-1.76a.44.44 0 0 0 0-.622z"/>
        <path d="M12 1C5.935 1 1 5.935 1 12s4.935 11 11 11 11-4.935 11-11S18.065 1 12 1zm0 21.12C6.42 22.12 1.88 17.58 1.88 12 1.88 6.42 6.42 1.88 12 1.88c5.58 0 10.12 4.54 10.12 10.12 0 5.58-4.54 10.12-10.12 10.12z"/>
    </g>
</svg>
