<svg xmlns="http://www.w3.org/2000/svg" width="24" height="22" viewBox="0 0 24 22">
    <g fill="#EC4C4C" fill-rule="nonzero" stroke="#EC4C4C" stroke-width=".5">
        <path d="M4.242 21.032H19.73c1.129 0 2.113-.58 2.692-1.535.55-.955.579-2.113 0-3.097L14.663 2.795c-.55-.984-1.563-1.563-2.692-1.563-1.129 0-2.142.579-2.692 1.563L1.52 16.4a3.113 3.113 0 0 0 0 3.097c.608.956 1.621 1.535 2.721 1.535zm-1.94-4.198L10.062 3.23A2.238 2.238 0 0 1 12 2.1c.81 0 1.534.434 1.94 1.129l7.757 13.605a2.195 2.195 0 0 1 0 2.23 2.211 2.211 0 0 1-1.94 1.1H4.243c-.81 0-1.534-.406-1.94-1.1a2.195 2.195 0 0 1 0-2.23z"/>
        <path d="M11.855 13.882a.445.445 0 0 0 .434-.435v-5.5a.445.445 0 0 0-.434-.434.445.445 0 0 0-.434.434v5.5c0 .232.203.435.434.435zM11.855 17.066a.445.445 0 0 0 .434-.434v-.869a.445.445 0 0 0-.434-.434.445.445 0 0 0-.434.434v.869c0 .231.203.434.434.434z"/>
    </g>
</svg>
