<svg xmlns="http://www.w3.org/2000/svg" width="20" height="16" viewBox="0 0 25 20">
    <g fill="none" fill-rule="evenodd">
        <path fill="#EC4C6F" d="M18.25 9.083H19v6.75h-.75v-6.75zm1.875 0h.75v6.75h-.75v-6.75z"/>
        <path fill="#EC4C6F" stroke="#EC4C6F" stroke-width=".2" d="M5.125 9.458v6H6.25v-6H5.125zm-.75-.065a1.132 1.132 0 0 1-.75-1.06v-.562h.75v.562a.37.37 0 0 0 .375.375h1.875A.37.37 0 0 0 7 8.333v-.562h.75v.562c0 .486-.315.904-.75 1.06v6.13c.435.157.75.575.75 1.06v.563H7v-.563a.37.37 0 0 0-.375-.375H4.75a.37.37 0 0 0-.375.375v.563h-.75v-.563c0-.485.315-.903.75-1.06v-6.13zm7.688.065v6h1.124v-6h-1.124zm-.75-.065a1.132 1.132 0 0 1-.75-1.06v-.562h.75v.562a.37.37 0 0 0 .374.375h1.876a.37.37 0 0 0 .374-.375v-.562h.75v.562c0 .486-.314.904-.75 1.06v6.13c.436.157.75.575.75 1.06v.563h-.75v-.563a.37.37 0 0 0-.374-.375h-1.876a.37.37 0 0 0-.374.375v.563h-.75v-.563c0-.485.314-.903.75-1.06v-6.13zm7.312 6.065H20.5a1.13 1.13 0 0 1 1.125 1.125v.563h-.75v-.563a.37.37 0 0 0-.375-.375h-1.875a.37.37 0 0 0-.375.375v.563h-.75v-.563a1.13 1.13 0 0 1 1.125-1.125zM17.5 7.771h.75v.562a.37.37 0 0 0 .375.375H20.5a.37.37 0 0 0 .375-.375v-.562h.75v.562A1.13 1.13 0 0 1 20.5 9.458h-1.875A1.13 1.13 0 0 1 17.5 8.333v-.562zM1.38 19.021h22.49a.375.375 0 1 1 0 .75H1.38a.375.375 0 1 1 0-.75zm1.12-1.5h20.25a.375.375 0 1 1 0 .75H2.5a.375.375 0 1 1 0-.75z"/>
        <path fill="#EC4C6F" fill-rule="nonzero" d="M12.6.647a.375.375 0 0 0-.133.034l-10.5 4.875a.375.375 0 0 0-.217.34v1.125c0 .207.168.375.375.375h21a.375.375 0 0 0 .375-.375V5.896a.375.375 0 0 0-.217-.34L12.783.681A.375.375 0 0 0 12.6.647z"/>
        <path fill="#FFF" fill-rule="nonzero" d="M12.625 2.896c-.824 0-1.5.676-1.5 1.5s.676 1.5 1.5 1.5 1.5-.676 1.5-1.5-.676-1.5-1.5-1.5z"/>
    </g>
</svg>
