<?xml version="1.0" encoding="UTF-8"?>
<svg width="20px" height="20px" viewBox="0 0 20 20" version="1.1" xmlns="http://www.w3.org/2000/svg" xmlns:xlink="http://www.w3.org/1999/xlink">
    <!-- Generator: Sketch 49.2 (51160) - http://www.bohemiancoding.com/sketch -->
    <title>Icon</title>
    <desc>Created with Sketch.</desc>
    <defs>
        <path d="M10,0 C4.486,0 0,4.486 0,10 C0,15.514 4.486,20 10,20 C15.514,20 20,15.514 20,10 C20,4.486 15.514,0 10,0 M10,18 C5.589,18 2,14.411 2,10 C2,5.589 5.589,2 10,2 C14.411,2 18,5.589 18,10 C18,14.411 14.411,18 10,18 M10,5 C9.448,5 9,5.447 9,6 L9,10 C9,10.553 9.448,11 10,11 C10.552,11 11,10.553 11,10 L11,6 C11,5.447 10.552,5 10,5 M10,13 C9.448,13 9,13.447 9,14 C9,14.553 9.448,15 10,15 C10.552,15 11,14.553 11,14 C11,13.447 10.552,13 10,13" id="path-1"></path>
    </defs>
    <g id="Backend-Project-Screens" stroke="none" stroke-width="1" fill="none" fill-rule="evenodd">
        <g id="Error-open-state" transform="translate(-150.000000, -220.000000)">
            <g id="Icon" transform="translate(150.000000, 220.000000)">
                <circle id="Fill" fill="#FFFFFF" cx="10" cy="10" r="9"></circle>
                <mask id="mask-2" fill="white">
                    <use xlink:href="#path-1"></use>
                </mask>
                <use fill="#BF0711" xlink:href="#path-1"></use>
            </g>
        </g>
    </g>
</svg>