<svg xmlns="http://www.w3.org/2000/svg" width="18" height="16" viewBox="0 0 18 16">
    <path fill="#606085" fill-rule="nonzero" stroke="#606085" stroke-width=".5" d="M15.48 8.287H7.485a.41.41 0 1 1 0-.82h7.892l-2.09-2.059a.41.41 0 0 1-.006-.58v-.001a.409.409 0 0 1 .579-.005l2.848 2.805.293.289-.29.293-2.816 2.85v.001a.409.409 0 0 1-.579.002.41.41 0 0 1-.002-.58l2.168-2.195zm-3.926-6.105c.153.1.324.226.324.226s.135.382.006.55c-.12.157-.498.106-.507.099a5.5 5.5 0 0 0-.269-.187 7.284 7.284 0 0 0-.758-.43c-.788-.388-1.604-.62-2.397-.62-1.379 0-2.892.526-4.034 1.472-1.337 1.106-2.1 2.7-2.1 4.723 0 3.56 2.753 6.164 6.134 6.164.843 0 1.669-.224 2.44-.6a6.416 6.416 0 0 0 .92-.547l.058-.045s.317-.017.456.14c.132.151.086.477.057.5-.06.048-.165.126-.312.223a7.23 7.23 0 0 1-.821.468c-.875.426-1.818.682-2.798.682C4.13 15 1 12.04 1 8.015c0-2.27.874-4.095 2.397-5.356C4.69 1.589 6.387 1 7.953 1c.934 0 1.867.264 2.758.703.31.152.592.315.843.479z"/>
</svg>
