<svg xmlns="http://www.w3.org/2000/svg" xmlns:xlink="http://www.w3.org/1999/xlink" width="114" height="114" viewBox="0 0 114 114">
    <defs>
        <circle id="b" cx="40" cy="40" r="40"/>
        <filter id="a" width="165%" height="165%" x="-32.5%" y="-30%" filterUnits="objectBoundingBox">
            <feMorphology in="SourceAlpha" operator="dilate" radius="1" result="shadowSpreadOuter1"/>
            <feOffset dy="2" in="shadowSpreadOuter1" result="shadowOffsetOuter1"/>
            <feMorphology in="SourceAlpha" radius="1" result="shadowInner"/>
            <feOffset dy="2" in="shadowInner" result="shadowInner"/>
            <feComposite in="shadowOffsetOuter1" in2="shadowInner" operator="out" result="shadowOffsetOuter1"/>
            <feGaussianBlur in="shadowOffsetOuter1" result="shadowBlurOuter1" stdDeviation="8"/>
            <feColorMatrix in="shadowBlurOuter1" values="0 0 0 0 0.925490196 0 0 0 0 0.298039216 0 0 0 0 0.435294118 0 0 0 0.303017437 0"/>
        </filter>
    </defs>
    <g fill="none" fill-rule="evenodd">
        <g transform="translate(17 15)">
            <use fill="#000" filter="url(#a)" xlink:href="#b"/>
            <use stroke="#EC4C6F" stroke-width="2" xlink:href="#b"/>
        </g>
        <path fill="#EC4C6F" fill-rule="nonzero" stroke="#EC4C6F" d="M67.91 49.781v-3.846C67.91 40.457 63.014 36 57 36c-6.015 0-10.91 4.457-10.91 9.935a.683.683 0 1 0 1.365 0c0-4.723 4.281-8.565 9.545-8.565s9.545 3.842 9.545 8.565v3.769H46.93c-2.718 0-4.929 2.222-4.929 4.953v13.39C42 70.777 44.211 73 46.929 73H67.07C69.79 73 72 70.778 72 68.047v-13.39a4.95 4.95 0 0 0-4.09-4.876zm2.726 18.266c0 1.975-1.6 3.583-3.565 3.583H46.93c-1.966 0-3.565-1.608-3.565-3.583v-13.39c0-1.975 1.6-3.583 3.565-3.583H67.07c1.966 0 3.565 1.608 3.565 3.583v13.39z"/>
        <path fill="#EC4C6F" fill-rule="nonzero" stroke="#EC4C6F" d="M57 56c-1.654 0-3 1.281-3 2.857v4.286C54 64.719 55.346 66 57 66s3-1.281 3-2.857v-4.286C60 57.281 58.654 56 57 56zm1.5 7.143c0 .788-.673 1.428-1.5 1.428s-1.5-.64-1.5-1.428v-4.286c0-.788.673-1.428 1.5-1.428s1.5.64 1.5 1.428v4.286z"/>
    </g>
</svg>
