<svg xmlns="http://www.w3.org/2000/svg" width="16" height="17" viewBox="0 0 16 17">
    <g fill="#606085" fill-rule="nonzero">
        <path d="M0 16.388V17h16v-.612C16 12.265 13.169 10 8.011 10 2.853 10 0 12.265 0 16.388zm7.989-5.164c4.17 0 6.387 1.531 6.65 4.552H1.34c.263-3.02 2.48-4.552 6.65-4.552zM12 4.365C12 1.89 10.274 0 8 0S4 1.867 4 4.365C4 6.93 5.79 9 8 9s4-2.07 4-4.635zm-6.737 0C5.263 2.632 6.421 1.35 8 1.35c1.579 0 2.737 1.282 2.737 3.015C10.737 6.187 9.516 7.65 8 7.65S5.263 6.187 5.263 4.365z"/>
    </g>
</svg>
