<svg xmlns="http://www.w3.org/2000/svg" viewBox="1864 4165 12 12">
  <defs>
    <style>
      .cls-1 {
        fill: #ddd;
      }
    </style>
  </defs>
  <path id="path" class="cls-1" d="M11.571,1157.868,15,1161.277l-1.029,1.023-3.429-3.409v-.546l-.206-.2a4.377,4.377,0,0,1-2.88,1.023,4.153,4.153,0,0,1-3.154-1.3,4.484,4.484,0,0,1-1.3-3.136,4.106,4.106,0,0,1,1.3-3.136,4.535,4.535,0,0,1,3.154-1.3,4.257,4.257,0,0,1,3.154,1.3,4.484,4.484,0,0,1,1.3,3.136,4.322,4.322,0,0,1-1.029,2.864l.206.2h.48Zm-6.309-.886a2.9,2.9,0,0,0,2.194.886,3.01,3.01,0,0,0,2.194-.886,3.116,3.116,0,0,0,0-4.364,2.905,2.905,0,0,0-2.194-.886,3.01,3.01,0,0,0-2.194.886,2.872,2.872,0,0,0-.891,2.182A3.145,3.145,0,0,0,5.263,1156.982Z" transform="translate(1861 3014.7)"/>
</svg>
