<?xml version="1.0" encoding="UTF-8"?>
<svg width="16px" height="16px" viewBox="0 0 16 16" version="1.1" xmlns="http://www.w3.org/2000/svg" xmlns:xlink="http://www.w3.org/1999/xlink">
    <!-- Generator: Sketch 47.1 (45422) - http://www.bohemiancoding.com/sketch -->
    <title>icons / magnifying glass</title>
    <desc>Created with Sketch.</desc>
    <defs>
        <rect id="path-1" x="623" y="14" width="200" height="36" rx="3"></rect>
    </defs>
    <g id="Student-Profile" stroke="none" stroke-width="1" fill="none" fill-rule="evenodd">
        <g id="Concept-Overview-Copy-3" transform="translate(-631.000000, -24.000000)">
            <rect id="Rectangle-7-Copy-2" fill="#FFFFFF" x="0" y="0" width="992" height="60"></rect>
            <g id="Rectangle-13">
                <use fill="#FFFFFF" fill-rule="evenodd" xlink:href="#path-1"></use>
                <rect stroke="#979797" stroke-width="1" x="623.5" y="14.5" width="199" height="35" rx="3"></rect>
            </g>
            <g id="icons-/-magnifying-glass" transform="translate(631.000000, 24.000000)" fill="#3E3E5F" opacity="0.499207428">
                <path d="M6.000125,10 C3.791125,10 2.000125,8.209 2.000125,6 C2.000125,3.791 3.791125,2 6.000125,2 C8.209125,2 10.000125,3.791 10.000125,6 C10.000125,8.209 8.209125,10 6.000125,10 M15.707125,14.293 L10.887125,9.473 C11.585125,8.492 12.000125,7.296 12.000125,6 C12.000125,2.687 9.313125,0 6.000125,0 C2.687125,0 0.000125001953,2.687 0.000125001953,6 C0.000125001953,9.313 2.687125,12 6.000125,12 C7.296125,12 8.492125,11.585 9.473125,10.887 L14.293125,15.707 C14.488125,15.902 14.744125,16 15.000125,16 C15.256125,16 15.512125,15.902 15.707125,15.707 C16.098125,15.316 16.098125,14.684 15.707125,14.293" id="Icon"></path>
            </g>
        </g>
    </g>
</svg>