<svg xmlns="http://www.w3.org/2000/svg" width="22" height="22" viewBox="0 0 22 22">
    <path fill="#606085" fill-rule="nonzero" d="M21.645 19.986l-4.03-4.03c1.383-1.776 2.134-3.91 2.134-6.082C19.749 4.424 15.325 0 9.874 0 4.424 0 0 4.424 0 9.874c0 5.451 4.424 9.875 9.874 9.875 2.212 0 4.385-.75 6.083-2.133l4.029 4.029c.237.237.513.355.83.355.315 0 .592-.118.829-.355a1.145 1.145 0 0 0 0-1.66zM17.379 9.914a7.501 7.501 0 0 1-7.505 7.504A7.501 7.501 0 0 1 2.37 9.914a7.501 7.501 0 0 1 7.504-7.505 7.501 7.501 0 0 1 7.505 7.505z"/>
</svg>
