<svg xmlns="http://www.w3.org/2000/svg" width="16" height="16" viewBox="0 0 16 16">
    <path fill="#3E3E5F" fill-rule="evenodd" d="M13.257 8.381c0-.229.076-.457.076-.762s0-.533-.076-.762l1.6-1.295c.153-.152.153-.305.076-.457L13.41 2.438c-.077-.076-.229-.152-.458-.076l-1.904.762c-.381-.305-.838-.534-1.296-.762L9.448.38C9.524.152 9.295 0 9.143 0H6.095c-.152 0-.38.152-.38.305L5.41 2.362c-.458.152-.839.457-1.296.762l-1.828-.762c-.229-.076-.381 0-.534.152L.23 5.181c-.077.076 0 .305.152.457l1.6 1.22c0 .228-.076.456-.076.761s0 .533.076.762l-1.6 1.295c-.152.153-.152.305-.076.457L1.829 12.8c.076.076.228.152.457.076l1.904-.762c.381.305.839.534 1.296.762l.304 1.981c0 .153.153.305.381.305H9.22c.152 0 .381-.152.381-.305l.305-1.98c.457-.23.914-.458 1.295-.763l1.905.762c.152.076.38 0 .457-.152l1.524-2.667c.076-.152.076-.38-.076-.457l-1.753-1.219zM7.62 10.286c-1.448 0-2.667-1.22-2.667-2.667 0-1.448 1.22-2.667 2.667-2.667 1.448 0 2.667 1.22 2.667 2.667 0 1.448-1.22 2.667-2.667 2.667z"/>
</svg>
