<svg xmlns="http://www.w3.org/2000/svg" width="16" height="16" viewBox="0 0 16 16">
    <g fill="none" fill-rule="nonzero">
        <path fill="#606085" d="M15.7 6.405l-1.684-.54-.283-.688.8-1.578a.337.337 0 0 0-.06-.392l-.57-.57-1.189-1.189a.337.337 0 0 0-.387-.052l-1.577.814-.687-.292L9.524.234A.337.337 0 0 0 9.203 0H6.725a.337.337 0 0 0-.322.234l-.54 1.684-.686.285-1.576-.807a.337.337 0 0 0-.393.06l-1.756 1.75a.337.337 0 0 0-.056.393l.812 1.578-.29.687-1.684.541a.337.337 0 0 0-.234.32v2.48c0 .147.095.276.234.32l1.684.542.285.687-.807 1.578a.337.337 0 0 0 .06.392l1.752 1.759a.337.337 0 0 0 .393.06l1.578-.813.685.284.541 1.685c.045.139.174.233.32.234h2.48a.337.337 0 0 0 .32-.234l.54-1.685.687-.284 1.576.813c.13.067.29.043.393-.06l1.756-1.759a.337.337 0 0 0 .056-.392l-.812-1.578.283-.687 1.684-.541a.337.337 0 0 0 .235-.322V6.725a.337.337 0 0 0-.223-.32z"/>
        <path fill="#fff" d="M7.965 4.09a3.874 3.874 0 1 0 0 7.748 3.874 3.874 0 0 0 0-7.747z"/>
    </g>
</svg>
