<?xml version="1.0" encoding="UTF-8"?>
<svg width="12px" height="12px" viewBox="0 0 12 12" version="1.1" xmlns="http://www.w3.org/2000/svg" xmlns:xlink="http://www.w3.org/1999/xlink">
    <!-- Generator: Sketch 51.2 (57519) - http://www.bohemiancoding.com/sketch -->
    <title>Group</title>
    <desc>Created with Sketch.</desc>
    <defs></defs>
    <g id="Student-Profile" stroke="none" stroke-width="1" fill="none" fill-rule="evenodd">
        <g id="4_Student-Profile-info-Copy" transform="translate(-867.000000, -277.000000)" fill-rule="nonzero">
            <g id="Group-10" transform="translate(697.000000, 101.000000)">
                <g id="Group-3-Copy" transform="translate(38.000000, 153.000000)">
                    <g id="Group-5-Copy-3" transform="translate(132.000000, 22.000000)">
                        <g id="noun_Filled-50%_1824526" transform="translate(0.000000, 1.000000)">
                            <g id="Group">
                                <path d="M6,11.8 C9.20325154,11.8 11.8,9.20325154 11.8,6 C11.8,2.79674846 9.20325154,0.2 6,0.2 C2.79674846,0.2 0.2,2.79674846 0.2,6 C0.2,9.20325154 2.79674846,11.8 6,11.8 Z M6,12 C2.6862915,12 0,9.3137085 0,6 C0,2.6862915 2.6862915,0 6,0 C9.3137085,0 12,2.6862915 12,6 C12,9.3137085 9.3137085,12 6,12 Z" id="Shape" fill="#3E3E5F"></path>
                                <path d="M5.99836816,11.3999998 C3.01678048,11.399118 0.6,8.98179368 0.6,5.99999986 L11.4,5.99999986 C11.4,8.98179368 8.98321952,11.399118 6.00163184,11.3999998 L5.99836776,11.3999998 L5.99836816,11.3999998 Z" id="Shape" fill="#F8D61C"></path>
                            </g>
                        </g>
                    </g>
                </g>
            </g>
        </g>
    </g>
</svg>