<?xml version="1.0" encoding="UTF-8"?>
<svg width="340px" height="217px" viewBox="0 0 340 217" version="1.1" xmlns="http://www.w3.org/2000/svg" xmlns:xlink="http://www.w3.org/1999/xlink">
    <!-- Generator: Sketch 47.1 (45422) - http://www.bohemiancoding.com/sketch -->
    <title>Page Not found</title>
    <desc>Created with Sketch.</desc>
    <defs>
        <rect id="path-1" x="53" y="0" width="240" height="178" rx="2"></rect>
        <path d="M13.4392382,111.701977 C5.68177008,113.904417 0,121.037391 0,129.5 C0,139.717268 8.28595823,148 18.5069038,148 L73.4930962,148 C83.714177,148 92,139.719514 92,129.5 C92,121.952879 87.4789866,115.461286 80.9966047,112.583748 C80.7743415,98.9686218 69.6681009,88 56,88 C47.0183169,88 39.142887,92.7364305 34.7351806,99.8478212 C33.0902614,99.2978896 31.3299186,99 29.5,99 C21.6943755,99 15.1546832,104.420097 13.4392382,111.701977 Z" id="path-2"></path>
        <rect id="path-3" x="0" y="0" width="22" height="56" rx="2"></rect>
        <filter x="-31.8%" y="-12.5%" width="163.6%" height="125.0%" filterUnits="objectBoundingBox" id="filter-4">
            <feOffset dx="0" dy="8" in="SourceAlpha" result="shadowOffsetInner1"></feOffset>
            <feComposite in="shadowOffsetInner1" in2="SourceAlpha" operator="arithmetic" k2="-1" k3="1" result="shadowInnerInner1"></feComposite>
            <feColorMatrix values="0 0 0 0 1   0 0 0 0 1   0 0 0 0 1  0 0 0 1 0" type="matrix" in="shadowInnerInner1"></feColorMatrix>
        </filter>
        <rect id="path-5" x="0.242640687" y="0.757359313" width="31" height="72"></rect>
        <rect id="path-7" x="53" y="0" width="240" height="30" rx="2"></rect>
        <filter x="-2.1%" y="-16.7%" width="104.2%" height="133.3%" filterUnits="objectBoundingBox" id="filter-8">
            <feOffset dx="0" dy="10" in="SourceAlpha" result="shadowOffsetInner1"></feOffset>
            <feComposite in="shadowOffsetInner1" in2="SourceAlpha" operator="arithmetic" k2="-1" k3="1" result="shadowInnerInner1"></feComposite>
            <feColorMatrix values="0 0 0 0 1   0 0 0 0 1   0 0 0 0 1  0 0 0 1 0" type="matrix" in="shadowInnerInner1"></feColorMatrix>
        </filter>
    </defs>
    <g id="Symbols" stroke="none" stroke-width="1" fill="none" fill-rule="evenodd">
        <g id="Illustration---Page-Not-found---404" transform="translate(-226.000000, -83.000000)">
            <g id="Page-Not-found" transform="translate(226.000000, 83.000000)">
                <path d="M288.344622,75.0935693 L287.831142,76.8374911 L286.047593,77.1894551 C281.403009,78.1060132 278,82.2021601 278,87 C278,92.5205604 282.480087,97 287.997497,97 L327.002503,97 C332.52444,97 337,92.5239539 337,87 C337,83.3602375 335.038814,80.0642271 331.927912,78.2968005 L330.439347,77.4510877 L330.410289,75.7393015 C330.271546,67.5659709 323.599828,61 315.4125,61 C310.142866,61 305.348299,63.7364422 302.63253,68.1420027 L301.392289,70.1539399 L299.145954,69.4190467 C298.300904,69.1425871 297.411999,69 296.5,69 C292.705069,69 289.39981,71.5098579 288.344622,75.0935693 Z" id="Cloud" stroke="#EEF1F6" stroke-width="6" transform="translate(307.500000, 79.000000) scale(-1, 1) translate(-307.500000, -79.000000) "></path>
                <g id="Rectangle-1547">
                    <use fill="#FFFFFF" fill-rule="evenodd" xlink:href="#path-1"></use>
                    <rect stroke="#CFD7E6" stroke-width="6" x="56" y="3" width="234" height="172" rx="2"></rect>
                </g>
                <g id="Cloud">
                    <use fill="#FFFFFF" fill-rule="evenodd" xlink:href="#path-2"></use>
                    <path stroke="#CFD7E6" stroke-width="6" d="M16.3593053,112.389878 L15.9549554,114.1063 L14.2585923,114.587919 C7.64812311,116.464712 3,122.525184 3,129.5 C3,138.060113 9.94251189,145 18.5069038,145 L73.4930962,145 C82.0584058,145 89,138.061577 89,129.5 C89,123.312402 85.3402423,117.794186 79.7794329,115.325735 L78.0282773,114.548395 L77.9970043,112.632716 C77.8012,100.638373 68.0135909,91 56,91 C48.291051,91 41.2731169,94.9940353 37.2851064,101.428289 L36.0348024,103.445529 L33.7839678,102.693027 C32.4166345,102.235898 30.9762799,102 29.5,102 C23.2038439,102 17.7829325,106.346734 16.3593053,112.389878 Z"></path>
                </g>
                <g id="Group" transform="translate(139.000000, 54.000000)" stroke="#CFD7E6" stroke-width="3" stroke-linecap="round" stroke-dasharray="2,6">
                    <path d="M54.0179804,2.77431764 C55.018235,3.23388906 56.5430446,4.14470129 57.4208813,4.80652006 L67.0109786,12.036687 C67.4556304,12.371919 67.5430586,12.9894726 67.1928814,13.4329853 C67.1928814,13.4329853 50.6592895,34.3718211 41.9980469,45.3720703 C40.7370856,46.9735597 37.4287109,51.2373047 37.4287109,51.2373047 L25.5458984,68.7285156 L4.64686666,60.4058447 C3.61813305,59.9961697 3.3540837,58.9666176 4.04993075,58.1150444 L50.5664062,1.18847656 L54.0179804,2.77431764 Z" id="Path-35"></path>
                    <path d="M52.9552198,40.5648847 C53.6638351,39.7108702 54.892523,39.631818 55.7028033,40.3913464 L66.3382123,50.3606067 C67.1470455,51.1187787 67.0846863,52.2723951 66.2062963,52.9317511 L5.46167243,98.5291864 C4.57998404,99.1910183 4.4309473,99.0457487 5.14829579,98.181209 L52.9552198,40.5648847 Z" id="Path-36"></path>
                    <path d="M8.88418578,1.98400534 C9.05606592,0.888269446 10.0931951,0 11.2005408,0 L53.1672753,0 C54.2746827,0 54.7010726,0.763123898 54.1197161,1.70436775 L32.0871805,37.376092 C31.5057916,38.3173883 31.9344732,39.0804598 33.039876,39.0804598 L54.3164459,39.0804598 C55.423994,39.0804598 55.7409528,39.7646148 55.0303531,40.6015432 L5.88918709,98.4789166 C5.1759191,99.3189877 4.9792631,99.1919865 5.44988503,98.1953753 L23.2857472,60.4253143 C23.7563953,59.4286476 23.2502225,58.6206897 22.1420869,58.6206897 L1.99584409,58.6206897 C0.893569837,58.6206897 0.138935179,57.7349779 0.311216524,56.6366843 L8.88418578,1.98400534 Z" id="Path-34" fill="#FFFFFF"></path>
                </g>
                <g id="Group-2" transform="translate(226.525126, 144.025126) scale(-1, 1) rotate(-315.000000) translate(-226.525126, -144.025126) translate(176.525126, 56.025126)">
                    <rect id="Rectangle-453" stroke="#CFD7E6" stroke-width="6" fill="#FFFFFF" x="44" y="96" width="12" height="74" rx="2"></rect>
                    <g id="Group-4" transform="translate(39.000000, 119.928932)">
                        <g id="Rectangle-453">
                            <use fill="#EEF1F6" fill-rule="evenodd" xlink:href="#path-3"></use>
                            <use fill="black" fill-opacity="1" filter="url(#filter-4)" xlink:href="#path-3"></use>
                            <use stroke="#CFD7E6" stroke-width="6" xlink:href="#path-3"></use>
                        </g>
                        <path d="M3,50 L3,41 L12.0003297,41 L9.00065947,41 C5.68658675,41 3,43.6930342 3,47 L3,50 Z" id="Rectangle-189-Copy-10" fill="#CFD7E6" transform="translate(7.500165, 47.000000) scale(1, -1) translate(-7.500165, -47.000000) "></path>
                        <path d="M10,50 L10,41 L19.0003297,41 L16.0006595,41 C12.6865868,41 10,43.6930342 10,47 L10,50 Z" id="Rectangle-189-Copy-10" fill="#CFD7E6" transform="translate(14.500165, 47.000000) scale(-1, -1) translate(-14.500165, -47.000000) "></path>
                    </g>
                    <path d="M50,100 C22.3857625,100 -6.821e-13,77.6142375 -6.821e-13,50 C-6.821e-13,22.3857625 22.3857625,5.684e-13 50,5.684e-13 C77.6142375,5.684e-13 100,22.3857625 100,50 C100,77.6142375 77.6142375,100 50,100 Z M50,90 C72.09139,90 90,72.09139 90,50 C90,27.90861 72.09139,10 50,10 C27.90861,10 10,27.90861 10,50 C10,72.09139 27.90861,90 50,90 Z" id="Combined-Shape" stroke="#CFD7E6" stroke-width="6" fill="#FFFFFF"></path>
                    <path d="M50,90 C72.09139,90 90,72.09139 90,50 C90,27.90861 72.09139,10 50,10 C27.90861,10 10,27.90861 10,50 C10,72.09139 27.90861,90 50,90 Z" id="Oval-76" stroke="#CFD7E6" stroke-width="6" fill="#EEF1F6" opacity="0.4"></path>
                    <g id="Group-5" transform="translate(14.414214, 1.585786)">
                        <mask id="mask-6" fill="white">
                            <use xlink:href="#path-5"></use>
                        </mask>
                        <g id="Rectangle-459"></g>
                        <path d="M38.1421356,75.1421356 C53.0538239,75.1421356 65.1421356,63.0538239 65.1421356,48.1421356 C65.1421356,33.2304474 53.0538239,21.1421356 38.1421356,21.1421356 C23.2304474,21.1421356 11.1421356,33.2304474 11.1421356,48.1421356 C11.1421356,63.0538239 23.2304474,75.1421356 38.1421356,75.1421356 Z" id="Oval-76" stroke="#FFFFFF" stroke-width="6" stroke-linecap="round" stroke-dasharray="50" mask="url(#mask-6)"></path>
                    </g>
                    <circle id="Oval-80" fill="#FFFFFF" cx="41.7573593" cy="74.5857864" r="3"></circle>
                </g>
                <g id="Rectangle-1547">
                    <use fill="#EEF1F6" fill-rule="evenodd" xlink:href="#path-7"></use>
                    <use fill="black" fill-opacity="1" filter="url(#filter-8)" xlink:href="#path-7"></use>
                    <rect stroke="#CFD7E6" stroke-width="6" x="56" y="3" width="234" height="24" rx="2"></rect>
                </g>
                <circle id="Oval-69" fill="#CFD7E6" cx="68" cy="15" r="4"></circle>
                <circle id="Oval-69" fill="#CFD7E6" cx="82" cy="15" r="4"></circle>
                <circle id="Oval-69" fill="#CFD7E6" cx="96" cy="15" r="4"></circle>
                <path d="M59,15 L59,6 L68.0003297,6 L65.0006595,6 C61.6865868,6 59,8.69303423 59,12 L59,15 Z" id="Rectangle-189-Copy-10" fill="#CFD7E6"></path>
                <path d="M278,15 L278,6 L287.00033,6 L284.000659,6 C280.686587,6 278,8.69303423 278,12 L278,15 Z" id="Rectangle-189-Copy-10" fill="#CFD7E6" transform="translate(282.500165, 12.000000) scale(-1, 1) translate(-282.500165, -12.000000) "></path>
                <path d="M59,169 L59,160 L68.0003297,160 L65.0006595,160 C61.6865868,160 59,162.693034 59,166 L59,169 Z" id="Rectangle-189-Copy-10" fill="#CFD7E7" transform="translate(63.500165, 166.000000) scale(1, -1) translate(-63.500165, -166.000000) "></path>
                <path d="M278,169 L278,160 L287.00033,160 L284.000659,160 C280.686587,160 278,162.693034 278,166 L278,169 Z" id="Rectangle-189-Copy-10" fill="#CFD7E7" transform="translate(282.500165, 166.000000) scale(-1, -1) translate(-282.500165, -166.000000) "></path>
            </g>
        </g>
    </g>
</svg>